<svg width="60" height="60" viewBox="0 0 60 60" fill="none" xmlns="http://www.w3.org/2000/svg">
<path d="M55.0971 5.9432C51.4786 2.75178 46.602 1.38542 41.8522 2.23203C36.9282 3.11309 32.6153 6.05629 30 10.3204C27.3847 6.05629 23.0719 3.11309 18.1479 2.23203C13.3981 1.38671 8.52206 2.75295 4.903 5.9432C0.551132 9.93165 -1.00262 16.6723 0.640082 24.4384C0.646176 24.4675 0.665748 24.4892 0.674303 24.5172C0.716141 24.6439 0.780246 24.762 0.863688 24.8661C0.882556 24.8888 0.890291 24.917 0.911737 24.9384C0.939395 24.959 0.968107 24.9781 0.997875 24.9957C1.04885 25.0376 1.10393 25.0742 1.1623 25.1049C1.27375 25.1634 1.39551 25.2 1.52079 25.2124C1.55396 25.2157 1.58548 25.2315 1.61865 25.2315C1.65439 25.2265 1.6899 25.2196 1.72483 25.2108C1.75846 25.2123 1.7921 25.2121 1.82561 25.21C1.85491 25.2037 1.87659 25.1843 1.90484 25.1757C1.96812 25.1558 2.02918 25.1294 2.08696 25.097C2.14661 25.0658 2.20286 25.0284 2.25478 24.9854C2.27704 24.9668 2.3047 24.9593 2.32556 24.9384L5.84336 21.4216L5.85508 21.4138C6.62622 20.6405 7.87562 20.63 8.65965 21.3903C9.44367 22.1505 9.47168 23.3997 8.72235 24.1942L2.95255 29.964C2.69894 30.2161 2.59933 30.5846 2.69121 30.9302C2.78309 31.2758 3.05263 31.546 3.39788 31.6388C3.74314 31.7317 4.11183 31.6331 4.36473 31.3802L10.0714 25.6737C10.0792 25.6662 10.0896 25.6641 10.0975 25.6563C10.1124 25.6415 10.1219 25.6235 10.1365 25.6085L13.6048 22.1403C13.6135 22.1321 13.6253 22.1296 13.6338 22.1211C14.4243 21.3632 15.6716 21.3632 16.462 22.1211C17.2372 22.8989 17.2412 24.156 16.4708 24.9387L16.4591 24.9464L5.81114 35.5954C5.55858 35.8481 5.45991 36.2162 5.55237 36.5613C5.64484 36.9065 5.91438 37.1759 6.2594 37.2684C6.60442 37.3608 6.97264 37.2621 7.22531 37.0096L16.469 27.7767L16.4931 27.7525C17.2833 26.9925 18.5384 27.0111 19.3058 27.7942C20.0731 28.5773 20.0662 29.8324 19.2904 30.6071L17.1705 32.7273L17.1693 32.7283L17.1688 32.7289L9.44227 40.4558C9.1896 40.7085 9.09104 41.0766 9.1835 41.4217C9.27597 41.7667 9.54551 42.0363 9.89053 42.1287C10.2355 42.2212 10.6038 42.1225 10.8564 41.87L18.5847 34.1412C19.3659 33.3602 20.6323 33.3605 21.4132 34.1418C22.1942 34.923 22.194 36.1894 21.4127 36.9703C21.4084 36.9746 21.4073 36.9805 21.4031 36.9849L13.6526 44.7354C13.6475 44.7404 13.6462 44.7473 13.6413 44.7524C13.6362 44.7576 13.6291 44.7594 13.6242 44.7647C13.5876 44.8135 13.556 44.8657 13.5295 44.9206C13.4907 44.9724 13.4571 45.028 13.429 45.0862C13.4104 45.1481 13.398 45.2116 13.392 45.2759C13.3514 45.3967 13.3541 45.5279 13.3994 45.6471C13.4081 45.7112 13.4231 45.7744 13.4441 45.8356C13.4753 45.8941 13.5119 45.9494 13.5539 46.0008C13.582 46.0533 13.6151 46.1031 13.6527 46.1494C13.6577 46.1545 13.6646 46.1559 13.6697 46.1607C13.6749 46.1657 13.6767 46.1727 13.682 46.1777C18.566 50.5648 23.8553 54.4787 29.4788 57.8668C29.799 58.0622 30.2016 58.0622 30.5218 57.8668C36.1451 54.4787 41.4344 50.5648 46.3184 46.1777C46.3238 46.1727 46.3255 46.1657 46.3307 46.1607C46.3358 46.1557 46.3427 46.1543 46.3477 46.1494C46.3852 46.1031 46.4183 46.0533 46.4465 46.0008C46.4884 45.9495 46.5252 45.8941 46.5563 45.8356C46.5882 45.7124 46.6152 45.5879 46.6368 45.4625C46.6332 45.3995 46.6237 45.337 46.6082 45.2759C46.6023 45.2115 46.59 45.148 46.5713 45.0862C46.5432 45.028 46.5095 44.9724 46.4708 44.9206C46.4443 44.8657 46.4125 44.8135 46.376 44.7647C46.3711 44.7593 46.364 44.7576 46.3589 44.7524C46.3539 44.7473 46.3527 44.7404 46.3476 44.7354L38.5971 36.9849C38.5929 36.9805 38.5917 36.9747 38.5875 36.9703C37.8063 36.1894 37.8061 34.923 38.5869 34.1418C39.3679 33.3605 40.6343 33.3603 41.4155 34.1412L49.1437 41.87C49.5342 42.2605 50.1673 42.2605 50.5579 41.87C50.9484 41.4795 50.9484 40.8463 50.5579 40.4558L42.8315 32.7285L42.831 32.7279L42.8298 32.727L40.7099 30.6066C40.2044 30.1014 40.0071 29.3649 40.1919 28.6747C40.3767 27.9844 40.9158 27.4451 41.6061 27.26C42.2963 27.075 43.0329 27.2722 43.5382 27.7774L43.5502 27.7854L52.7751 37.0094C53.1662 37.3965 53.7966 37.3949 54.1856 37.0057C54.5747 36.6166 54.5764 35.9863 54.1892 35.5952L44.96 26.3749L44.9523 26.3633C44.946 26.3568 44.9381 26.3527 44.9317 26.3464L43.5411 24.9462L43.5381 24.9442C42.758 24.1637 42.7581 22.8985 43.5386 22.1184C44.3191 21.3382 45.5842 21.3383 46.3644 22.1189C46.3729 22.1274 46.3846 22.13 46.3933 22.1382L49.7669 25.5117C49.8072 25.5598 49.8498 25.6042 49.903 25.6575L49.9044 25.6592L49.9047 25.6593L49.9054 25.6601L55.6352 31.3801C55.888 31.633 56.2567 31.7317 56.6021 31.6387C56.9474 31.5459 57.2169 31.2757 57.3087 30.9301C57.4006 30.5845 57.301 30.2161 57.0474 29.9639L51.3088 24.2381C51.2914 24.2158 51.2717 24.1954 51.2529 24.1744L51.2482 24.1668C50.5277 23.3776 50.5587 22.1603 51.3185 21.4089C52.1086 20.653 53.3538 20.653 54.1438 21.4089L57.6743 24.9384C57.6951 24.9593 57.7229 24.9668 57.745 24.9854C57.8495 25.0692 57.968 25.1337 58.0951 25.1756C58.1234 25.1842 58.145 25.2036 58.1743 25.2098C58.2421 25.2239 58.3111 25.2311 58.3802 25.2311L58.3813 25.2313H58.3816H58.3822C58.5038 25.2301 58.624 25.2067 58.737 25.162C58.768 25.1468 58.7983 25.1299 58.8276 25.1115C58.9077 25.0727 58.9821 25.0233 59.0491 24.9646C59.061 24.9537 59.0767 24.9499 59.0883 24.9384C59.1094 24.9173 59.117 24.8894 59.1358 24.8669C59.1874 24.8068 59.2314 24.7405 59.2668 24.6696C59.2893 24.6243 59.3083 24.5773 59.3233 24.5292C59.337 24.4995 59.3492 24.4693 59.3597 24.4385C61.0026 16.6723 59.4488 9.93165 55.0971 5.9432ZM57.7272 22.1634L55.558 19.9947C53.9761 18.4843 51.4863 18.4843 49.9043 19.9947C49.4099 20.4931 49.0548 21.1125 48.8743 21.7911L47.7879 20.7047C47.7726 20.6892 47.7518 20.6841 47.7355 20.6699C46.3502 19.3123 44.1886 19.1496 42.6157 20.2847C41.0428 21.4197 40.5159 23.5224 41.3677 25.2649C39.9897 25.5276 38.8517 26.4958 38.3718 27.8138C37.8919 29.1317 38.1408 30.6052 39.0272 31.6923C38.3263 31.8619 37.6851 32.2199 37.1731 32.7277C35.6229 34.2834 35.615 36.7976 37.1556 38.3628C37.163 38.3708 37.1653 38.3814 37.1731 38.3891L44.1839 45.3998C39.7629 49.2785 35.0174 52.7711 29.9999 55.8392C24.9824 52.771 20.237 49.2785 15.816 45.3998L22.8267 38.3891C22.8346 38.3814 22.8367 38.3708 22.8442 38.3628C24.3848 36.7975 24.377 34.2834 22.8267 32.7277C22.3142 32.2204 21.6731 31.8625 20.9722 31.6926C21.8583 30.606 22.1076 29.1334 21.6285 27.8156C21.1494 26.4979 20.0127 25.5292 18.6355 25.2653C19.377 23.7387 19.0724 21.9104 17.8762 20.7066C16.3118 19.2108 13.8525 19.1938 12.2676 20.6679C12.25 20.6832 12.2276 20.6889 12.211 20.7056L11.1163 21.8003C10.9426 21.1202 10.5909 20.4988 10.0975 19.9995C8.5448 18.4499 6.03369 18.4398 4.46857 19.9769C4.46048 19.9845 4.44981 19.9868 4.44196 19.9946L2.27259 22.1633C1.36961 15.9115 2.77758 10.6038 6.25448 7.41773C9.43359 4.66778 13.6785 3.48846 17.8206 4.20463C22.523 4.98491 26.5368 8.01928 29.1219 12.75C29.3129 13.0502 29.6441 13.2321 29.9999 13.2321C30.3557 13.2321 30.6869 13.0503 30.8779 12.75C33.4631 8.01928 37.4769 4.98502 42.1793 4.20463C46.3212 3.48869 50.566 4.6679 53.7453 7.41773C57.2222 10.6039 58.6303 15.9116 57.7272 22.1634Z" fill="#99A537"/>
</svg>
