<svg width="60" height="60" viewBox="0 0 60 60" fill="none" xmlns="http://www.w3.org/2000/svg">
<g clip-path="url(#clip0_307_95003)">
<path d="M21 17.9999C21.0174 13.7769 23.9508 10.1263 28.071 9.19992C28.6106 9.08201 28.9524 8.549 28.8345 8.00942C28.7166 7.46984 28.1836 7.12801 27.644 7.24592C22.6079 8.37703 19.0219 12.8384 19 17.9999C19 18.5522 19.4477 18.9999 20 18.9999C20.5523 18.9999 21 18.5522 21 17.9999Z" fill="#99A537"/>
<path d="M3.42989 58.0003H24.2839C25.1119 59.3663 27.6279 60.0003 29.9999 60.0003C32.3469 60.0003 34.8389 59.3813 35.6909 58.0003H56.5699C57.4666 58.002 58.3171 57.6025 58.8883 56.9113C59.4595 56.2201 59.6916 55.3096 59.5209 54.4293L55.1429 31.9533C54.9622 31.0117 54.1387 30.3308 53.1799 30.3303H51.2489L51.1069 29.4793C50.9641 28.622 50.2869 27.9533 49.4279 27.8213C46.9062 27.4049 44.3524 27.2142 41.7969 27.2513C43.8739 24.6152 45.0023 21.3563 44.9999 18.0003C44.968 11.2559 40.4674 5.3504 33.9729 3.53126C33.7184 1.40801 31.8419 -0.14152 29.7089 0.0102577C27.8187 0.185859 26.3002 1.64373 26.0479 3.52526C19.5429 5.33721 15.0317 11.2477 14.9999 18.0003C14.997 21.3549 16.1243 24.6128 18.1999 27.2483C15.6468 27.2079 13.0954 27.3994 10.5769 27.8203C9.71654 27.9501 9.0371 28.6182 8.89289 29.4763L8.74989 30.3303H6.81989C5.86274 30.3309 5.04023 31.0096 4.85789 31.9493L0.47889 54.4283C0.307876 55.3087 0.539781 56.2195 1.11104 56.911C1.68229 57.6025 2.53297 58.0021 3.42989 58.0003ZM29.9999 58.0003C27.5909 58.0003 26.2089 57.2883 26.0059 56.9713L26.3499 52.8203C27.4496 53.094 28.5257 53.4552 29.5679 53.9003C29.7027 53.9652 29.8503 53.9994 29.9999 54.0003C30.1499 54 30.298 53.9659 30.4329 53.9003C31.4744 53.4527 32.5502 53.0895 33.6499 52.8143L33.9939 56.9703C33.7909 57.2883 32.4089 58.0003 29.9999 58.0003ZM53.1789 32.3323L57.5589 54.8123C57.6149 55.1032 57.5378 55.404 57.3489 55.6323C57.1575 55.8654 56.8716 56.0005 56.5699 56.0003H35.9209L35.6209 52.3683C41.1304 51.3304 46.8125 51.6939 52.1449 53.4253C52.8083 53.6302 53.5304 53.4775 54.0541 53.0216C54.5778 52.5658 54.8285 51.8715 54.7169 51.1863L51.5819 32.3313L53.1789 32.3323ZM27.2139 5.30026C27.674 5.19946 28.0014 4.79127 27.9999 4.32026V4.16926C27.9728 3.08038 28.7719 2.14664 29.8519 2.00526C30.4066 1.9641 30.9534 2.1558 31.361 2.53433C31.7685 2.91287 32 3.44403 31.9999 4.00026V4.32026C32.0003 4.78977 32.3273 5.19578 32.7859 5.29626C38.7348 6.63366 42.9713 11.9029 42.9999 18.0003C43.0047 21.2671 41.7741 24.4149 39.5549 26.8123C37.4617 29.0484 36.2122 31.9433 36.0209 35.0003H23.9789C23.8189 32.4253 22.9011 29.955 21.3409 27.9003L21.3129 27.8613C21.0409 27.5013 20.7559 27.1503 20.4449 26.8143C18.2252 24.4164 16.9946 21.2678 16.9999 18.0003C17.0304 11.9044 21.2664 6.63733 27.2139 5.30026ZM33.9999 42.0003H25.9999C24.8953 42.0003 23.9999 41.1048 23.9999 40.0003V37.0003H35.9999V40.0003C35.9999 41.1048 35.1045 42.0003 33.9999 42.0003ZM32.9389 44.0003C32.5244 45.255 31.3192 46.0751 29.9999 46.0003C28.6806 46.0751 27.4754 45.255 27.0609 44.0003H32.9389ZM10.8689 29.8003C13.8637 29.2523 16.9192 29.1161 19.9509 29.3953C21.2718 31.2465 21.9875 33.4611 21.9999 35.7353V38.0003H19.9999C19.4476 38.0003 18.9999 38.448 18.9999 39.0003C18.9999 39.5525 19.4476 40.0003 19.9999 40.0003H21.9999C22.0057 41.8357 23.2599 43.4317 25.0419 43.8713C25.3882 46.3171 27.5318 48.1023 29.9999 48.0003C32.468 48.1023 34.6116 46.3171 34.9579 43.8713C36.7399 43.4317 37.9941 41.8357 37.9999 40.0003H39.9999C40.5522 40.0003 40.9999 39.5525 40.9999 39.0003C40.9999 38.448 40.5522 38.0003 39.9999 38.0003H37.9999V35.7353C38.0119 33.4612 38.7273 31.2466 40.0479 29.3953C43.081 29.1154 46.1382 29.253 49.1339 29.8043L52.7439 51.5183C45.6874 49.162 38.0564 49.162 30.9999 51.5183V50.0003C30.9999 49.448 30.5522 49.0003 29.9999 49.0003C29.4476 49.0003 28.9999 49.448 28.9999 50.0003V51.5223C21.9444 49.1626 14.3131 49.1598 7.25589 51.5143L10.8689 29.8003ZM6.81989 32.3303H8.41989L5.28189 51.1893C5.17152 51.8757 5.42427 52.5704 5.94996 53.0254C6.47564 53.4804 7.19937 53.6309 7.86289 53.4233C13.1939 51.6961 18.8733 51.3358 24.3799 52.3753L24.0819 56.0003H3.42989C3.12821 56.0005 2.84232 55.8654 2.65089 55.6323C2.46193 55.404 2.38491 55.1032 2.44089 54.8123L6.81989 32.3303Z" fill="#99A537"/>
<path d="M8.80509 13.323L10.7671 13.713C10.833 13.726 10.9 13.7323 10.9671 13.732C11.4816 13.732 11.9122 13.3416 11.9623 12.8295C12.0125 12.3174 11.6659 11.8508 11.1611 11.751L9.20009 11.361C8.84962 11.2913 8.48859 11.4139 8.25302 11.6826C8.01745 11.9513 7.94312 12.3253 8.05802 12.6636C8.17293 13.002 8.45962 13.2533 8.81009 13.323H8.80509Z" fill="#99A537"/>
<path d="M48.8424 24.249L50.8044 24.639C50.8703 24.6514 50.9373 24.6577 51.0044 24.658C51.5189 24.658 51.9495 24.2675 51.9996 23.7554C52.0498 23.2433 51.7032 22.7768 51.1984 22.677L49.2364 22.287C48.6946 22.1793 48.1681 22.5312 48.0604 23.073C47.9527 23.6148 48.3046 24.1413 48.8464 24.249H48.8424Z" fill="#99A537"/>
<path d="M8.99999 24.658C9.0671 24.6577 9.13404 24.6514 9.19999 24.639L11.162 24.249C11.7038 24.1413 12.0557 23.6148 11.948 23.073C11.8403 22.5312 11.3138 22.1793 10.772 22.287L8.80999 22.677C8.30597 22.7766 7.95947 23.242 8.00853 23.7534C8.05758 24.2649 8.48621 24.6559 8.99999 24.658Z" fill="#99A537"/>
<path d="M49.0371 13.7322C49.1042 13.7325 49.1712 13.7262 49.2371 13.7132L51.1991 13.3232C51.7409 13.2155 52.0928 12.689 51.9851 12.1472C51.8774 11.6054 51.3509 11.2535 50.8091 11.3612L48.8471 11.7512C48.3423 11.851 47.9957 12.3176 48.0458 12.8296C48.096 13.3417 48.5265 13.7322 49.0411 13.7322H49.0371Z" fill="#99A537"/>
<path d="M13.3309 35.1115C13.5284 35.1115 13.7215 35.0531 13.8859 34.9435L15.5489 33.8325C15.848 33.6349 16.0185 33.2923 15.9957 32.9345C15.9729 32.5767 15.7603 32.2585 15.4385 32.1004C15.1167 31.9424 14.7349 31.9687 14.4379 32.1695L12.7739 33.2805C12.4079 33.5255 12.2453 33.9811 12.3734 34.4025C12.5016 34.8239 12.8904 35.1118 13.3309 35.1115Z" fill="#99A537"/>
<path d="M45.0082 4.00054C45.2058 4.00029 45.3989 3.94148 45.5632 3.83154L47.2262 2.72054C47.6854 2.41347 47.8087 1.79227 47.5017 1.33304C47.1946 0.873816 46.5734 0.750471 46.1142 1.05754L44.4512 2.16854C44.0842 2.41323 43.9209 2.86945 44.0492 3.29144C44.1775 3.71342 44.5671 4.00152 45.0082 4.00054Z" fill="#99A537"/>
<path d="M14.4383 3.83144C14.7354 4.03216 15.1172 4.05849 15.439 3.90046C15.7608 3.74243 15.9734 3.42422 15.9962 3.06644C16.019 2.70865 15.8485 2.36603 15.5493 2.16844L13.8863 1.05744C13.5893 0.858799 13.2088 0.833731 12.8882 0.991678C12.5677 1.14963 12.3557 1.46659 12.3322 1.82318C12.3088 2.17977 12.4773 2.5218 12.7743 2.72044L14.4383 3.83144Z" fill="#99A537"/>
<path d="M46.1141 34.9437C46.5733 35.2508 47.1945 35.1275 47.5016 34.6682C47.8087 34.209 47.6853 33.5878 47.2261 33.2807L45.5631 32.1697C45.266 31.9711 44.8856 31.946 44.565 32.104C44.2444 32.2619 44.0325 32.5789 44.009 32.9355C43.9855 33.2921 44.154 33.6341 44.4511 33.8327L46.1141 34.9437Z" fill="#99A537"/>
</g>
<defs>
<clipPath id="clip0_307_95003">
<rect width="60" height="60" fill="white"/>
</clipPath>
</defs>
</svg>
