<svg width="38" height="38" viewBox="0 0 38 38" fill="none" xmlns="http://www.w3.org/2000/svg">
<path d="M36.0766 20.0711C35.1036 19.3399 33.7794 19.3745 32.8466 20.1575L30.6472 22.0114C28.8912 19.1038 25.9663 17.2499 22.7709 17.0254L25.5287 14.7396C25.8915 14.8145 26.5651 14.9181 27.3597 14.9181C28.4939 14.9181 29.8527 14.6935 30.8257 13.8184C32.766 12.0681 32.2766 8.50991 32.2536 8.36021C32.2248 8.14142 32.0578 7.96294 31.8448 7.90536C31.6951 7.86506 28.206 7.00718 26.2657 8.75748C24.6248 10.2372 24.7227 12.9951 24.8033 13.9163L22.7709 15.6032V9.95506C23.4503 9.42536 25.4309 7.69233 25.379 5.59082C25.3215 3.11506 22.46 1.26688 22.339 1.19203C22.149 1.07112 21.913 1.07688 21.7287 1.2093C21.6078 1.28991 18.8442 3.259 18.896 5.74051C18.9421 7.81324 20.9342 9.43688 21.6654 9.96082V13.1448L19.5754 12.0393C19.4545 11.1929 18.9536 8.71142 17.163 7.73264C15.0442 6.57536 12.1021 8.0896 11.9812 8.15294C11.7854 8.25657 11.6703 8.4696 11.6875 8.68839C11.699 8.82657 12.0157 12.1142 14.1287 13.2772C14.716 13.5996 15.3609 13.7148 16 13.7148C17.2781 13.7148 18.493 13.2426 19.0342 13.0008L21.6712 14.3769V17.0196C18.2569 17.1808 15.096 19.2132 13.3342 22.4202C12.1712 22.3051 11.0254 22.3972 9.96026 22.7081C8.6245 23.0938 7.45572 23.7675 6.48269 24.706C6.16026 25.0169 5.76875 25.3163 5.25056 25.6387L1.66935 27.8841C0.93814 28.3448 0.679049 29.3005 1.07056 30.0663L4.13359 35.9966C4.34087 36.3938 4.68632 36.6875 5.11238 36.8257C5.27935 36.8775 5.45208 36.9063 5.61905 36.9063C5.8839 36.9063 6.14875 36.8429 6.39056 36.7163L10.4554 34.5975C11.1751 34.2232 11.9754 34.0793 12.7815 34.1772L19.7366 35.0408C20.6463 35.156 21.5733 35.0178 22.4139 34.6551C26.8472 32.7148 31.4245 29.2026 36.4048 23.9172C36.9115 23.3817 37.159 22.6563 37.1015 21.9193C37.0381 21.1881 36.6639 20.5145 36.0766 20.0711ZM14.6584 12.3099C13.409 11.6248 12.9715 9.76506 12.8333 8.96476C13.7315 8.579 15.476 8.06657 16.6333 8.69415C17.6121 9.2296 18.09 10.479 18.3203 11.3829L16.5181 10.4387C16.2475 10.3005 15.9194 10.4042 15.7754 10.669C15.6372 10.9396 15.7409 11.2678 16.0057 11.4117L17.7272 12.3099C16.8463 12.5978 15.5969 12.8223 14.6584 12.3099ZM27.0027 9.5693C28.1887 8.49839 30.3421 8.74021 31.2057 8.88991C31.269 9.7593 31.2863 11.9184 30.0945 12.9951C29.179 13.8184 27.7109 13.8702 26.6803 13.7838L28.0448 12.6496C28.2809 12.4538 28.3097 12.1084 28.1139 11.8781C27.9181 11.6478 27.5727 11.6132 27.3424 11.809L25.8684 13.0296C25.8684 11.9932 26.0412 10.4329 27.0027 9.5693ZM20.0015 5.70597C19.9669 4.22627 21.4178 2.86173 22.0627 2.33203C22.7306 2.83294 24.2448 4.12839 24.2794 5.60809C24.3024 6.74233 23.456 7.80748 22.7709 8.48688V5.86142C22.7709 5.55627 22.5233 5.31445 22.2239 5.31445C21.9187 5.31445 21.6769 5.56203 21.6769 5.86142V8.54445C20.9515 7.8996 20.0303 6.85748 20.0015 5.70597ZM21.6712 18.1135V20.7045H20.0245C19.7194 20.7045 19.4775 20.952 19.4775 21.2514C19.4775 21.5566 19.7251 21.7984 20.0245 21.7984H24.4233C24.7284 21.7984 24.9703 21.5508 24.9703 21.2514C24.9703 20.9463 24.7227 20.7045 24.4233 20.7045H22.7766V18.1251C25.6381 18.3554 28.2578 20.0654 29.8009 22.7254L26.7666 25.2817C26.3809 24.4181 25.5115 23.8078 24.5039 23.8078H19.4142C18.8557 23.8078 18.3087 23.7272 17.779 23.5602L15.3494 22.8117C15.0672 22.7254 14.7851 22.6563 14.4972 22.5929C16.0921 19.9502 18.7809 18.269 21.6712 18.1135ZM35.6045 23.1629C30.7278 28.339 26.2715 31.7648 21.9763 33.6475C21.3142 33.9354 20.5945 34.039 19.8748 33.9526L12.9197 33.089C11.8948 32.9623 10.87 33.1466 9.94875 33.6245L5.8839 35.7432C5.74572 35.8123 5.59026 35.8238 5.44632 35.7835C5.30238 35.7375 5.18147 35.6338 5.11238 35.5014L2.04935 29.5711C1.91117 29.3063 1.99753 28.9838 2.25662 28.8226L5.83784 26.5714C6.41935 26.2029 6.86844 25.8632 7.24844 25.4948C8.08905 24.6829 9.10814 24.0957 10.2654 23.7617C10.939 23.566 11.6472 23.4681 12.3784 23.4681C13.2421 23.4681 14.1345 23.6063 15.0269 23.8769L17.4566 24.6254C18.09 24.8211 18.7521 24.919 19.4142 24.919H24.5039C25.2639 24.919 25.88 25.5351 25.88 26.2951V26.3008C25.88 27.0608 25.2639 27.6711 24.5039 27.6711H14.5951C14.29 27.6711 14.0481 27.9187 14.0481 28.2181C14.0481 28.5175 14.2957 28.7651 14.5951 28.7651H24.5039C25.7763 28.7651 26.83 27.7978 26.9624 26.5599L33.5606 21.0038C34.096 20.5548 34.8618 20.5317 35.4203 20.952C35.76 21.2054 35.973 21.5969 36.0075 22.0172C36.0421 22.4432 35.8981 22.852 35.6045 23.1629Z" fill="white"/>
</svg>
