<svg width="38" height="38" viewBox="0 0 38 38" fill="none" xmlns="http://www.w3.org/2000/svg">
<g clip-path="url(#clip0_310_99627)">
<path d="M0.00292969 33.5676C0.00574956 36.0145 1.98864 37.9974 4.43555 38.0002H21.5329C23.9798 37.9974 25.9628 36.0145 25.9655 33.5676C25.9655 32.8681 25.3985 32.3011 24.699 32.3011H21.726C22.2393 31.9421 22.7023 31.5162 23.1026 31.0346H24.699C27.146 31.0317 29.1289 29.0488 29.1317 26.6019C29.1296 24.8542 27.7133 23.4379 25.9655 23.4357H24.699V21.536C24.699 20.8366 24.132 20.2695 23.4325 20.2695H2.5357C1.83622 20.2695 1.2692 20.8366 1.2692 21.536V26.6019C1.27165 28.8735 2.38268 31.0009 4.24543 32.3011H1.26943C0.569948 32.3011 0.00292969 32.8681 0.00292969 33.5676ZM27.8653 26.6019C27.8622 28.3493 26.4465 29.7649 24.6991 29.7681H23.9304C24.435 28.789 24.6985 27.7035 24.6991 26.6019V24.7022H25.9656C27.0148 24.7022 27.8653 25.5527 27.8653 26.6019ZM2.53592 26.6019V24.7022H5.70212C6.05186 24.7022 6.33534 24.4187 6.33534 24.069C6.33534 23.7194 6.05186 23.4358 5.70212 23.4358H2.53592V21.5361H23.4327V23.4358H8.23504C7.8853 23.4358 7.60183 23.7193 7.60183 24.069C7.60183 24.4188 7.88538 24.7022 8.23504 24.7022H23.4327V26.6019C23.4288 29.7479 20.8795 32.2972 17.7336 32.3011H8.23504C5.0891 32.2972 2.53978 29.7479 2.53592 26.6019ZM17.7336 33.5676H24.6992C24.6971 35.3153 23.2808 36.7316 21.533 36.7338H4.43563C2.68797 36.7313 1.27187 35.3152 1.26943 33.5676H17.7336Z" fill="white"/>
<path d="M36.7307 12.6706H24.6992V10.6752C24.6992 10.6037 24.7106 10.5441 24.7132 10.4751C25.3257 10.789 26.005 10.95 26.6933 10.9443C28.342 10.8901 29.9036 10.1911 31.0424 8.99774C33.3073 6.90502 34.1405 3.68175 33.1732 0.753681C33.1093 0.59035 32.9801 0.461081 32.8167 0.397189C29.8886 -0.570029 26.6653 0.263022 24.5727 2.52805C24.3932 2.71023 24.224 2.90243 24.0661 3.10368C23.9075 2.9048 23.7384 2.71453 23.5595 2.53377C21.4693 0.263764 18.2428 -0.570845 15.3141 0.401048C15.1514 0.465385 15.0226 0.594209 14.9582 0.756946C13.9888 3.68405 14.8223 6.90754 17.089 8.99789C18.0847 10.0244 19.3921 10.6923 20.8074 10.8976C21.0214 10.9244 21.2369 10.938 21.4526 10.9381C22.1342 10.9454 22.8076 10.7884 23.4156 10.4803C23.4156 10.548 23.4296 10.6069 23.4296 10.6759L23.4328 12.6706H11.4013C10.7018 12.6706 10.1348 13.2376 10.1348 13.9371V15.8368C10.1348 16.5363 10.7018 17.1033 11.4013 17.1033H11.507L11.7603 18.4838C11.8285 18.8223 12.1554 19.0436 12.495 18.9814C12.8346 18.9193 13.0619 18.5965 13.0058 18.2558L12.7944 17.1033H35.3376L31.8643 36.2138C31.8095 36.5149 31.5472 36.7337 31.2412 36.7337H26.5926C26.2429 36.7337 25.9594 37.0172 25.9594 37.3669C25.9594 37.7166 26.2429 38.0001 26.5926 38.0001H31.2412C32.1593 38.0003 32.9462 37.3437 33.1105 36.4404L36.6262 17.1033H36.7307C37.4301 17.1033 37.9972 16.5363 37.9972 15.8368V13.9371C37.9972 13.2376 37.4301 12.6706 36.7307 12.6706ZM25.4667 3.42529C27.1432 1.60462 29.6885 0.859278 32.0822 1.48826C32.7111 3.88196 31.9658 6.42727 30.1451 8.10369C28.5519 9.69625 26.2894 10.1301 24.9367 9.11684C25.3959 7.81302 26.5154 7.01514 28.2853 6.13052C28.4876 6.0293 28.6206 5.82775 28.6341 5.60187C28.6476 5.37598 28.5396 5.16004 28.3507 5.03544C28.1619 4.91077 27.9208 4.89638 27.7185 4.99767C26.9185 5.37472 26.1606 5.83555 25.4578 6.37244C25.3766 5.62658 25.1558 4.90261 24.8069 4.23846C25.0009 3.94719 25.2218 3.675 25.4667 3.42529ZM20.9632 9.64052C19.8289 9.47029 18.7827 8.93029 17.9869 8.10429C16.1643 6.43009 15.4183 3.88456 16.0486 1.49138C18.4409 0.859946 20.9863 1.60432 22.6615 3.42529C23.0039 3.76895 23.3017 4.15423 23.548 4.57209L23.5543 4.58411C24.2062 5.5845 24.3845 6.82117 24.042 7.96492C23.2491 6.54586 21.8402 5.71629 20.4047 4.99819C20.2023 4.89697 19.9613 4.91137 19.7724 5.03596C19.5836 5.16063 19.4755 5.3765 19.489 5.60239C19.5025 5.82827 19.6355 6.02975 19.8379 6.13104C21.6109 7.01759 22.7324 7.81673 23.1902 9.1256C22.544 9.58242 21.7443 9.76727 20.9632 9.64052ZM36.0975 15.8367H11.4013V13.937H36.7307V15.8367H36.0975Z" fill="white"/>
</g>
<defs>
<clipPath id="clip0_310_99627">
<rect width="38" height="38" fill="white"/>
</clipPath>
</defs>
</svg>
