<svg width="64" height="64" viewBox="0 0 64 64" fill="none" xmlns="http://www.w3.org/2000/svg">
<path d="M56.5 29.5H41.5V24.5C41.5 17.6075 47.1075 12 54 12H61.5C62.8808 12 64 10.8807 64 9.5C64 8.11925 62.8808 7 61.5 7H54C44.3505 7 36.5 14.8505 36.5 24.5V49.5C36.5 53.6355 39.8645 57 44 57H56.5C60.6355 57 64 53.6355 64 49.5V37C64 32.8645 60.6355 29.5 56.5 29.5ZM59 49.5C59 50.8785 57.8785 52 56.5 52H44C42.6215 52 41.5 50.8785 41.5 49.5V34.5H56.5C57.8785 34.5 59 35.6215 59 37V49.5Z" fill="#99A537"/>
<path d="M17.5 12H25C26.3808 12 27.5 10.8807 27.5 9.5C27.5 8.11925 26.3808 7 25 7H17.5C7.8505 7 0 14.8505 0 24.5V49.5C0 53.6355 3.3645 57 7.5 57H20C24.1355 57 27.5 53.6355 27.5 49.5V37C27.5 32.8645 24.1355 29.5 20 29.5H5V24.5C5 17.6075 10.6075 12 17.5 12ZM22.5 37V49.5C22.5 50.8785 21.3785 52 20 52H7.5C6.1215 52 5 50.8785 5 49.5V34.5H20C21.3785 34.5 22.5 35.6215 22.5 37Z" fill="#99A537"/>
</svg>
