<svg width="98" height="98" viewBox="0 0 98 98" fill="none" xmlns="http://www.w3.org/2000/svg">
<g clip-path="url(#clip0_352_43)">
<path d="M48.1832 52.2668C50.8894 52.2668 53.0832 50.073 53.0832 47.3668C53.0832 44.6606 50.8894 42.4668 48.1832 42.4668C45.477 42.4668 43.2832 44.6606 43.2832 47.3668C43.2832 50.073 45.477 52.2668 48.1832 52.2668ZM48.1832 45.7335C49.0853 45.7335 49.8165 46.4647 49.8165 47.3668C49.8165 48.2689 49.0853 49.0001 48.1832 49.0001C47.2811 49.0001 46.5499 48.2689 46.5499 47.3668C46.5499 46.4647 47.2811 45.7335 48.1832 45.7335Z" fill="#99A537"/>
<path d="M3.82186 65.3334C6.22695 65.7195 8.5344 66.5682 10.6165 67.8324C9.3262 80.2784 9.06486 90.4541 8.9832 94.7334C8.96947 95.605 9.30466 96.4459 9.9142 97.0691C10.5374 97.6786 11.3783 98.0138 12.2499 98.0001H15.5165C17.3207 98.0001 18.7832 96.5375 18.7832 94.7334C18.7832 92.5774 18.9302 88.7064 19.1915 83.6921C20.4982 81.7321 24.7285 80.4254 27.2112 79.9517C27.7208 79.8607 28.1571 79.5335 28.3872 79.0697C28.6202 78.6074 28.6202 78.062 28.3872 77.5997C26.8863 74.2656 23.6998 72.0038 20.0572 71.6871C20.8499 62.4779 22.1037 53.3143 23.8139 44.2307C25.0623 45.1602 26.36 46.0216 27.7012 46.8114C30.7416 48.5395 33.9692 49.915 37.3215 50.9111C38.1028 53.2636 39.6204 55.3023 41.6499 56.7257V64.9741C40.6174 65.8975 40.024 67.2149 40.0165 68.6001V93.1001C40.0165 95.8063 42.2103 98.0001 44.9165 98.0001H51.4499C54.1561 98.0001 56.3499 95.8063 56.3499 93.1001V68.6001C56.3424 67.2149 55.749 65.8975 54.7165 64.9741V58.6694L60.1555 61.8217C60.4317 63.1943 61.2817 64.3832 62.4912 65.0884L83.7245 77.3384C84.4649 77.7646 85.3039 77.9898 86.1582 77.9917C87.9158 77.9987 89.5424 77.0638 90.4212 75.5417L93.6879 69.8904C94.3384 68.7643 94.5146 67.4258 94.1776 66.1697C93.8406 64.9136 93.0181 63.843 91.8912 63.1937L70.6579 50.9437C69.4503 50.2562 68.0076 50.1137 66.6889 50.5517L59.6165 46.4031C59.4063 43.9495 58.4095 41.6295 56.7745 39.7881C57.5701 36.3824 57.9756 32.8974 57.9832 29.4001C57.9832 17.0684 51.6949 3.26672 43.2832 3.26672C42.3811 3.26672 41.6499 3.99799 41.6499 4.90006V36.0477L27.7992 28.0444C28.2729 26.4111 28.7629 24.8757 29.3019 23.3241C31.8279 22.5997 34.483 22.4435 37.0765 22.8667C37.5909 22.9468 38.1126 22.777 38.4812 22.4094C38.8488 22.0408 39.0186 21.5191 38.9385 21.0047C38.6083 17.6328 36.6085 14.6514 33.6139 13.0667C34.0549 12.2174 34.4632 11.4334 34.9369 10.5351C36.073 8.22263 35.2242 5.42538 32.9947 4.13416C30.7652 2.84293 27.9165 3.49884 26.4762 5.63506C26.1169 6.25572 25.7739 6.89272 25.4472 7.52972C23.4219 4.18139 18.7832 -0.440944 8.85253 5.64158e-05C7.7977 0.0398284 6.82711 0.586854 6.24683 1.46862C5.66654 2.35039 5.54811 3.45821 5.92886 4.44272C8.41317 11.0434 14.4678 15.6305 21.4945 16.2354C20.6452 18.4077 19.8612 20.6781 19.0772 23.0137L14.6672 20.4657C14.2915 20.2486 13.8449 20.1898 13.4259 20.3024C13.0046 20.415 12.6459 20.6914 12.4295 21.0701C10.1102 25.1044 11.7925 30.7067 15.5165 35.9334C13.8832 42.9731 12.6745 50.1434 11.7599 56.9871C7.81137 57.0429 4.24922 59.371 2.6132 62.9651C2.38024 63.4274 2.38024 63.9728 2.6132 64.4351C2.84577 64.9135 3.29673 65.2486 3.82186 65.3334ZM24.3039 77.3384C22.5944 77.7823 20.9479 78.4409 19.4039 79.2984C19.5019 77.9427 19.5999 76.5054 19.7142 75.0191C21.4879 75.1516 23.1374 75.9793 24.3039 77.3221V77.3384ZM44.0999 40.3107L44.2632 40.1964C48.1828 38.1116 53.0499 39.5399 55.2213 43.4121C57.3928 47.2843 56.0732 52.182 52.2502 54.4391C49.7234 55.8979 46.6103 55.8979 44.0835 54.4391C42.1493 53.3232 40.7563 51.4639 40.2289 49.2941C40.0837 48.662 40.0125 48.0152 40.0165 47.3667C40.0224 44.455 41.5782 41.7666 44.0999 40.3107ZM60.6945 58.2774L56.0232 55.6641C57.6337 54.1342 58.768 52.1718 59.2899 50.0127L63.9612 52.7077L60.6945 58.2774ZM53.0832 93.1001C53.0832 94.0021 52.3519 94.7334 51.4499 94.7334H44.9165C44.0145 94.7334 43.2832 94.0021 43.2832 93.1001V68.6001C43.2832 67.698 44.0145 66.9667 44.9165 66.9667H51.4499C52.3519 66.9667 53.0832 67.698 53.0832 68.6001V93.1001ZM44.9165 63.7001V58.3101C47.0454 58.9631 49.321 58.9631 51.4499 58.3101V63.7001H44.9165ZM69.0245 53.7367L90.2579 65.9867C90.6331 66.205 90.9061 66.5637 91.0164 66.9835C91.1267 67.4034 91.0654 67.8499 90.8459 68.2244L87.5792 73.8757C87.1307 74.6534 86.1386 74.9233 85.3579 74.4801L64.1245 62.2301C63.7465 62.0145 63.4701 61.6571 63.3567 61.237C63.2432 60.8169 63.3021 60.3689 63.5202 59.9924L66.7869 54.3411C66.9296 54.1036 67.1252 53.9024 67.3585 53.7531C67.6027 53.6147 67.8783 53.5416 68.1589 53.5407C68.46 53.5249 68.7596 53.5927 69.0245 53.7367ZM54.7165 29.4001C54.7042 32.1412 54.4362 34.8753 53.9162 37.5667C52.1858 36.5191 50.2059 35.955 48.1832 35.9334C47.0765 35.9393 45.9763 36.1044 44.9165 36.4234V6.82739C50.0779 8.68939 54.7165 18.9467 54.7165 29.4001ZM35.1165 19.3551C33.6323 19.2781 32.144 19.3492 30.6739 19.5674C31.1639 18.3261 31.6539 17.1664 32.1602 16.0557C33.4998 16.7776 34.5454 17.9445 35.1165 19.3551ZM8.9832 3.26672C20.2532 2.74406 23.0462 9.53872 23.5852 11.3191C23.3239 11.8744 23.0789 12.4624 22.8175 13.0341C16.6418 12.9161 11.1613 9.04678 8.9832 3.26672ZM25.3165 15.3371C25.7739 14.2754 26.2475 13.2301 26.7375 12.2174V12.0704C27.5052 10.4371 28.3709 8.80372 29.2039 7.33372C29.5178 6.80087 30.1058 6.49106 30.7229 6.53339C31.2908 6.51755 31.8202 6.82002 32.0949 7.31739C32.3866 7.82275 32.3866 8.44537 32.0949 8.95072C31.3109 10.3227 30.5595 11.7437 29.8899 13.1811C28.6291 15.8438 27.5061 18.5697 26.5252 21.3477C26.516 21.4182 26.516 21.4896 26.5252 21.5601C25.9699 23.1934 25.4472 24.7451 24.8919 26.3457L22.0009 24.7124C23.0135 21.4131 24.1569 18.2771 25.3165 15.3371ZM14.6999 24.2714L40.3595 39.0694C38.0665 41.2211 36.7609 44.2222 36.7499 47.3667C34.1846 46.5173 31.7069 45.4234 29.3509 44.1001C25.1563 41.6742 21.4774 38.4503 18.5219 34.6104V34.5124C15.6799 30.7557 14.2099 27.0154 14.6999 24.2714ZM20.9719 41.9114C18.3643 55.4891 16.6998 69.2311 15.9902 83.0387C15.6799 88.3797 15.5165 92.4957 15.5165 94.7334H12.2499C12.5328 76.0805 14.5173 57.4923 18.1789 39.2001C19.0609 40.1147 19.9919 41.0294 20.9719 41.9114ZM11.3842 60.2701C11.2209 61.6257 11.0739 62.9651 10.9269 64.2717C9.58209 63.5839 8.16995 63.0365 6.71286 62.6384C7.88028 61.243 9.5686 60.387 11.3842 60.2701Z" fill="#99A537"/>
</g>
<defs>
<clipPath id="clip0_352_43">
<rect width="98" height="98" fill="white"/>
</clipPath>
</defs>
</svg>
