<svg width="98" height="98" viewBox="0 0 98 98" fill="none" xmlns="http://www.w3.org/2000/svg">
<g clip-path="url(#clip0_352_21)">
<path d="M44.9736 27.5318C50.1186 30.9782 57.3167 30.7985 63.2947 29.0949C64.2839 31.6358 64.9426 34.2932 65.2547 37.0019L65.3102 40.8337H42.4664C41.5267 40.8338 40.6325 41.2387 40.0124 41.9448C39.3923 42.6509 39.1063 43.5899 39.2275 44.5218L40.7139 55.9551C40.9232 57.5653 42.2834 58.7774 43.907 58.8004L48.6029 95.1567C48.8188 96.7822 50.2036 97.9975 51.8434 98.0004H82.0895C83.7309 97.9971 85.1163 96.7793 85.33 95.1518L90.0258 58.8004C91.6478 58.7777 93.0075 57.5683 93.219 55.96C94.8834 43.1563 94.7053 44.69 94.7053 44.5267C94.8281 43.594 94.5428 42.6537 93.9225 41.9464C93.3022 41.2392 92.4072 40.8336 91.4664 40.8337H68.5998L68.6782 37.0084C68.9756 34.2955 69.6348 31.6346 70.6382 29.0966C76.6129 30.805 83.8143 30.9782 88.9576 27.5318C96.7976 22.2839 97.941 10.1989 97.9916 9.68602C97.9939 9.58696 97.9862 9.48793 97.9687 9.39039C97.9596 9.12488 97.8758 8.86733 97.727 8.64723V8.63416C97.7107 8.60966 97.6845 8.59822 97.6682 8.57536C97.5308 8.3783 97.3437 8.22108 97.1259 8.11966C97.0607 8.07586 96.9918 8.03762 96.9201 8.00532C96.4497 7.84199 85.2908 3.93016 77.4181 9.20092C70.3393 13.9376 68.7206 24.2276 68.4348 26.5633C67.7636 27.4832 67.2655 28.5176 66.9648 29.616C66.6621 28.5138 66.1643 27.4749 65.4948 26.5486C65.209 24.1933 63.5822 13.9327 56.5115 9.20092C48.647 3.93179 37.488 7.84036 37.016 8.00369C36.9445 8.03624 36.8756 8.07447 36.8102 8.11802C36.5928 8.22004 36.4059 8.37714 36.2679 8.57372C36.2516 8.59659 36.2255 8.60802 36.2091 8.63252C36.0582 8.85677 35.9728 9.11865 35.9625 9.38876C35.9427 9.48661 35.9329 9.5862 35.9331 9.68602C35.9854 10.1989 37.1352 22.2839 44.9736 27.5318ZM39.8531 13.036L59.9921 26.5208C48.8985 28.6392 42.5416 24.2341 39.8531 13.036ZM82.0895 94.7337H51.8434L47.2031 58.8004H86.7298L82.0895 94.7337ZM89.9801 55.5337H43.9528L42.4664 44.1004H91.4664L89.9801 55.5337ZM73.9522 26.5159L94.0896 13.0327C91.3978 24.2799 85.0082 28.6164 73.9522 26.5159ZM92.4219 10.2185L72.2911 23.6968C74.9698 12.577 81.2418 8.09679 92.4219 10.2185ZM54.7017 11.9237C58.8373 14.7004 60.7745 20.0904 61.645 23.7066L41.5044 10.2136C45.0128 9.54229 50.5531 9.14702 54.7017 11.9237Z" fill="#99A537"/>
<path d="M50.6334 47.3662H47.3667C46.4647 47.3662 45.7334 48.0975 45.7334 48.9995C45.7334 49.9016 46.4647 50.6329 47.3667 50.6329H50.6334C51.5355 50.6329 52.2667 49.9016 52.2667 48.9995C52.2667 48.0975 51.5355 47.3662 50.6334 47.3662Z" fill="#99A537"/>
<path d="M57.1665 47.3662C56.2645 47.3662 55.5332 48.0975 55.5332 48.9995C55.5332 49.9016 56.2645 50.6329 57.1665 50.6329H68.5999C69.5019 50.6329 70.2332 49.9016 70.2332 48.9995C70.2332 48.0975 69.5019 47.3662 68.5999 47.3662H57.1665Z" fill="#99A537"/>
<path d="M17.9667 98C27.6164 98 35.9333 72.6474 35.9333 60.1998C35.9333 48.6962 29.4163 45.3103 22.8667 44.4071V37.5242C24.9158 35.9948 26.1259 33.5903 26.1333 31.0333V8.16667C26.1333 3.65634 22.477 0 17.9667 0C13.4563 0 9.8 3.65634 9.8 8.16667V31.0333C9.80745 33.5903 11.0175 35.9948 13.0667 37.5242V44.4071C6.517 45.3103 0 48.6962 0 60.1998C0 72.6474 8.31693 98 17.9667 98ZM20.9181 47.4924C20.0606 55.4255 18.7833 59.3357 17.9667 60.2945C17.15 59.3357 15.8727 55.4255 15.0152 47.4924C16.9793 47.3242 18.9541 47.3242 20.9181 47.4924ZM13.0667 8.16667C13.0667 5.46047 15.2605 3.26667 17.9667 3.26667C20.6729 3.26667 22.8667 5.46047 22.8667 8.16667V31.0333C22.8667 33.7395 20.6729 35.9333 17.9667 35.9333C15.2605 35.9333 13.0667 33.7395 13.0667 31.0333V8.16667ZM16.3333 39.0367C17.4111 39.2564 18.5222 39.2564 19.6 39.0367V44.1327C18.4714 44.0918 17.4914 44.0902 16.3333 44.1327V39.0367ZM11.7812 47.9775C13.4799 63.7 16.6061 63.7 17.9667 63.7C19.3272 63.7 22.4534 63.7 24.1521 47.9775C30.1138 49.3544 32.6667 53.1634 32.6667 60.1998C32.6667 72.7029 24.1733 94.7333 17.9667 94.7333C11.76 94.7333 3.26667 72.7029 3.26667 60.1998C3.26667 53.1634 5.81957 49.3544 11.7812 47.9775Z" fill="#99A537"/>
<path d="M17.9668 9.79987C18.8689 9.79987 19.6002 9.0686 19.6002 8.16654C19.6002 7.26447 18.8689 6.5332 17.9668 6.5332C17.0648 6.5332 16.3335 7.26447 16.3335 8.16654C16.3335 9.0686 17.0648 9.79987 17.9668 9.79987Z" fill="#99A537"/>
</g>
<defs>
<clipPath id="clip0_352_21">
<rect width="98" height="98" fill="white"/>
</clipPath>
</defs>
</svg>
