<svg width="98" height="98" viewBox="0 0 98 98" fill="none" xmlns="http://www.w3.org/2000/svg">
<g clip-path="url(#clip0_352_33)">
<path d="M79.3979 94.6221H52.3724V86.7336C52.4323 86.6643 52.4895 86.5922 52.5414 86.5145C55.105 81.3871 58.5796 77.4771 61.5255 74.3493C71.2358 74.2712 77.1249 72.5684 80.9183 68.6101C84.6344 64.8941 86.3234 59.1513 86.1546 50.7058C86.1546 49.6922 85.31 49.0166 84.4654 49.0166C68.9318 49.0166 59.3457 52.8178 59.1339 72.0114C56.9931 74.2777 54.5991 76.9215 52.3724 80.1282V57.4619C52.3724 55.3569 54.7014 51.2343 58.1676 47.3255C73.716 47.2507 81.0869 44.6381 81.0869 23.6799C81.0869 22.6664 80.4113 21.9907 79.3977 21.9907C63.5093 21.9907 55.9021 24.3123 55.7538 45.0181C54.9039 45.9819 53.6244 47.5082 52.4044 49.2734C52.3933 49.2116 52.3845 49.1498 52.372 49.0878V30.436C52.372 28.4011 52.5052 26.6317 52.7892 25.0124C58.2231 24.0327 63.2307 20.8078 66.0538 16.4165C68.7564 12.1938 69.263 6.78871 67.574 1.21469C67.2361 0.370102 66.5605 -0.136575 65.7161 0.0323814C56.9329 1.38365 50.683 4.93076 48.1495 10.5048C46.2263 14.6718 46.7379 19.447 49.5367 23.9648C49.168 25.9073 48.994 28.0201 48.994 30.4362V42.1288C47.638 40.2301 46.2619 38.722 45.6103 38.0404C45.5181 30.4446 44.1517 25.9318 41.0552 22.8353C38.0148 19.7949 33.4543 18.6126 27.0357 18.6126C26.0222 18.6126 25.3465 19.4571 25.3465 20.3017C25.3465 32.276 28.458 40.3202 43.2256 40.5652C45.166 42.647 48.9939 47.4552 48.9939 50.7056V72.4196C47.4034 70.3554 45.8706 68.9281 44.6021 67.7655C44.3701 67.5334 44.1387 67.3021 43.9227 67.0861C43.7639 43.5472 32.6401 38.8819 13.5227 38.8819C12.5091 38.8819 11.8335 39.5575 11.8335 40.5711C11.8335 59.3864 21.8467 69.0095 41.3862 69.2793C41.7263 69.6193 42.0661 69.9591 42.4061 70.2991C44.22 71.9481 46.6777 74.2419 48.9937 78.2789V94.6223H21.9686C20.955 94.6223 20.2794 95.2979 20.2794 96.3114C20.2794 97.325 20.955 98.0006 21.9686 98.0006H79.3979C80.4114 98.0006 81.0871 97.325 81.0871 96.3114C81.0871 95.2977 80.4114 94.6221 79.3979 94.6221ZM82.7761 52.3946C82.6071 58.9821 81.2558 63.3736 78.5533 66.2451C75.7189 69.237 71.2683 70.6137 64.1092 70.9233C65.989 68.1542 68.4515 65.4646 71.7968 64.0493C72.6414 63.7114 72.9791 62.698 72.6414 61.8534C72.3035 61.0088 71.2901 60.6711 70.4455 61.0088C67.2172 62.4211 64.7728 64.5567 62.8232 66.9114C64.3434 55.1843 70.8692 52.5473 82.7761 52.3946ZM51.1899 11.8562C53.0478 7.63349 57.7775 4.762 64.7027 3.57969C65.7163 7.80244 65.2094 11.5185 63.1825 14.7277C60.8539 18.3663 57.0209 20.4988 53.7355 21.4517C54.3781 19.6933 55.2636 18.0259 56.426 16.2479C56.9327 15.4034 56.7639 14.39 55.9193 13.8831C55.0747 13.3765 54.0614 13.5452 53.5545 14.3898C52.4966 16.0044 51.6419 17.5642 50.9697 19.1717C50.1174 16.6383 50.1892 14.1083 51.1899 11.8562ZM28.7249 21.9909C33.2854 22.1599 36.4948 23.1732 38.6906 25.2001C40.4938 27.1421 41.613 29.9963 42.0493 34.2285L38.5217 30.4362C37.846 29.7606 36.8325 29.5916 36.1568 30.2673C35.4812 30.9429 35.3123 31.9564 35.9879 32.6321L39.9617 37.0033C31.0648 35.9065 28.8814 30.9027 28.7249 21.9909ZM15.2122 42.2601C30.4275 42.5739 38.7949 46.0948 40.3176 62.0161C36.777 57.3909 33.138 54.2389 29.4007 52.5635C28.5561 52.2256 27.5428 52.5635 27.2049 53.4081C26.8669 54.2527 27.2049 55.266 28.0494 55.604C31.8491 57.2114 35.5223 60.5907 39.1783 65.8481C23.3839 64.9721 15.7049 57.3687 15.2122 42.2601ZM77.6932 25.3781C77.401 40.7697 72.964 43.5157 61.3001 43.8955C63.3268 41.6709 66.0948 38.8494 68.5878 36.855C69.4324 36.3483 69.4324 35.1658 68.9257 34.4902C68.419 33.6456 67.2365 33.6456 66.5609 34.1523C64.0145 36.1199 61.3098 38.8012 59.2615 41.0007C60.1187 27.3757 65.2599 25.5122 77.6932 25.3781Z" fill="#99A537"/>
</g>
<defs>
<clipPath id="clip0_352_33">
<rect width="98" height="98" fill="white"/>
</clipPath>
</defs>
</svg>
