<svg width="33" height="33" viewBox="0 0 33 33" fill="none" xmlns="http://www.w3.org/2000/svg">
<path d="M30.0996 4.89844H2.90039C1.29789 4.89844 0 6.20439 0 7.79883V25.2012C0 26.8051 1.30743 28.1016 2.90039 28.1016H30.0996C31.6887 28.1016 33 26.8106 33 25.2012V7.79883C33 6.20722 31.7073 4.89844 30.0996 4.89844ZM29.6934 6.83203C29.1008 7.42146 18.903 17.5656 18.5509 17.9158C18.003 18.4637 17.2747 18.7653 16.5 18.7653C15.7253 18.7653 14.997 18.4636 14.4473 17.914C14.2105 17.6785 4.12519 7.64633 3.30657 6.83203H29.6934ZM1.93359 24.8076V8.1936L10.2892 16.5052L1.93359 24.8076ZM3.3078 26.168L11.6601 17.8688L13.0819 19.2831C13.9949 20.1961 15.2088 20.6989 16.5 20.6989C17.7912 20.6989 19.0051 20.1961 19.9163 19.2849L21.3399 17.8688L29.6922 26.168H3.3078ZM31.0664 24.8076L22.7108 16.5052L31.0664 8.1936V24.8076Z" fill="#99A537"/>
</svg>
