<svg width="33" height="33" viewBox="0 0 33 33" fill="none" xmlns="http://www.w3.org/2000/svg">
<path d="M22.0092 21.8035C25.5208 16.2932 25.0794 16.9807 25.1805 16.837C26.459 15.0338 27.1348 12.9114 27.1348 10.6992C27.1348 4.8327 22.3742 0 16.5 0C10.6449 0 5.86523 4.82316 5.86523 10.6992C5.86523 12.91 6.55514 15.0879 7.87553 16.9155L10.9907 21.8036C7.66006 22.3154 1.99805 23.8407 1.99805 27.1992C1.99805 28.4235 2.79714 30.1683 6.604 31.5278C9.26217 32.4772 12.7766 33 16.5 33C23.4625 33 31.002 31.036 31.002 27.1992C31.002 23.8401 25.3466 22.3164 22.0092 21.8035ZM9.49066 15.8519C9.48002 15.8353 9.46894 15.8191 9.45734 15.8031C8.3586 14.2915 7.79883 12.5001 7.79883 10.6992C7.79883 5.86407 11.6922 1.93359 16.5 1.93359C21.2978 1.93359 25.2012 5.86581 25.2012 10.6992C25.2012 12.503 24.652 14.2336 23.6127 15.7054C23.5195 15.8282 24.0054 15.0733 16.5 26.8505L9.49066 15.8519ZM16.5 31.0664C8.89492 31.0664 3.93164 28.831 3.93164 27.1992C3.93164 26.1025 6.48192 24.2992 12.1332 23.5962L15.6847 29.169C15.8622 29.4476 16.1696 29.6162 16.4999 29.6162C16.8303 29.6162 17.1378 29.4475 17.3152 29.169L20.8666 23.5962C26.518 24.2992 29.0684 26.1025 29.0684 27.1992C29.0684 28.8171 24.1497 31.0664 16.5 31.0664Z" fill="#99A537"/>
<path d="M16.5 5.86523C13.8345 5.86523 11.666 8.03376 11.666 10.6992C11.666 13.3647 13.8345 15.5332 16.5 15.5332C19.1655 15.5332 21.334 13.3647 21.334 10.6992C21.334 8.03376 19.1655 5.86523 16.5 5.86523ZM16.5 13.5996C14.9007 13.5996 13.5996 12.2985 13.5996 10.6992C13.5996 9.09994 14.9007 7.79883 16.5 7.79883C18.0993 7.79883 19.4004 9.09994 19.4004 10.6992C19.4004 12.2985 18.0993 13.5996 16.5 13.5996Z" fill="#99A537"/>
</svg>
