<svg width="30" height="26" viewBox="0 0 30 26" fill="none" xmlns="http://www.w3.org/2000/svg">
<path fill-rule="evenodd" clip-rule="evenodd" d="M10.8559 0.724458C4.3865 4.81038 0.811313 9.5773 0.130325 15.1954C-1.0614 23.7078 6.59971 27.7937 10.5154 24.0483C14.4311 20.3029 12.0476 15.5359 9.32366 14.174C6.42946 12.9822 4.72699 13.493 5.06749 11.6203C5.40798 9.91779 9.32366 5.15088 12.8988 2.76742C13.0691 2.59717 13.2393 2.25668 13.0691 1.91619C12.8988 1.74594 12.5584 1.40545 12.2179 0.724458C11.7071 0.383964 11.1964 0.383964 10.8559 0.724458ZM27.7103 0.724458C21.2409 4.81038 17.6658 9.5773 16.9848 15.0252C15.793 23.5375 23.4542 27.6235 27.3698 23.878C31.2855 20.1326 28.9021 15.3657 26.1781 14.0037C23.4542 12.6417 21.7517 13.1525 21.9219 11.45C22.2624 9.74755 26.1781 4.98063 29.7533 2.59717C29.9235 2.42693 30.0938 2.08643 29.9235 1.74594C29.7533 1.57569 29.4128 1.2352 29.0723 0.55421C28.5616 0.383963 28.2211 0.383964 27.7103 0.724458Z" fill="#092210"/>
</svg>
