<svg width="108" height="81" viewBox="0 0 108 81" fill="none" xmlns="http://www.w3.org/2000/svg">
<path d="M40.8335 0.36084H10.8335C5.32016 0.36084 0.833496 4.84751 0.833496 10.3608V40.3608C0.833496 45.8742 5.32016 50.3608 10.8335 50.3608H24.2902L19.2302 76.3942C19.1368 76.8764 19.1512 77.3733 19.2724 77.8494C19.3935 78.3254 19.6183 78.7688 19.9307 79.1478C20.2432 79.5268 20.6355 79.8321 21.0797 80.0418C21.5239 80.2515 22.009 80.3604 22.5002 80.3608H33.3002C36.2002 80.3608 38.7735 78.4642 39.6535 75.7175L49.3535 52.7008C49.4102 52.5675 49.4568 52.4342 49.4968 52.3008C50.3835 49.1042 50.8335 45.8008 50.8335 42.4842V10.3608C50.8335 4.84751 46.3468 0.36084 40.8335 0.36084ZM97.5002 0.36084H67.5002C61.9868 0.36084 57.5002 4.84751 57.5002 10.3608V40.3608C57.5002 45.8742 61.9868 50.3608 67.5002 50.3608H80.9568L75.8968 76.3942C75.8016 76.8766 75.8147 77.3742 75.9351 77.851C76.0555 78.3278 76.2802 78.772 76.593 79.1515C76.9058 79.5309 77.2989 79.8362 77.744 80.0454C78.1891 80.2545 78.675 80.3622 79.1668 80.3608H89.9668C92.8668 80.3608 95.4435 78.4642 96.3168 75.7175L106.023 52.7008C106.077 52.5675 106.123 52.4342 106.163 52.2975C107.05 49.1008 107.5 45.7975 107.5 42.4842V10.3608C107.5 4.84751 103.013 0.36084 97.5002 0.36084Z" fill="#99A537"/>
</svg>
