<svg width="22" height="19" viewBox="0 0 22 19" fill="none" xmlns="http://www.w3.org/2000/svg">
<path fill-rule="evenodd" clip-rule="evenodd" d="M9.75879 18.5312C4.79423 18.5312 0.758789 14.4953 0.758789 9.53125C0.758789 4.56717 4.79423 0.53125 9.75879 0.53125C12.0351 0.53125 14.1716 1.35788 15.8359 2.88374C15.2812 3.21264 14.7464 3.57407 14.2344 3.96612C12.9674 2.94289 11.3874 2.38595 9.75879 2.38853C5.8244 2.38853 2.61607 5.59686 2.61607 9.53125C2.61607 13.4656 5.8244 16.6735 9.75879 16.6735C15.2329 16.6735 18.4829 10.822 16.1285 6.27263C16.5917 5.84179 17.0713 5.42897 17.5663 5.03508C18.3541 6.39523 18.7588 7.93786 18.7588 9.53077C18.7588 14.4953 14.7233 18.5312 9.75879 18.5312Z" fill="#144B24"/>
<path fill-rule="evenodd" clip-rule="evenodd" d="M9.99592 14.1577C9.94837 14.157 9.90211 14.1422 9.86298 14.1152C9.82385 14.0881 9.79362 14.0501 9.7761 14.0059C9.75933 13.9724 8.30723 10.2233 6.06154 8.80476C5.62236 8.53465 5.28472 8.24777 5.41977 7.60601C5.55483 6.98149 5.97677 6.6266 6.73682 6.45802C8.0874 6.17066 9.53999 8.26453 10.0797 9.12564C11.9715 6.37373 15.7536 2.05093 21.2584 1.54423C21.5237 1.5131 21.6224 1.90678 21.3767 2.01693C21.2924 2.05045 13.4236 5.6472 10.232 14.0227C10.2082 14.0641 10.1737 14.0984 10.1323 14.1222C10.0908 14.1459 10.0437 14.1582 9.99592 14.1577Z" fill="#144B24"/>
</svg>
