<svg width="42" height="42" viewBox="0 0 42 42" fill="none" xmlns="http://www.w3.org/2000/svg">
<path d="M22.5776 40.2876C21.0683 40.288 19.5628 40.1367 18.0837 39.8361C9.2674 38.0481 3.88848 32.6691 2.10045 23.8522C1.79978 22.3734 1.64851 20.868 1.64893 19.3589C1.65581 18.485 1.70964 17.6121 1.81018 16.744C1.89641 15.9464 2.27433 15.2089 2.87131 14.6732C3.46829 14.1374 4.24222 13.8411 5.04438 13.8413H7.42777C8.28989 13.8422 9.11645 14.185 9.72606 14.7946C10.3357 15.4042 10.6785 16.2308 10.6794 17.0929V21.1211C10.6785 21.8362 10.4423 22.5311 10.0072 23.0986C9.57217 23.6661 8.96243 24.0746 8.27212 24.2612C9.02619 26.4377 10.2642 28.4148 11.893 30.0435C13.5218 31.6723 15.4989 32.9104 17.6754 33.6644C17.8619 32.9741 18.2704 32.3644 18.8379 31.9293C19.4054 31.4943 20.1003 31.2581 20.8154 31.2572H24.8436C25.7058 31.258 26.5323 31.6009 27.1419 32.2105C27.7515 32.8201 28.0944 33.6467 28.0952 34.5088V36.8954C28.0954 37.6976 27.7992 38.4715 27.2634 39.0685C26.7276 39.6654 25.9901 40.0434 25.1926 40.1296C24.3244 40.2291 23.4515 40.2819 22.5776 40.2876ZM5.04438 15.1314C4.56033 15.1316 4.0934 15.3105 3.73318 15.6338C3.37296 15.9571 3.14481 16.4021 3.09251 16.8833C2.99741 17.7052 2.94616 18.5316 2.93899 19.3589C2.93808 20.7815 3.08006 22.2006 3.36278 23.5948C5.03986 31.8571 10.0795 36.8967 18.3411 38.5738C19.7355 38.8565 21.1548 38.9984 22.5776 38.9976C23.4048 38.9904 24.2309 38.9392 25.0526 38.844C25.534 38.7919 25.9791 38.5638 26.3025 38.2036C26.626 37.8433 26.805 37.3763 26.8052 36.8922V34.5088C26.8047 33.9887 26.5978 33.4901 26.2301 33.1223C25.8623 32.7546 25.3637 32.5478 24.8436 32.5472H20.8154C20.2954 32.5479 19.7969 32.7548 19.4291 33.1225C19.0614 33.4902 18.8545 33.9888 18.8539 34.5088C18.8536 34.6084 18.8302 34.7065 18.7856 34.7956C18.7411 34.8846 18.6765 34.9621 18.597 35.022C18.5174 35.082 18.4251 35.1226 18.3272 35.1409C18.2293 35.1592 18.1285 35.1546 18.0327 35.1274C15.3695 34.3506 12.9449 32.915 10.9832 30.9533C9.02153 28.9916 7.58596 26.5671 6.80918 23.9038C6.78161 23.8078 6.77672 23.7067 6.79489 23.6084C6.81307 23.5102 6.85381 23.4175 6.91391 23.3377C6.97401 23.2579 7.05183 23.1932 7.14123 23.1486C7.23062 23.104 7.32916 23.0808 7.42906 23.0807C7.94852 23.0797 8.44643 22.873 8.81381 22.5057C9.18119 22.1384 9.38812 21.6406 9.38931 21.1211V17.0929C9.3888 16.5728 9.18197 16.0742 8.81422 15.7065C8.44647 15.3387 7.94784 15.1319 7.42777 15.1314H5.04438Z" fill="white"/>
<path d="M24.8703 24.8064H21.0001C20.829 24.8064 20.6649 24.7384 20.544 24.6175C20.423 24.4965 20.355 24.3324 20.355 24.1613V21.5812H17.7749C17.6038 21.5812 17.4398 21.5133 17.3188 21.3923C17.1978 21.2713 17.1299 21.1073 17.1299 20.9362V17.066C17.1299 16.8949 17.1978 16.7309 17.3188 16.6099C17.4398 16.4889 17.6038 16.421 17.7749 16.421H20.355V13.8408C20.355 13.6698 20.423 13.5057 20.544 13.3847C20.6649 13.2638 20.829 13.1958 21.0001 13.1958H24.8703C25.0413 13.1958 25.2054 13.2638 25.3264 13.3847C25.4473 13.5057 25.5153 13.6698 25.5153 13.8408V16.421H28.0954C28.2665 16.421 28.4306 16.4889 28.5515 16.6099C28.6725 16.7309 28.7405 16.8949 28.7405 17.066V20.9362C28.7405 21.1073 28.6725 21.2713 28.5515 21.3923C28.4306 21.5133 28.2665 21.5812 28.0954 21.5812H25.5153V24.1613C25.5153 24.3324 25.4473 24.4965 25.3264 24.6175C25.2054 24.7384 25.0413 24.8064 24.8703 24.8064ZM21.6451 23.5163H24.2252V20.9362C24.2252 20.7651 24.2932 20.601 24.4142 20.4801C24.5351 20.3591 24.6992 20.2912 24.8703 20.2912H27.4504V17.711H24.8703C24.6992 17.711 24.5351 17.6431 24.4142 17.5221C24.2932 17.4011 24.2252 17.2371 24.2252 17.066V14.4859H21.6451V17.066C21.6451 17.2371 21.5771 17.4011 21.4562 17.5221C21.3352 17.6431 21.1711 17.711 21.0001 17.711H18.4199V20.2912H21.0001C21.1711 20.2912 21.3352 20.3591 21.4562 20.4801C21.5771 20.601 21.6451 20.7651 21.6451 20.9362V23.5163Z" fill="white"/>
<path d="M29.2967 38.3521C29.1502 38.3533 29.0077 38.3046 28.8926 38.2141C28.7775 38.1235 28.6966 37.9965 28.6633 37.8539C28.63 37.7113 28.6462 37.5616 28.7092 37.4294C28.7723 37.2972 28.8785 37.1904 29.0103 37.1266C31.5804 35.8542 33.8106 33.9881 35.5163 31.6827C37.2221 29.3772 38.3543 26.6988 38.8192 23.8689C39.2842 21.039 39.0686 18.1391 38.1903 15.409C37.312 12.679 35.7962 10.1974 33.7683 8.16952C31.7404 6.14166 29.2588 4.62585 26.5288 3.74752C23.7988 2.8692 20.8988 2.65361 18.069 3.11859C15.2391 3.58358 12.5606 4.71578 10.2552 6.42149C7.94973 8.12721 6.08363 10.3574 4.81127 12.9275C4.77383 13.0038 4.72174 13.0719 4.65798 13.128C4.59421 13.1841 4.52002 13.2271 4.43964 13.2545C4.35926 13.282 4.27426 13.2933 4.1895 13.2879C4.10474 13.2825 4.02188 13.2604 3.94564 13.223C3.8694 13.1855 3.80129 13.1334 3.74518 13.0697C3.68908 13.0059 3.64608 12.9317 3.61865 12.8513C3.59122 12.771 3.57988 12.686 3.5853 12.6012C3.59072 12.5164 3.61277 12.4336 3.65022 12.3573C5.01409 9.60451 7.0138 7.21598 9.48392 5.38932C11.954 3.56266 14.8236 2.35037 17.8552 1.85273C20.8868 1.35509 23.9933 1.58641 26.9177 2.52754C29.8422 3.46868 32.5006 5.09259 34.6729 7.26493C36.8453 9.43728 38.4692 12.0956 39.4103 15.0201C40.3514 17.9446 40.5827 21.0511 40.0851 24.0827C39.5875 27.1142 38.3752 29.9838 36.5485 32.4539C34.7219 34.924 32.3333 36.9237 29.5805 38.2876C29.4921 38.3307 29.395 38.3528 29.2967 38.3521Z" fill="white"/>
</svg>
