<svg width="42" height="42" viewBox="0 0 42 42" fill="none" xmlns="http://www.w3.org/2000/svg">
<g clip-path="url(#clip0_1_271)">
<path d="M20.9998 37.0626C20.8996 37.0626 20.8009 37.0392 20.7113 36.9945C20.6217 36.9497 20.5438 36.8847 20.4837 36.8045C19.9767 36.1227 8.09912 20.0982 8.09912 13.1964C8.09982 10.6818 8.8354 8.22222 10.2154 6.12013C11.5954 4.01804 13.5597 2.36509 15.8666 1.36454C18.1736 0.363986 20.7227 0.0594577 23.2004 0.488403C25.6781 0.917349 27.9765 2.06107 29.8128 3.77891C29.8828 3.83428 29.9406 3.90359 29.9825 3.98243C30.0243 4.06128 30.0493 4.14796 30.056 4.23698C30.0626 4.32599 30.0506 4.41542 30.0209 4.49959C29.9912 4.58376 29.9443 4.66085 29.8833 4.72597C29.8222 4.7911 29.7483 4.84284 29.6663 4.87793C29.5842 4.91302 29.4957 4.9307 29.4065 4.92983C29.3172 4.92897 29.2291 4.90959 29.1477 4.87292C29.0663 4.83624 28.9934 4.78308 28.9337 4.71679C27.2808 3.1698 25.2117 2.13978 22.981 1.75346C20.7504 1.36715 18.4554 1.64139 16.3786 2.54245C14.3017 3.4435 12.5336 4.93207 11.2918 6.82496C10.05 8.71785 9.38867 10.9325 9.38919 13.1964C9.38919 18.8972 18.6828 32.1171 20.9998 35.321C23.3161 32.1152 32.6103 18.8939 32.6103 13.1964C32.6198 10.6063 31.754 8.08897 30.1534 6.05265C30.1013 5.98586 30.0628 5.90945 30.0402 5.82779C30.0176 5.74613 30.0113 5.66082 30.0216 5.57672C30.032 5.49263 30.0588 5.4114 30.1006 5.33767C30.1423 5.26394 30.1982 5.19916 30.265 5.14702C30.3318 5.09488 30.4082 5.05641 30.4899 5.03381C30.5715 5.0112 30.6568 5.00489 30.7409 5.01526C30.9108 5.03618 31.0653 5.12372 31.1706 5.25861C32.9486 7.52155 33.9105 10.3185 33.9004 13.1964C33.9004 20.0982 22.0228 36.1234 21.5158 36.8045C21.4557 36.8847 21.3778 36.9497 21.2882 36.9945C21.1987 37.0392 21.0999 37.0626 20.9998 37.0626Z" fill="white"/>
<path d="M20.9998 41.5772C13.1827 41.5772 4.87402 39.7711 4.87402 36.4169C4.87402 33.6323 10.5045 32.0597 15.7751 31.5147C15.9453 31.497 16.1155 31.5478 16.2484 31.6557C16.3812 31.7636 16.4657 31.9198 16.4833 32.09C16.5009 32.2602 16.4502 32.4305 16.3423 32.5633C16.2344 32.6961 16.0782 32.7807 15.9079 32.7983C9.57824 33.4498 6.16409 35.1494 6.16409 36.4169C6.16409 38.0295 11.8081 40.2871 20.9998 40.2871C30.1915 40.2871 35.8356 38.0295 35.8356 36.4169C35.8356 35.1501 32.4214 33.4498 26.0956 32.8002C25.9251 32.7831 25.7684 32.699 25.66 32.5663C25.5515 32.4337 25.5002 32.2634 25.5173 32.0929C25.5344 31.9225 25.6185 31.7658 25.7512 31.6573C25.8838 31.5489 26.0541 31.4976 26.2246 31.5147C31.4932 32.0578 37.1256 33.6304 37.1256 36.4169C37.1256 39.7711 28.817 41.5772 20.9998 41.5772Z" fill="white"/>
<path d="M20.999 19.6462C19.9926 19.6461 19.0002 19.4104 18.1012 18.9581C17.2022 18.5058 16.4215 17.8495 15.8215 17.0415C15.2215 16.2335 14.8189 15.2964 14.6459 14.305C14.4728 13.3136 14.5342 12.2955 14.825 11.332C15.1158 10.3686 15.628 9.48655 16.3206 8.75645C17.0133 8.02636 17.8671 7.46846 18.814 7.12738C19.7608 6.78629 20.7743 6.67148 21.7734 6.79212C22.7725 6.91276 23.7295 7.26551 24.5679 7.82216C24.6407 7.86805 24.7035 7.92802 24.7528 7.99855C24.802 8.06908 24.8366 8.14875 24.8546 8.23286C24.8726 8.31697 24.8736 8.40384 24.8575 8.48834C24.8415 8.57283 24.8086 8.65327 24.761 8.72489C24.7134 8.79652 24.6519 8.8579 24.5802 8.90542C24.5085 8.95295 24.428 8.98565 24.3435 9.0016C24.259 9.01756 24.1721 9.01645 24.0881 8.99834C24.004 8.98023 23.9244 8.94548 23.8539 8.89614C22.7874 8.18781 21.4957 7.90122 20.2297 8.09207C18.9637 8.28292 17.8139 8.93757 17.0036 9.92882C16.1933 10.9201 15.7805 12.1771 15.8453 13.4558C15.9101 14.7344 16.4479 15.9433 17.3542 16.8476C18.2605 17.7519 19.4706 18.287 20.7494 18.3489C22.0282 18.4108 23.2843 17.9951 24.2737 17.1826C25.2632 16.3701 25.9152 15.2188 26.1032 13.9524C26.2912 12.686 26.0017 11.3949 25.291 10.33C25.1994 10.1879 25.1674 10.0154 25.2017 9.84979C25.236 9.68419 25.334 9.53869 25.4746 9.44464C25.6152 9.35059 25.787 9.31551 25.9532 9.34696C26.1194 9.37841 26.2666 9.47386 26.3631 9.61277C27.0119 10.584 27.3849 11.7133 27.4421 12.88C27.4993 14.0466 27.2387 15.207 26.6879 16.2371C26.1372 17.2672 25.3171 18.1284 24.3152 18.7288C23.3132 19.3293 22.1671 19.6463 20.999 19.6462Z" fill="white"/>
</g>
<defs>
<clipPath id="clip0_1_271">
<rect width="41.2821" height="41.2821" fill="white" transform="translate(0.358887 0.29541)"/>
</clipPath>
</defs>
</svg>
