<svg width="42" height="42" viewBox="0 0 42 42" fill="none" xmlns="http://www.w3.org/2000/svg">
<path d="M35.0954 32.5999H6.9034C5.98704 32.5989 5.10852 32.2344 4.46059 31.5864C3.81265 30.9384 3.44823 30.0598 3.44727 29.1435V11.7323C3.44823 10.816 3.81265 9.93743 4.46059 9.28943C5.10852 8.64144 5.98704 8.27693 6.9034 8.27588H35.0954C36.0118 8.27693 36.8903 8.64144 37.5382 9.28943C38.1862 9.93743 38.5506 10.816 38.5515 11.7323V29.1435C38.5506 30.0598 38.1862 30.9384 37.5382 31.5864C36.8903 32.2344 36.0118 32.5989 35.0954 32.5999ZM6.9034 9.5969C6.33726 9.59752 5.7945 9.82271 5.39421 10.2231C4.99392 10.6234 4.76882 11.1662 4.76829 11.7323V29.1435C4.76882 29.7096 4.99392 30.2524 5.39421 30.6528C5.7945 31.0531 6.33726 31.2783 6.9034 31.2789H35.0954C35.6615 31.2783 36.2043 31.0531 36.6046 30.6528C37.0049 30.2524 37.23 29.7096 37.2305 29.1435V11.7323C37.23 11.1662 37.0049 10.6234 36.6046 10.2231C36.2043 9.82271 35.6615 9.59752 35.0954 9.5969H6.9034Z" fill="white"/>
<path d="M21.0021 24.3243C20.8411 24.3244 20.6856 24.2657 20.5648 24.1592L4.64648 10.1075L5.52067 9.1167L21.0021 22.784L36.4842 9.11835L37.3584 10.1091L21.44 24.1609C21.319 24.2671 21.1632 24.3252 21.0021 24.3243Z" fill="white"/>
<path d="M4.28516 30.5249L14.9789 18.3405L15.9724 19.2123L5.27857 31.3968L4.28516 30.5249Z" fill="white"/>
<path d="M26.062 19.2007L27.0554 18.3288L37.7494 30.5135L36.756 31.3854L26.062 19.2007Z" fill="white"/>
</svg>
