<svg width="21" height="19" viewBox="0 0 21 19" fill="none" xmlns="http://www.w3.org/2000/svg">
<path fill-rule="evenodd" clip-rule="evenodd" d="M9.00024 18.9423C4.03568 18.9423 0.000244141 14.9063 0.000244141 9.94226C0.000244141 4.97818 4.03568 0.942261 9.00024 0.942261C11.2766 0.942261 13.4131 1.76889 15.0774 3.29475C14.5226 3.62366 13.9879 3.98508 13.4758 4.37713C12.2088 3.3539 10.6288 2.79696 9.00024 2.79954C5.06586 2.79954 1.85752 6.00787 1.85752 9.94226C1.85752 13.8766 5.06586 17.0845 9.00024 17.0845C14.4744 17.0845 17.7244 11.233 15.37 6.68364C15.8331 6.2528 16.3127 5.83998 16.8077 5.44609C17.5956 6.80624 18.0002 8.34887 18.0002 9.94178C18.0002 14.9063 13.9648 18.9423 9.00024 18.9423Z" fill="#144B24"/>
<path fill-rule="evenodd" clip-rule="evenodd" d="M9.23738 14.5687C9.18983 14.568 9.14357 14.5532 9.10444 14.5262C9.06531 14.4992 9.03507 14.4611 9.01755 14.4169C9.00079 14.3834 7.54868 10.6344 5.30299 9.21578C4.86382 8.94566 4.52617 8.65878 4.66123 8.01702C4.79629 7.3925 5.21822 7.03761 5.97828 6.86903C7.32885 6.58168 8.78144 8.67554 9.32119 9.53666C11.213 6.78474 14.995 2.46194 20.4998 1.95524C20.7652 1.92411 20.8638 2.31779 20.6181 2.42794C20.5338 2.46146 12.6651 6.05821 9.47349 14.4337C9.44964 14.4751 9.4152 14.5094 9.37371 14.5332C9.33222 14.5569 9.28517 14.5692 9.23738 14.5687Z" fill="#144B24"/>
</svg>
