<svg width="159" height="28" viewBox="0 0 159 28" fill="none" xmlns="http://www.w3.org/2000/svg">
<path d="M19.34 10.584C19.1 9.888 18.776 9.276 18.368 8.748C17.984 8.196 17.516 7.728 16.964 7.344C16.436 6.96 15.836 6.672 15.164 6.48C14.516 6.264 13.796 6.156 13.004 6.156C11.54 6.156 10.232 6.504 9.08 7.2C7.952 7.896 7.064 8.856 6.416 10.08C5.792 11.304 5.48 12.744 5.48 14.4C5.48 16.104 5.792 17.58 6.416 18.828C7.064 20.076 7.976 21.048 9.152 21.744C10.352 22.44 11.756 22.788 13.364 22.788C14.3 22.788 15.164 22.608 15.956 22.248C16.748 21.888 17.444 21.42 18.044 20.844C18.668 20.268 19.16 19.62 19.52 18.9C19.904 18.18 20.168 17.472 20.312 16.776H12.104V12.78H25.424V27H20.96V20.628L21.32 20.448C21.272 20.856 21.128 21.348 20.888 21.924C20.648 22.5 20.3 23.1 19.844 23.724C19.388 24.324 18.812 24.9 18.116 25.452C17.444 25.98 16.652 26.412 15.74 26.748C14.828 27.084 13.796 27.252 12.644 27.252C10.964 27.252 9.38 26.94 7.892 26.316C6.404 25.692 5.084 24.816 3.932 23.688C2.804 22.536 1.904 21.18 1.232 19.62C0.584 18.036 0.26 16.296 0.26 14.4C0.26 12.504 0.584 10.776 1.232 9.216C1.904 7.656 2.816 6.312 3.968 5.184C5.144 4.032 6.5 3.156 8.036 2.556C9.596 1.932 11.276 1.62 13.076 1.62C15.764 1.62 18.104 2.232 20.096 3.456C22.088 4.68 23.504 6.456 24.344 8.784L19.34 10.584ZM37.5583 27.252C35.8063 27.252 34.2583 26.82 32.9143 25.956C31.5703 25.068 30.5143 23.856 29.7463 22.32C28.9783 20.76 28.5942 18.996 28.5942 17.028C28.5942 15.036 28.9783 13.272 29.7463 11.736C30.5143 10.2 31.5703 9 32.9143 8.136C34.2583 7.248 35.8063 6.804 37.5583 6.804C39.1423 6.804 40.5223 7.212 41.6983 8.028C42.8743 8.844 43.7263 9.972 44.2543 11.412V7.056H49.3663V27H46.9183C46.1023 27 45.4543 26.76 44.9743 26.28C44.4943 25.776 44.2543 25.116 44.2543 24.3V22.608C43.7263 24.072 42.8743 25.212 41.6983 26.028C40.5223 26.844 39.1423 27.252 37.5583 27.252ZM38.9983 22.824C39.9343 22.824 40.7983 22.596 41.5903 22.14C42.3823 21.684 43.0183 21.024 43.4983 20.16C44.0023 19.296 44.2543 18.252 44.2543 17.028C44.2543 15.78 44.0023 14.724 43.4983 13.86C43.0183 12.996 42.3823 12.348 41.5903 11.916C40.7983 11.46 39.9343 11.232 38.9983 11.232C38.1103 11.232 37.2583 11.46 36.4423 11.916C35.6503 12.348 35.0023 12.996 34.4983 13.86C34.0183 14.724 33.7783 15.78 33.7783 17.028C33.7783 18.252 34.0183 19.296 34.4983 20.16C35.0023 21.024 35.6503 21.684 36.4423 22.14C37.2583 22.596 38.1103 22.824 38.9983 22.824ZM54.2887 27V7.056H59.3647V27H54.2887ZM58.2847 17.676L59.3647 11.628C59.8207 10.14 60.5887 8.964 61.6687 8.1C62.7727 7.236 64.0807 6.804 65.5927 6.804V12.132C65.3767 12.06 65.1607 12.024 64.9447 12.024C64.7527 12 64.5487 11.988 64.3327 11.988C63.3967 11.988 62.5447 12.204 61.7767 12.636C61.0327 13.068 60.4447 13.704 60.0127 14.544C59.5807 15.384 59.3647 16.428 59.3647 17.676H58.2847ZM76.5465 27.252C74.7945 27.252 73.2465 26.82 71.9025 25.956C70.5585 25.068 69.5025 23.856 68.7345 22.32C67.9665 20.76 67.5825 18.996 67.5825 17.028C67.5825 15.036 67.9665 13.272 68.7345 11.736C69.5025 10.2 70.5585 9 71.9025 8.136C73.2465 7.248 74.7945 6.804 76.5465 6.804C78.1305 6.804 79.5105 7.212 80.6865 8.028C81.8625 8.844 82.7145 9.972 83.2425 11.412V0.36H88.3545V27H85.9065C85.0905 27 84.4425 26.76 83.9625 26.28C83.4825 25.776 83.2425 25.116 83.2425 24.3V22.608C82.7145 24.072 81.8625 25.212 80.6865 26.028C79.5105 26.844 78.1305 27.252 76.5465 27.252ZM77.9865 22.824C78.9225 22.824 79.7865 22.596 80.5785 22.14C81.3705 21.684 82.0065 21.024 82.4865 20.16C82.9905 19.296 83.2425 18.252 83.2425 17.028C83.2425 15.78 82.9905 14.724 82.4865 13.86C82.0065 12.996 81.3705 12.348 80.5785 11.916C79.7865 11.46 78.9225 11.232 77.9865 11.232C77.0985 11.232 76.2465 11.46 75.4305 11.916C74.6385 12.348 73.9905 12.996 73.4865 13.86C73.0065 14.724 72.7665 15.78 72.7665 17.028C72.7665 18.252 73.0065 19.296 73.4865 20.16C73.9905 21.024 74.6385 21.684 75.4305 22.14C76.2465 22.596 77.0985 22.824 77.9865 22.824ZM102.745 27.252C101.209 27.252 99.781 27.012 98.461 26.532C97.165 26.052 96.025 25.368 95.041 24.48C94.081 23.592 93.325 22.536 92.773 21.312C92.245 20.064 91.981 18.684 91.981 17.172C91.981 15.612 92.257 14.196 92.809 12.924C93.361 11.652 94.129 10.56 95.113 9.648C96.097 8.736 97.225 8.04 98.497 7.56C99.769 7.056 101.113 6.804 102.529 6.804C103.729 6.804 104.857 6.972 105.913 7.308C106.969 7.62 107.893 8.076 108.685 8.676C109.501 9.252 110.125 9.948 110.557 10.764C111.013 11.58 111.241 12.468 111.241 13.428C111.241 14.676 110.881 15.72 110.161 16.56C109.441 17.4 108.481 18.072 107.281 18.576C106.105 19.056 104.809 19.392 103.393 19.584C101.977 19.752 100.585 19.812 99.217 19.764C99.001 19.74 98.749 19.728 98.461 19.728C98.173 19.728 97.909 19.728 97.669 19.728C97.453 19.704 97.309 19.692 97.237 19.692C97.381 20.34 97.717 20.94 98.245 21.492C98.797 22.044 99.469 22.476 100.261 22.788C101.053 23.076 101.905 23.22 102.817 23.22C103.609 23.22 104.377 23.088 105.121 22.824C105.865 22.56 106.549 22.2 107.173 21.744C107.821 21.264 108.349 20.748 108.757 20.196L112.249 22.824C111.481 23.832 110.593 24.672 109.585 25.344C108.577 25.992 107.497 26.472 106.345 26.784C105.193 27.096 103.993 27.252 102.745 27.252ZM99.397 16.128C100.189 16.128 100.981 16.092 101.773 16.02C102.589 15.948 103.333 15.816 104.005 15.624C104.701 15.408 105.253 15.12 105.661 14.76C106.093 14.376 106.309 13.896 106.309 13.32C106.309 12.84 106.141 12.42 105.805 12.06C105.493 11.676 105.061 11.376 104.509 11.16C103.981 10.92 103.369 10.8 102.673 10.8C101.569 10.8 100.585 11.052 99.721 11.556C98.881 12.06 98.221 12.72 97.741 13.536C97.261 14.328 96.997 15.156 96.949 16.02C97.237 16.044 97.597 16.068 98.029 16.092C98.461 16.116 98.917 16.128 99.397 16.128ZM115.566 27V7.056H120.642V11.268C120.954 10.38 121.434 9.6 122.082 8.928C122.73 8.256 123.486 7.74 124.35 7.38C125.214 6.996 126.102 6.804 127.014 6.804C128.526 6.804 129.846 7.14 130.974 7.812C132.126 8.484 133.014 9.456 133.638 10.728C134.262 11.976 134.574 13.488 134.574 15.264V27H129.534V16.2C129.534 14.616 129.126 13.38 128.31 12.492C127.494 11.58 126.426 11.124 125.106 11.124C124.218 11.124 123.438 11.364 122.766 11.844C122.094 12.3 121.566 12.936 121.182 13.752C120.822 14.568 120.642 15.504 120.642 16.56V27H115.566ZM148.223 27.252C146.303 27.252 144.575 26.832 143.039 25.992C141.527 25.152 140.315 23.964 139.403 22.428C138.515 20.892 138.071 19.08 138.071 16.992C138.071 14.904 138.527 13.104 139.439 11.592C140.351 10.056 141.587 8.88 143.147 8.064C144.707 7.224 146.447 6.804 148.367 6.804C150.287 6.804 152.015 7.224 153.551 8.064C155.111 8.88 156.347 10.056 157.259 11.592C158.171 13.104 158.627 14.904 158.627 16.992C158.627 19.08 158.159 20.892 157.223 22.428C156.311 23.964 155.063 25.152 153.479 25.992C151.919 26.832 150.167 27.252 148.223 27.252ZM148.223 22.824C149.111 22.824 149.951 22.62 150.743 22.212C151.535 21.78 152.183 21.132 152.687 20.268C153.191 19.38 153.443 18.288 153.443 16.992C153.443 15.696 153.191 14.616 152.687 13.752C152.207 12.888 151.571 12.252 150.779 11.844C150.011 11.412 149.183 11.196 148.295 11.196C147.407 11.196 146.579 11.412 145.811 11.844C145.067 12.252 144.455 12.888 143.975 13.752C143.495 14.616 143.255 15.696 143.255 16.992C143.255 18.288 143.483 19.38 143.939 20.268C144.395 21.132 144.995 21.78 145.739 22.212C146.507 22.62 147.335 22.824 148.223 22.824Z" fill="#1E2023"/>
</svg>
