<svg width="36" height="51" viewBox="0 0 36 51" fill="none" xmlns="http://www.w3.org/2000/svg">
<path d="M34.202 41.5804L33.8418 41.426C34.6518 40.2701 35.0898 38.8978 35.0898 37.458C35.0898 33.6349 31.9794 30.5244 28.1562 30.5244H7.84375C4.01064 30.5244 0.910156 33.6275 0.910156 37.458C0.910156 41.2811 4.0206 44.3916 7.84375 44.3916H22.9073L24.4031 49.6735C24.4839 49.9588 24.6493 50.2128 24.8775 50.402C25.1057 50.5912 25.3859 50.7068 25.6812 50.7334C25.9765 50.7599 26.2728 50.6963 26.5312 50.5509C26.7895 50.4054 26.9976 50.1851 27.128 49.9188L29.1852 45.7188L34.0273 44.3353C34.3182 44.2522 34.5762 44.0811 34.7659 43.8455C34.9556 43.6099 35.0677 43.3214 35.0868 43.0195C35.106 42.7176 35.0313 42.4172 34.8729 42.1595C34.7144 41.9018 34.4801 41.6995 34.202 41.5804ZM7.84375 41.4619C5.63603 41.4619 3.83984 39.6657 3.83984 37.458C3.83984 35.2402 5.63574 33.4541 7.84375 33.4541H28.1562C30.364 33.4541 32.1601 35.2503 32.1601 37.458C32.1601 38.4996 31.7637 39.4805 31.0463 40.2279L23.2645 36.8929C22.1337 36.4082 20.943 37.4546 21.2781 38.6384L22.0777 41.4619H7.84375ZM27.7539 43.0808C27.5567 43.1371 27.3735 43.2342 27.2162 43.3659C27.0589 43.4975 26.931 43.6607 26.8407 43.8449L26.1796 45.1947L24.9339 40.7958L29.261 42.6502L27.7539 43.0808ZM8.88545 22.5166H12.631C12.5769 25.5333 15.0146 27.9853 18 27.9853C20.9812 27.9853 23.4233 25.537 23.3691 22.5166H27.1145C29.3583 22.5166 31.1836 20.6913 31.1836 18.4476C31.1836 17.1736 30.5752 15.9567 29.556 15.1924C28.6184 14.4892 28.0586 13.3696 28.0586 12.1976V10.7978C28.0586 5.25156 23.5464 0.739258 18 0.739258C12.4536 0.739258 7.9414 5.25156 7.9414 10.7978V12.1976C7.9414 13.3695 7.38164 14.4891 6.44404 15.1924C5.4249 15.9567 4.81641 17.1736 4.81641 18.4476C4.81641 20.6913 6.6418 22.5166 8.88545 22.5166ZM18 25.0557C16.6453 25.0557 15.5068 23.9343 15.5626 22.5166H20.4376C20.4934 23.9328 19.356 25.0557 18 25.0557ZM8.20185 17.5361C9.87324 16.2826 10.8711 14.2869 10.8711 12.1976V10.7978C10.8711 6.86699 14.0691 3.66894 18 3.66894C21.9309 3.66894 25.1289 6.86699 25.1289 10.7978V12.1976C25.1289 14.2868 26.1268 16.2825 27.7981 17.5361C27.9393 17.6425 28.0539 17.7802 28.133 17.9383C28.2121 18.0965 28.2535 18.2708 28.2539 18.4476C28.2539 19.0758 27.7429 19.5869 27.1145 19.5869H8.88545C8.25723 19.5869 7.74609 19.0759 7.74609 18.4476C7.74609 18.0909 7.9165 17.7501 8.20185 17.5361Z" fill="#21353E"/>
</svg>
