<svg width="51" height="51" viewBox="0 0 51 51" fill="none" xmlns="http://www.w3.org/2000/svg">
<g clip-path="url(#clip0_48_1587)">
<path d="M14.5603 7.0585L14.3402 9.44813C14.2991 9.89259 14.4903 10.3146 14.8514 10.5771C15.2125 10.8395 15.673 10.8909 16.0833 10.7146L18.2879 9.76668L20.4925 10.7147C20.6537 10.7839 20.8226 10.818 20.9901 10.818C21.2492 10.818 21.5051 10.7365 21.7244 10.5771C22.0855 10.3146 22.2767 9.89259 22.2356 9.44813L22.0155 7.0585L23.5983 5.25467C23.8927 4.91909 23.986 4.46517 23.8481 4.04063C23.7101 3.616 23.3678 3.30392 22.9324 3.20551L20.5917 2.67638L19.3653 0.613773C19.1371 0.230078 18.7343 0.000976562 18.2879 0.000976562C17.8414 0.000976562 17.4387 0.230078 17.2105 0.613773L15.9841 2.67648L13.6434 3.20551C13.2079 3.30382 12.8657 3.6161 12.7277 4.04063C12.5897 4.46517 12.6831 4.91899 12.9776 5.25467L14.5603 7.0585ZM16.4145 4.11106C16.7486 4.03555 17.0406 3.82339 17.2156 3.52904L18.288 1.72551L19.3604 3.52914C19.5354 3.82349 19.8274 4.03555 20.1614 4.11106L22.2081 4.57374L20.8241 6.15086C20.5981 6.40845 20.4867 6.7517 20.5181 7.09257L20.7107 9.18207L18.7829 8.35322C18.6256 8.28559 18.4568 8.25182 18.288 8.25182C18.1192 8.25182 17.9502 8.28559 17.7928 8.35332L15.8651 9.18207L16.0576 7.09257C16.089 6.7515 15.9776 6.40825 15.7516 6.15096L14.3677 4.57354L16.4145 4.11106Z" fill="#99A537"/>
<path d="M3.24966 10.7224L5.00189 9.9692L6.75412 10.7224C6.90353 10.7868 7.05992 10.8184 7.21531 10.8184C7.45537 10.8184 7.69264 10.7428 7.89594 10.595C8.23073 10.3519 8.40793 9.96064 8.36988 9.54855L8.19477 7.6493L9.45284 6.21562C9.72567 5.90454 9.81223 5.48389 9.68443 5.09034C9.55653 4.69688 9.23927 4.40751 8.83566 4.31627L6.97525 3.89582L6.00048 2.25645C5.78901 1.90084 5.41567 1.68848 5.00189 1.68848C4.58811 1.68848 4.21488 1.90084 4.00331 2.25645L3.02863 3.89592L1.16813 4.31637C0.764509 4.40761 0.447253 4.69698 0.319355 5.09044C0.191456 5.48399 0.278017 5.90464 0.551046 6.21582L1.80901 7.6493L1.634 9.54855C1.59605 9.96064 1.77325 10.3518 2.10804 10.595C2.44273 10.8383 2.86965 10.8858 3.24966 10.7224ZM2.0428 5.65044L3.49739 5.32173C3.80688 5.2517 4.07742 5.05517 4.23978 4.78234L5.00179 3.50057L5.7641 4.78254C5.92637 5.05527 6.19691 5.2518 6.50649 5.32173L7.96099 5.65044L6.97734 6.77134C6.76806 7.00991 6.66477 7.32796 6.69376 7.64422L6.83062 9.129L5.46059 8.54001C5.16904 8.4147 4.83455 8.4146 4.54299 8.54011L3.17306 9.1291L3.30993 7.64432C3.33901 7.32836 3.23582 7.01031 3.02634 6.77124L2.0428 5.65044Z" fill="#99A537"/>
<path d="M27.7274 7.6493L27.5524 9.54855C27.5144 9.96064 27.6916 10.3518 28.0264 10.595C28.3612 10.8383 28.788 10.8858 29.1681 10.7223L30.9203 9.9691L32.6726 10.7224C32.8219 10.7867 32.9784 10.8183 33.1338 10.8183C33.3738 10.8183 33.6111 10.7427 33.8144 10.5949C34.1492 10.3518 34.3264 9.96054 34.2883 9.54845L34.1133 7.6493L35.3714 6.21562C35.6442 5.90454 35.7308 5.48389 35.603 5.09034C35.4751 4.69688 35.1578 4.40751 34.7542 4.31627L32.8937 3.89582L31.9188 2.25645C31.7074 1.90084 31.334 1.68848 30.9202 1.68848C30.5065 1.68848 30.1332 1.90084 29.9218 2.25645L28.9471 3.89592L27.0866 4.31637C26.683 4.40761 26.3657 4.69698 26.2378 5.09044C26.1099 5.48399 26.1965 5.90464 26.4695 6.21572L27.7274 7.6493ZM29.4158 5.32173C29.7253 5.2517 29.9959 5.05517 30.1582 4.78234L30.9202 3.50057L31.6825 4.78254C31.8447 5.05527 32.1154 5.2518 32.4248 5.32173L33.8793 5.65044L32.8957 6.77134C32.6864 7.00991 32.5831 7.32796 32.6121 7.64422L32.749 9.1291L31.3789 8.54001C31.0874 8.4147 30.7529 8.4146 30.4613 8.54011L29.0914 9.1291L29.2283 7.64432C29.2575 7.32826 29.1541 7.01011 28.9446 6.77134L27.9611 5.65044L29.4158 5.32173Z" fill="#99A537"/>
<path d="M50.7386 39.9293C50.7386 39.1138 50.3898 38.3783 49.8335 37.8643C50.3898 37.3502 50.7386 36.6147 50.7386 35.7993C50.7386 34.2487 49.4771 32.9872 47.9277 32.9872L40.4223 32.9757C39.8522 32.9748 39.3884 32.5103 39.3884 31.9402V26.6074C39.3884 25.2428 38.6991 23.9936 37.5446 23.2659C36.991 22.9169 36.3223 22.8497 35.7096 23.0816C35.0962 23.3137 34.6388 23.8077 34.4545 24.4367L31.4719 34.6211C31.0898 35.926 29.8734 36.8372 28.5137 36.8372H27.2208V36.4108C27.2208 35.547 26.518 34.8442 25.6542 34.8442H20.7132C19.8494 34.8442 19.1466 35.547 19.1466 36.4108V41.2081H6.38437C5.72605 41.2081 5.11156 40.9141 4.69858 40.4013C4.2856 39.8886 4.12921 39.2256 4.26946 38.5823C4.87847 35.7899 6.43975 33.2645 8.66562 31.4717C10.8916 29.6789 13.6915 28.6915 16.5497 28.6915H17.9721C22.1113 28.6915 26.0482 30.4808 28.7733 33.6006C29.0447 33.9115 29.5166 33.9431 29.8274 33.6718C30.1382 33.4004 30.17 32.9284 29.8986 32.6177C27.7594 30.1688 24.9438 28.4633 21.8525 27.6814C24.2968 26.3155 25.9541 23.703 25.9541 20.7095C25.9541 16.3082 22.3735 12.7275 17.9722 12.7275C16.1441 12.7275 14.3575 13.3614 12.9414 14.5122C12.6211 14.7724 12.5725 15.243 12.8328 15.5632C13.0931 15.8833 13.5636 15.932 13.8837 15.6718C15.0342 14.7367 16.4863 14.2217 17.9722 14.2217C21.5496 14.2217 24.46 17.1322 24.46 20.7095C24.46 24.2869 21.5496 27.1974 17.9722 27.1974C14.3948 27.1974 11.4844 24.2869 11.4844 20.7095C11.4844 19.7266 11.6983 18.7828 12.1203 17.9043C12.299 17.5325 12.1423 17.0861 11.7703 16.9074C11.3984 16.7288 10.9522 16.8855 10.7735 17.2575C10.2537 18.3393 9.99013 19.5008 9.99013 20.7095C9.99013 23.5626 11.4957 26.0694 13.7532 27.481C11.5605 27.9278 9.48471 28.8935 7.7284 30.308C5.23787 32.314 3.49092 35.1394 2.80959 38.2639C2.57252 39.3511 2.83678 40.4717 3.53484 41.3383C4.23281 42.205 5.27143 42.7021 6.38427 42.7021H19.1465V49.0082C19.1465 49.872 19.8493 50.5747 20.7131 50.5747H25.6541C26.5179 50.5747 27.2207 49.872 27.2207 49.0082V48.9846H29.6288C31.2542 48.9846 32.7888 49.2935 34.19 49.9028C35.8174 50.6104 37.5423 50.9691 39.3137 50.9691L47.9265 51.0013C49.4771 51.0013 50.7385 49.7398 50.7385 48.1893C50.7385 47.3739 50.3897 46.6385 49.8334 46.1244C50.3897 45.6103 50.7385 44.8748 50.7385 44.0594C50.7385 43.244 50.3897 42.5084 49.8334 41.9944C50.3897 41.4801 50.7386 40.7446 50.7386 39.9293ZM25.7265 49.0083C25.7265 49.0481 25.694 49.0807 25.6541 49.0807H20.7131C20.6731 49.0807 20.6407 49.0482 20.6407 49.0083V36.4107C20.6407 36.3708 20.6731 36.3382 20.7131 36.3382H25.6541C25.694 36.3382 25.7265 36.3707 25.7265 36.4107V49.0083ZM45.4741 38.6112H47.9266C48.6533 38.6112 49.2445 39.2025 49.2445 39.9292C49.2445 40.6558 48.6532 41.247 47.9266 41.247H45.4741C45.0615 41.247 44.727 41.5814 44.727 41.9941C44.727 42.4067 45.0615 42.7411 45.4741 42.7411H47.9266C48.6533 42.7411 49.2445 43.3324 49.2445 44.0591C49.2445 44.7857 48.6532 45.377 47.9266 45.377H45.4741C45.0615 45.377 44.727 45.7114 44.727 46.1241C44.727 46.5368 45.0615 46.8711 45.4741 46.8711H47.9266C48.6533 46.8711 49.2445 47.4624 49.2445 48.189C49.2445 48.9157 48.6532 49.5069 47.9292 49.5069L39.3164 49.4747C37.7484 49.4747 36.224 49.1576 34.7857 48.5323C33.1954 47.8408 31.4604 47.4902 29.6288 47.4902H27.2207V38.331H28.5136C30.5323 38.331 32.3383 36.978 32.9057 35.0408L35.8883 24.8564C35.9396 24.6811 36.0672 24.5434 36.2383 24.4787C36.4086 24.4143 36.5943 24.4327 36.7479 24.5296C37.4658 24.982 37.8943 25.7586 37.8943 26.607V31.9398C37.8943 33.3324 39.0274 34.4672 40.42 34.4695L47.9265 34.4809C48.6532 34.4809 49.2444 35.0722 49.2444 35.7989C49.2444 36.5255 48.6531 37.1168 47.9265 37.1168H45.474C45.0614 37.1168 44.7269 37.4512 44.7269 37.8639C44.7269 38.2765 45.0614 38.6112 45.4741 38.6112Z" fill="#99A537"/>
</g>
<defs>
<clipPath id="clip0_48_1587">
<rect width="51" height="51" fill="white" transform="translate(0 0.000976562)"/>
</clipPath>
</defs>
</svg>
