<svg width="77" height="77" viewBox="0 0 77 77" fill="none" xmlns="http://www.w3.org/2000/svg">
<path d="M73.1033 40.6706C71.1317 39.189 68.4483 39.259 66.5583 40.8456L62.1017 44.6023C58.5433 38.7106 52.6167 34.954 46.1417 34.499L51.73 29.8673C52.465 30.019 53.83 30.229 55.44 30.229C57.7383 30.229 60.4917 29.774 62.4633 28.0006C66.395 24.454 65.4033 17.244 65.3567 16.9406C65.2983 16.4973 64.96 16.1356 64.5283 16.019C64.225 15.9373 57.155 14.199 53.2233 17.7456C49.8983 20.744 50.0967 26.3323 50.26 28.199L46.1417 31.6173V20.1723C47.5183 19.099 51.5317 15.5873 51.4267 11.329C51.31 6.3123 45.5117 2.5673 45.2667 2.41563C44.8817 2.17063 44.4033 2.1823 44.03 2.45063C43.785 2.61397 38.185 6.60397 38.29 11.6323C38.3833 15.8323 42.42 19.1223 43.9017 20.184V26.6356L39.6667 24.3956C39.4217 22.6806 38.4067 17.6523 34.7783 15.669C30.485 13.324 24.5233 16.3923 24.2783 16.5206C23.8817 16.7306 23.6483 17.1623 23.6833 17.6056C23.7067 17.8856 24.3483 24.5473 28.63 26.904C29.82 27.5573 31.1267 27.7906 32.4217 27.7906C35.0117 27.7906 37.4733 26.834 38.57 26.344L43.9133 29.1323V34.4873C36.995 34.814 30.59 38.9323 27.02 45.4306C24.6633 45.1973 22.3417 45.384 20.1833 46.014C17.4767 46.7956 15.1083 48.1606 13.1367 50.0623C12.4833 50.6923 11.69 51.299 10.64 51.9523L3.38333 56.5023C1.90166 57.4356 1.37666 59.3723 2.16999 60.924L8.37666 72.9406C8.79666 73.7456 9.49666 74.3406 10.36 74.6206C10.6983 74.7256 11.0483 74.784 11.3867 74.784C11.9233 74.784 12.46 74.6556 12.95 74.399L21.1867 70.1056C22.645 69.3473 24.2667 69.0556 25.9 69.254L39.9933 71.004C41.8367 71.2373 43.715 70.9573 45.4183 70.2223C54.4017 66.2906 63.6767 59.174 73.7683 48.464C74.795 47.379 75.2967 45.909 75.18 44.4156C75.0517 42.934 74.2933 41.569 73.1033 40.6706ZM29.7033 24.944C27.1717 23.5556 26.285 19.7873 26.005 18.1656C27.825 17.384 31.36 16.3456 33.705 17.6173C35.6883 18.7023 36.6567 21.234 37.1233 23.0656L33.4717 21.1523C32.9233 20.8723 32.2583 21.0823 31.9667 21.619C31.6867 22.1673 31.8967 22.8323 32.4333 23.124L35.9217 24.944C34.1367 25.5273 31.605 25.9823 29.7033 24.944ZM54.7167 19.3906C57.12 17.2206 61.4833 17.7106 63.2333 18.014C63.3617 19.7756 63.3967 24.1506 60.9817 26.3323C59.1267 28.0006 56.1517 28.1056 54.0633 27.9306L56.8283 25.6323C57.3067 25.2356 57.365 24.5356 56.9683 24.069C56.5717 23.6023 55.8717 23.5323 55.405 23.929L52.4183 26.4023C52.4183 24.3023 52.7683 21.1406 54.7167 19.3906ZM40.53 11.5623C40.46 8.56397 43.4 5.79897 44.7067 4.72563C46.06 5.74063 49.1283 8.36563 49.1983 11.364C49.245 13.6623 47.53 15.8206 46.1417 17.1973V11.8773C46.1417 11.259 45.64 10.769 45.0333 10.769C44.415 10.769 43.925 11.2706 43.925 11.8773V17.314C42.455 16.0073 40.5883 13.8956 40.53 11.5623ZM43.9133 36.704V41.954H40.5767C39.9583 41.954 39.4683 42.4556 39.4683 43.0623C39.4683 43.6806 39.97 44.1706 40.5767 44.1706H49.49C50.1083 44.1706 50.5983 43.669 50.5983 43.0623C50.5983 42.444 50.0967 41.954 49.49 41.954H46.1533V36.7273C51.9517 37.194 57.26 40.659 60.3867 46.049L54.2383 51.229C53.4567 49.479 51.695 48.2423 49.6533 48.2423H39.34C38.2083 48.2423 37.1 48.079 36.0267 47.7406L31.1033 46.224C30.5317 46.049 29.96 45.909 29.3767 45.7806C32.6083 40.4256 38.0567 37.019 43.9133 36.704ZM72.1467 46.9356C62.265 57.424 53.235 64.3656 44.5317 68.1806C43.19 68.764 41.7317 68.974 40.2733 68.799L26.18 67.049C24.1033 66.7923 22.0267 67.1656 20.16 68.134L11.9233 72.4273C11.6433 72.5673 11.3283 72.5906 11.0367 72.509C10.745 72.4156 10.5 72.2056 10.36 71.9373L4.15333 59.9206C3.87333 59.384 4.04833 58.7306 4.57333 58.404L11.83 53.8423C13.0083 53.0956 13.9183 52.4073 14.6883 51.6606C16.3917 50.0156 18.4567 48.8256 20.8017 48.149C22.1667 47.7523 23.6017 47.554 25.0833 47.554C26.8333 47.554 28.6417 47.834 30.45 48.3823L35.3733 49.899C36.6567 50.2956 37.9983 50.494 39.34 50.494H49.6533C51.1933 50.494 52.4417 51.7423 52.4417 53.2823V53.294C52.4417 54.834 51.1933 56.0706 49.6533 56.0706H29.575C28.9567 56.0706 28.4667 56.5723 28.4667 57.179C28.4667 57.7856 28.9683 58.2873 29.575 58.2873H49.6533C52.2317 58.2873 54.3667 56.3273 54.635 53.819L68.005 42.5606C69.09 41.6506 70.6417 41.604 71.7733 42.4556C72.4617 42.969 72.8933 43.7623 72.9633 44.614C73.0333 45.4773 72.7417 46.3056 72.1467 46.9356Z" fill="#99A537"/>
</svg>
