<svg width="77" height="77" viewBox="0 0 77 77" fill="none" xmlns="http://www.w3.org/2000/svg">
<g clip-path="url(#clip0_293_8154)">
<path d="M35.3366 21.6318C39.3791 24.3396 45.0347 24.1985 49.7317 22.8599C50.509 24.8563 51.0265 26.9443 51.2717 29.0726L51.3154 32.0833H33.3667C32.6283 32.0834 31.9257 32.4015 31.4385 32.9563C30.9513 33.5111 30.7266 34.2488 30.8218 34.981L31.9897 43.9644C32.1541 45.2295 33.2229 46.1819 34.4986 46.1999L38.1882 74.7656C38.3578 76.0428 39.4459 76.9977 40.7343 76.9999H64.4991C65.7887 76.9974 66.8773 76.0405 67.0452 74.7618L70.7348 46.1999C72.0092 46.1821 73.0775 45.2319 73.2437 43.9682C74.5514 33.9082 74.4115 35.1132 74.4115 34.9849C74.508 34.2521 74.2838 33.5132 73.7965 32.9575C73.3091 32.4018 72.6058 32.0832 71.8667 32.0833H53.9L53.9616 29.0777C54.1953 26.9461 54.7132 24.8554 55.5016 22.8612C60.196 24.2036 65.8543 24.3396 69.8955 21.6318C76.0555 17.5085 76.9538 8.01307 76.9936 7.6101C76.9954 7.53227 76.9894 7.45445 76.9756 7.37782C76.9684 7.1692 76.9026 6.96684 76.7857 6.7939V6.78363C76.7729 6.76438 76.7523 6.7554 76.7395 6.73743C76.6315 6.5826 76.4845 6.45907 76.3134 6.37938C76.2621 6.34497 76.208 6.31492 76.1517 6.28955C75.7821 6.16122 67.0144 3.08763 60.8287 7.22895C55.2668 10.9506 53.995 19.0356 53.7704 20.8708C53.243 21.5936 52.8516 22.4063 52.6154 23.2693C52.3776 22.4034 51.9864 21.5871 51.4604 20.8592C51.2358 19.0087 49.9576 10.9468 44.4021 7.22895C38.2228 3.08892 29.4551 6.15993 29.0842 6.28827C29.028 6.31384 28.9739 6.34388 28.9225 6.3781C28.7517 6.45825 28.6048 6.58169 28.4964 6.73615C28.4836 6.75412 28.4631 6.7631 28.4502 6.78235C28.3316 6.95854 28.2645 7.16431 28.2564 7.37653C28.2409 7.45341 28.2332 7.53166 28.2333 7.6101C28.2744 8.01307 29.1779 17.5085 35.3366 21.6318ZM31.3133 10.2422L47.1368 20.8374C38.4204 22.5019 33.4257 19.0407 31.3133 10.2422ZM64.4991 74.4333H40.7343L37.0883 46.1999H68.145L64.4991 74.4333ZM70.6988 43.6333H34.5345L33.3667 34.6499H71.8667L70.6988 43.6333ZM58.1055 20.8336L73.9277 10.2396C71.8128 19.0767 66.7924 22.4839 58.1055 20.8336ZM72.6174 8.02847L56.8003 18.6185C58.905 9.8816 63.833 6.36142 72.6174 8.02847ZM42.9801 9.36827C46.2295 11.5499 47.7516 15.7849 48.4356 18.6262L32.6108 8.02462C35.3674 7.49717 39.7205 7.1866 42.9801 9.36827Z" fill="#99A537"/>
<path d="M39.7833 37.2168H37.2167C36.5079 37.2168 35.9333 37.7914 35.9333 38.5001C35.9333 39.2089 36.5079 39.7835 37.2167 39.7835H39.7833C40.4921 39.7835 41.0667 39.2089 41.0667 38.5001C41.0667 37.7914 40.4921 37.2168 39.7833 37.2168Z" fill="#99A537"/>
<path d="M44.9166 37.2168C44.2079 37.2168 43.6333 37.7914 43.6333 38.5001C43.6333 39.2089 44.2079 39.7835 44.9166 39.7835H53.9C54.6087 39.7835 55.1833 39.2089 55.1833 38.5001C55.1833 37.7914 54.6087 37.2168 53.9 37.2168H44.9166Z" fill="#99A537"/>
<path d="M14.1167 77C21.6986 77 28.2333 57.0801 28.2333 47.2998C28.2333 38.2613 23.1128 35.6009 17.9667 34.8913V29.4833C19.5767 28.2816 20.5275 26.3924 20.5333 24.3833V6.41667C20.5333 2.87284 17.6605 0 14.1167 0C10.5728 0 7.7 2.87284 7.7 6.41667V24.3833C7.70585 26.3924 8.65664 28.2816 10.2667 29.4833V34.8913C5.1205 35.6009 0 38.2613 0 47.2998C0 57.0801 6.53473 77 14.1167 77ZM16.4356 37.3155C15.7619 43.5486 14.7583 46.6209 14.1167 47.3742C13.475 46.6209 12.4714 43.5486 11.7977 37.3155C13.3408 37.1833 14.8925 37.1833 16.4356 37.3155ZM10.2667 6.41667C10.2667 4.29037 11.9904 2.56667 14.1167 2.56667C16.243 2.56667 17.9667 4.29037 17.9667 6.41667V24.3833C17.9667 26.5096 16.243 28.2333 14.1167 28.2333C11.9904 28.2333 10.2667 26.5096 10.2667 24.3833V6.41667ZM12.8333 30.6717C13.6802 30.8443 14.5532 30.8443 15.4 30.6717V34.6757C14.5132 34.6436 13.7432 34.6423 12.8333 34.6757V30.6717ZM9.25668 37.6966C10.5913 50.05 13.0476 50.05 14.1167 50.05C15.1857 50.05 17.642 50.05 18.9766 37.6966C23.6608 38.7785 25.6667 41.7712 25.6667 47.2998C25.6667 57.1237 18.9933 74.4333 14.1167 74.4333C9.24 74.4333 2.56667 57.1237 2.56667 47.2998C2.56667 41.7712 4.57252 38.7785 9.25668 37.6966Z" fill="#99A537"/>
<path d="M14.1167 7.69948C14.8254 7.69948 15.4 7.12491 15.4 6.41615C15.4 5.70738 14.8254 5.13281 14.1167 5.13281C13.4079 5.13281 12.8333 5.70738 12.8333 6.41615C12.8333 7.12491 13.4079 7.69948 14.1167 7.69948Z" fill="#99A537"/>
</g>
<defs>
<clipPath id="clip0_293_8154">
<rect width="77" height="77" fill="white"/>
</clipPath>
</defs>
</svg>
