<svg width="77" height="77" viewBox="0 0 77 77" fill="none" xmlns="http://www.w3.org/2000/svg">
<path d="M75.6951 66.3269H59.269V58.5379C62.8559 58.0555 66.035 55.8153 67.8836 52.419C70.3397 51.8576 72.5709 50.4356 74.2214 48.3664C76.0131 46.12 77 43.2491 77 40.2823C77 35.7693 74.6891 31.5922 71.0531 29.4225C70.6743 21.8965 64.8727 15.8957 57.8069 15.8957C55.5828 15.8957 53.3821 16.501 51.443 17.6462C50.8396 18.0025 50.6393 18.7803 50.9956 19.3835C51.352 19.987 52.13 20.1872 52.733 19.8309C54.2817 18.9162 56.0362 18.4329 57.8069 18.4329C63.7117 18.4329 68.5245 23.7045 68.5356 30.1842C68.5365 30.6617 68.8052 31.0983 69.2313 31.314C72.4093 32.9224 74.4626 36.4426 74.4626 40.2822C74.4626 45.1281 71.181 49.3237 66.829 50.0415C66.4214 50.1089 66.0722 50.3701 65.8928 50.7423C64.5317 53.5648 62.0726 55.4728 59.269 55.9696V44.7437L65.5126 39.0022C66.0283 38.5279 66.062 37.7254 65.5876 37.2097C65.1132 36.694 64.3108 36.6602 63.7951 37.1347L59.269 41.2967V32.828C59.269 32.1273 58.701 31.5593 58.0003 31.5593C57.2996 31.5593 56.7316 32.1273 56.7316 32.828V48.1828L52.2054 44.0208C51.6898 43.5463 50.8871 43.5801 50.4129 44.0958C49.9386 44.6115 49.9723 45.414 50.488 45.8883L56.7318 51.6297V56.029C53.7402 55.6435 51.1019 53.6641 49.6863 50.6689C49.5171 50.3108 49.1903 50.0523 48.803 49.9702C44.5933 49.0758 41.538 45.0016 41.538 40.2822C41.538 36.5609 43.4145 33.193 46.4353 31.4931C46.8395 31.2655 47.0874 30.8356 47.0816 30.3719C47.0813 30.3367 47.0802 30.3018 47.0789 30.2671C47.0782 30.247 47.0774 30.227 47.0774 30.207C47.0774 27.5641 47.8574 25.0671 49.3328 22.986C49.7381 22.4143 49.6032 21.6224 49.0318 21.2174C48.4601 20.8119 47.6682 20.9471 47.2632 21.5184C45.5823 23.8892 44.6492 26.6977 44.5494 29.6714C41.1087 31.9151 39.0009 35.9114 39.0009 40.2823C39.0009 45.9677 42.6102 50.9201 47.6691 52.3049C49.5732 55.8909 52.941 58.2116 56.732 58.583V66.3269H55.9285C55.7416 63.0068 53.472 60.1184 50.3116 59.1431C49.3199 57.0333 47.3937 55.5035 45.1287 55.0075C44.3861 51.632 41.3474 49.1149 37.8065 49.1149C35.076 49.1149 32.6001 50.5824 31.2803 52.9183C28.6811 53.0171 26.3442 54.4057 25.0018 56.5568C24.1652 54.2553 22.0221 52.5795 19.513 52.3993V49.0638C22.9378 48.5877 25.9705 46.4455 27.7424 43.2049C30.0961 42.6611 32.2338 41.2955 33.8163 39.3116C35.5395 37.1515 36.4885 34.3908 36.4885 31.5382C36.4885 27.2088 34.2764 23.2004 30.7935 21.1095C30.4155 13.8891 24.8434 8.13672 18.0587 8.13672C15.4562 8.13672 12.953 8.97605 10.8194 10.5643C10.2575 10.9826 10.141 11.7775 10.5592 12.3395C10.9774 12.9014 11.7723 13.0179 12.3344 12.5997C14.0266 11.3397 16.006 10.674 18.0587 10.674C23.682 10.674 28.2656 15.6967 28.2762 21.8705C28.2771 22.348 28.5459 22.7846 28.9719 23.0002C31.9966 24.5311 33.9508 27.8825 33.9508 31.5382C33.9508 36.1514 30.8284 40.1453 26.6877 40.8283C26.2803 40.8956 25.9309 41.1569 25.7515 41.5291C24.4664 44.194 22.1535 46.0029 19.5127 46.4932V35.8335L25.473 30.3528C25.9887 29.8785 26.0222 29.076 25.548 28.5603C25.0738 28.0445 24.2712 28.0108 23.7555 28.4853L19.5127 32.3867V24.4019C19.5127 23.7012 18.9447 23.1332 18.244 23.1332C17.5433 23.1332 16.9753 23.7012 16.9753 24.4019V38.9794L12.7326 35.0779C12.2168 34.6035 11.4143 34.6373 10.9401 35.153C10.4658 35.6687 10.4995 36.4713 11.0152 36.9455L16.9752 42.4262V46.5526C14.1544 46.1667 11.6706 44.2896 10.3329 41.4596C10.1637 41.1015 9.83688 40.843 9.44963 40.7609C5.44428 39.9095 2.53709 36.0311 2.53709 31.5382C2.53709 27.9949 4.32297 24.7885 7.19798 23.1706C7.60193 22.9432 7.84977 22.514 7.84436 22.0505C7.84406 22.0162 7.84301 21.982 7.8418 21.9478C7.84135 21.9293 7.84045 21.911 7.84045 21.8922C7.84045 20.323 8.12965 18.8056 8.69993 17.3821C8.86957 16.9592 9.06493 16.5438 9.28104 16.1471C9.61611 15.5317 9.38902 14.7614 8.77362 14.4263C8.15823 14.091 7.38777 14.3182 7.05286 14.9336C6.78952 15.4173 6.5513 15.9235 6.34497 16.4384C5.71995 17.9981 5.3736 19.6476 5.31299 21.3494C2.01779 23.5101 0 27.345 0 31.5382C0 36.9969 3.46169 41.7536 8.31598 43.0942C10.1414 46.5163 13.3551 48.7367 16.9753 49.1083V52.7371C15.5869 53.2222 14.3987 54.1814 13.6342 55.4698C10.5533 55.645 8.06393 57.9204 7.58148 60.9213C5.30923 61.9304 3.6199 63.9318 2.99788 66.3266H1.26869C0.568024 66.3266 0 66.8947 0 67.5953C0 68.296 0.568024 68.864 1.26869 68.864H4.04791H32.6873H54.621H75.6951C76.3957 68.864 76.9638 68.296 76.9638 67.5953C76.9638 66.8947 76.3956 66.3269 75.6951 66.3269ZM5.65874 66.3269C6.26391 64.7847 7.53696 63.5562 9.15877 63.0308C9.66905 62.8656 10.0202 62.3974 10.036 61.8614C10.0999 59.6941 11.8488 57.9964 14.0176 57.9964C14.1045 57.9964 14.1996 58.0004 14.3164 58.009C14.8599 58.0483 15.3684 57.7379 15.5794 57.2352C16.1707 55.8285 17.5385 54.9194 19.0641 54.9194C21.0231 54.9194 22.6768 56.4477 22.829 58.3987C22.8777 59.0214 23.3723 59.5162 23.9952 59.5649C24.3411 59.5919 24.6756 59.6678 24.9923 59.7836C24.9937 59.7841 24.9949 59.7848 24.9962 59.7853C25.055 59.8069 25.1129 59.8302 25.1704 59.8546C25.1827 59.8599 25.1952 59.8651 25.2075 59.8705C25.2612 59.8938 25.3143 59.9184 25.3665 59.9441C25.3842 59.953 25.4017 59.9621 25.4193 59.9711C25.4916 60.0081 25.5624 60.0475 25.6319 60.0889C25.6698 60.1116 25.708 60.1336 25.745 60.1576C25.7731 60.1757 25.8002 60.1951 25.8276 60.2136C25.8692 60.242 25.9106 60.2709 25.9512 60.301C25.9742 60.3181 25.9969 60.3352 26.0193 60.3528C26.0684 60.391 26.1168 60.4304 26.1639 60.4712C26.1769 60.4823 26.19 60.493 26.203 60.5043C26.3279 60.615 26.4457 60.7342 26.5553 60.8609C26.5654 60.8726 26.5753 60.8843 26.5853 60.8962C26.6314 60.9508 26.6759 61.0069 26.7191 61.0642C26.7274 61.0752 26.7359 61.086 26.7441 61.0971C26.8426 61.2313 26.9324 61.3726 27.013 61.5202C27.0236 61.5397 27.0337 61.5597 27.0442 61.5796C27.0728 61.6342 27.1 61.6898 27.1261 61.7462C27.1364 61.7685 27.1468 61.7907 27.1567 61.8131C27.1888 61.8862 27.2191 61.9604 27.2467 62.0357C27.2477 62.0384 27.2486 62.0408 27.2497 62.0435C27.3984 62.4544 27.7482 62.7598 28.1753 62.8519C28.2887 62.8762 28.3999 62.906 28.5092 62.9396C28.5448 62.9505 28.5794 62.9639 28.6148 62.9758C28.6876 63.0002 28.76 63.025 28.8309 63.0532C28.8718 63.0696 28.9116 63.0881 28.9518 63.1057C29.0151 63.1334 29.0781 63.1615 29.1398 63.1922C29.1813 63.2128 29.2216 63.2351 29.2622 63.257C29.3206 63.2885 29.3783 63.3209 29.4347 63.3551C29.4749 63.3793 29.5144 63.4044 29.5537 63.43C29.6084 63.4656 29.6624 63.5028 29.7153 63.541C29.7531 63.5682 29.7904 63.5954 29.8271 63.6238C29.8796 63.6644 29.9304 63.7067 29.9808 63.7496C30.0149 63.7786 30.0495 63.8075 30.0827 63.8375C30.1343 63.8845 30.1836 63.9333 30.2328 63.9825C30.2618 64.0115 30.2919 64.04 30.32 64.07C30.3754 64.1288 30.4277 64.1902 30.4796 64.2519C30.4989 64.2749 30.5193 64.2965 30.5381 64.3198C30.6073 64.4062 30.6733 64.4949 30.7356 64.5865C30.7487 64.6056 30.7599 64.626 30.7726 64.6453C30.8205 64.7184 30.8673 64.7922 30.9108 64.8682C30.9303 64.9026 30.9479 64.9384 30.9666 64.9734C31.0003 65.0363 31.0333 65.0993 31.0639 65.1638C31.0828 65.204 31.0997 65.245 31.1173 65.2856C31.144 65.3475 31.1699 65.4093 31.1937 65.4724C31.2099 65.5157 31.2248 65.5595 31.2397 65.6034C31.2609 65.666 31.2807 65.729 31.2991 65.7928C31.312 65.8379 31.3241 65.8833 31.3356 65.9289C31.3517 65.9935 31.3659 66.0586 31.3789 66.1242C31.3881 66.1699 31.397 66.2157 31.4047 66.262C31.4083 66.2835 31.4101 66.3053 31.4132 66.3269H5.65874ZM33.9714 66.3271V66.3269C33.9703 66.3149 33.9678 66.303 33.9669 66.2911C33.9523 66.1397 33.9335 65.9892 33.9087 65.8404C33.9072 65.8317 33.9052 65.823 33.9037 65.8143C33.8778 65.6625 33.847 65.5123 33.8109 65.3637C33.8094 65.3572 33.8082 65.3508 33.8065 65.3446C33.7703 65.1974 33.7283 65.0522 33.6826 64.9088C33.6777 64.8934 33.6731 64.8776 33.668 64.8623C33.6229 64.7242 33.5727 64.5883 33.5187 64.4538C33.5109 64.4344 33.5034 64.4149 33.4954 64.3956C33.4412 64.264 33.3827 64.1347 33.3205 64.0073C33.3107 63.9872 33.3009 63.9672 33.2909 63.9472C33.2274 63.8205 33.1603 63.696 33.0893 63.5739C33.0785 63.5554 33.0677 63.5372 33.0567 63.5187C32.9836 63.3955 32.9071 63.2746 32.8263 63.1566C32.8165 63.1421 32.8063 63.1281 32.7964 63.114C32.7122 62.9928 32.6248 62.8738 32.533 62.7585C32.5273 62.7513 32.5212 62.7443 32.5154 62.737C32.4195 62.6173 32.3199 62.5006 32.216 62.3876C32.2148 62.3864 32.2138 62.3851 32.2127 62.3839C32.1098 62.2723 32.0026 62.1644 31.8924 62.0598C31.8828 62.0506 31.8734 62.0411 31.8638 62.0321C31.7578 61.9327 31.648 61.837 31.5355 61.7444C31.5205 61.7321 31.5056 61.7194 31.4904 61.707C31.3797 61.6175 31.266 61.5316 31.1494 61.449C31.1314 61.4363 31.1134 61.4235 31.0953 61.4108C30.9789 61.3299 30.8596 61.2526 30.7378 61.1791C30.7187 61.1677 30.6995 61.1562 30.6804 61.1449C30.5569 61.072 30.4312 61.0027 30.3029 60.9376C30.2853 60.9285 30.2674 60.9203 30.2497 60.9115C30.1173 60.8461 29.9829 60.784 29.8456 60.7272C29.8334 60.722 29.8211 60.7177 29.8089 60.7127C29.6649 60.6542 29.5189 60.5996 29.37 60.5511C29.3696 60.5509 29.369 60.5506 29.3684 60.5503C29.3619 60.5372 29.3545 60.525 29.3481 60.5121C29.2968 60.4094 29.2431 60.3085 29.1866 60.2092C29.1577 60.1585 29.1269 60.1091 29.0968 60.0591C29.0602 59.9991 29.0234 59.9393 28.985 59.8805C28.9482 59.8238 28.9103 59.7681 28.8715 59.7128C28.8378 59.6648 28.8032 59.6176 28.7683 59.5705C28.7244 59.5111 28.6803 59.452 28.6343 59.3943C28.6073 59.3604 28.5788 59.3279 28.5512 59.2948C28.4442 59.1663 28.3325 59.0422 28.2156 58.9225C28.1955 58.9019 28.1762 58.8805 28.1559 58.8602C28.0979 58.8025 28.0379 58.7471 27.9777 58.6916C27.943 58.6596 27.9084 58.6277 27.8729 58.5964C27.8154 58.5459 27.7571 58.4963 27.6975 58.4475C27.6542 58.4121 27.6102 58.3779 27.5659 58.3435C27.5108 58.3009 27.456 58.2579 27.3993 58.217C27.3196 58.1592 27.2381 58.1042 27.1557 58.0502C27.1337 58.0358 27.1128 58.0198 27.0906 58.0057C28.0152 56.4437 29.7077 55.4507 31.5776 55.4507C31.6921 55.4507 31.8163 55.456 31.9685 55.4671C32.5112 55.5076 33.0203 55.1958 33.2313 54.6934C34.0075 52.8463 35.8034 51.6528 37.8065 51.6528C40.3786 51.6528 42.5498 53.6596 42.7495 56.2213C42.7981 56.8441 43.2929 57.3389 43.9158 57.3874C45.8509 57.5383 47.5283 58.8159 48.1894 60.6423C48.3382 61.0532 48.688 61.3587 49.1151 61.4507C51.4558 61.9551 53.1922 63.9679 53.3872 66.3275H33.9714V66.3271Z" fill="#99A537"/>
</svg>
