<svg width="77" height="77" viewBox="0 0 77 77" fill="none" xmlns="http://www.w3.org/2000/svg">
<g clip-path="url(#clip0_293_8167)">
<path d="M37.8584 41.0672C39.9847 41.0672 41.7084 39.3435 41.7084 37.2172C41.7084 35.0909 39.9847 33.3672 37.8584 33.3672C35.7321 33.3672 34.0084 35.0909 34.0084 37.2172C34.0084 39.3435 35.7321 41.0672 37.8584 41.0672ZM37.8584 35.9339C38.5671 35.9339 39.1417 36.5084 39.1417 37.2172C39.1417 37.926 38.5671 38.5005 37.8584 38.5005C37.1496 38.5005 36.575 37.926 36.575 37.2172C36.575 36.5084 37.1496 35.9339 37.8584 35.9339Z" fill="#99A537"/>
<path d="M3.00302 51.333C4.89274 51.6363 6.70573 52.3031 8.34169 53.2965C7.32786 63.0755 7.12252 71.0706 7.05836 74.433C7.04757 75.1178 7.31094 75.7785 7.78986 76.2681C8.27948 76.747 8.9402 77.0104 9.62502 76.9996H12.1917C13.6092 76.9996 14.7584 75.8505 14.7584 74.433C14.7584 72.739 14.8739 69.6975 15.0792 65.7576C16.1059 64.2176 19.4297 63.191 21.3804 62.8188C21.7808 62.7473 22.1236 62.4902 22.3044 62.1258C22.4874 61.7626 22.4874 61.334 22.3044 60.9708C21.1251 58.3511 18.6214 56.574 15.7594 56.3251C16.3822 49.0894 17.3673 41.8894 18.711 34.7523C19.692 35.4826 20.7116 36.1594 21.7654 36.78C24.1542 38.1378 26.6902 39.2185 29.3242 40.0011C29.938 41.8496 31.1304 43.4514 32.725 44.5698V51.0506C31.9138 51.7762 31.4475 52.8113 31.4417 53.8996V73.1496C31.4417 75.2759 33.1654 76.9996 35.2917 76.9996H40.425C42.5513 76.9996 44.275 75.2759 44.275 73.1496V53.8996C44.2692 52.8113 43.8029 51.7762 42.9917 51.0506V46.097L47.2652 48.5738C47.4821 49.6522 48.15 50.5864 49.1004 51.1405L65.7837 60.7655C66.3654 61.1003 67.0246 61.2773 67.6959 61.2788C69.0768 61.2843 70.3549 60.5497 71.0454 59.3538L73.612 54.9135C74.1231 54.0287 74.2616 52.977 73.9968 51.99C73.732 51.0031 73.0857 50.1619 72.2004 49.6518L55.517 40.0268C54.5682 39.4866 53.4347 39.3746 52.3985 39.7188L46.8417 36.4591C46.6765 34.5314 45.8933 32.7085 44.6087 31.2616C45.2338 28.5858 45.5524 25.8475 45.5584 23.0996C45.5584 13.4105 40.6175 2.56629 34.0084 2.56629C33.2996 2.56629 32.725 3.14086 32.725 3.84963V28.3228L21.8424 22.0345C22.2145 20.7511 22.5995 19.5448 23.023 18.3256C25.0078 17.7565 27.0939 17.6338 29.1317 17.9663C29.5358 18.0292 29.9457 17.8958 30.2354 17.607C30.5242 17.3174 30.6576 16.9074 30.5947 16.5033C30.3352 13.8539 28.7639 11.5114 26.411 10.2663C26.7575 9.59896 27.0784 8.98296 27.4505 8.27713C28.3432 6.46022 27.6763 4.26238 25.9245 3.24785C24.1728 2.23331 21.9346 2.74867 20.8029 4.42713C20.5205 4.91479 20.251 5.41529 19.9944 5.91579C18.403 3.28496 14.7584 -0.346874 6.95569 -0.000374202C6.1269 0.0308752 5.36429 0.460681 4.90835 1.1535C4.45241 1.84632 4.35936 2.71675 4.65852 3.49029C6.61048 8.67656 11.3677 12.2807 16.8887 12.756C16.2214 14.4628 15.6054 16.2466 14.9894 18.0818L11.5244 16.0798C11.2292 15.9092 10.8783 15.863 10.549 15.9515C10.218 16.04 9.93616 16.2571 9.76619 16.5546C7.94386 19.7245 9.26569 24.1263 12.1917 28.233C10.9084 33.7641 9.95869 39.398 9.24002 44.7751C6.13763 44.819 3.33881 46.6482 2.05336 49.4721C1.87032 49.8354 1.87032 50.2639 2.05336 50.6271C2.23609 51.003 2.59042 51.2664 3.00302 51.333ZM19.096 60.7655C17.7528 61.1142 16.4592 61.6317 15.246 62.3055C15.323 61.2403 15.4 60.111 15.4899 58.9431C16.8835 59.0473 18.1795 59.6976 19.096 60.7526V60.7655ZM34.65 31.6723L34.7784 31.5825C37.858 29.9444 41.6822 31.0666 43.3883 34.1091C45.0945 37.1516 44.0576 40.9997 41.0539 42.7731C39.0685 43.9194 36.6225 43.9194 34.6372 42.7731C33.1174 41.8964 32.0229 40.4355 31.6085 38.7306C31.4945 38.234 31.4385 37.7258 31.4417 37.2163C31.4463 34.9285 32.6687 32.8162 34.65 31.6723ZM47.6887 45.789L44.0184 43.7356C45.2837 42.5336 46.175 40.9917 46.585 39.2953L50.2554 41.4128L47.6887 45.789ZM41.7084 73.1496C41.7084 73.8584 41.1338 74.433 40.425 74.433H35.2917C34.5829 74.433 34.0084 73.8584 34.0084 73.1496V53.8996C34.0084 53.1909 34.5829 52.6163 35.2917 52.6163H40.425C41.1338 52.6163 41.7084 53.1909 41.7084 53.8996V73.1496ZM35.2917 50.0496V45.8146C36.9643 46.3277 38.7524 46.3277 40.425 45.8146V50.0496H35.2917ZM54.2337 42.2213L70.917 51.8463C71.2119 52.0178 71.4263 52.2996 71.513 52.6295C71.5997 52.9594 71.5515 53.3102 71.379 53.6045L68.8124 58.0448C68.4599 58.6558 67.6804 58.8679 67.067 58.5196L50.3837 48.8946C50.0867 48.7253 49.8695 48.4444 49.7804 48.1144C49.6912 47.7843 49.7375 47.4323 49.9089 47.1365L52.4755 42.6961C52.5876 42.5096 52.7414 42.3514 52.9247 42.2341C53.1165 42.1254 53.3331 42.068 53.5535 42.0673C53.7901 42.0549 54.0255 42.1082 54.2337 42.2213ZM42.9917 23.0996C42.982 25.2534 42.7714 27.4016 42.3629 29.5163C41.0032 28.6931 39.4476 28.2499 37.8584 28.233C36.9888 28.2376 36.1244 28.3673 35.2917 28.618V5.36396C39.347 6.82696 42.9917 14.8863 42.9917 23.0996ZM27.5917 15.2071C26.4255 15.1467 25.2562 15.2026 24.101 15.374C24.486 14.3986 24.871 13.4875 25.2689 12.6148C26.3214 13.182 27.1429 14.0989 27.5917 15.2071ZM7.05836 2.56629C15.9134 2.15563 18.1079 7.49429 18.5314 8.89313C18.326 9.32946 18.1335 9.79146 17.9282 10.2406C13.0758 10.148 8.76976 7.10777 7.05836 2.56629ZM19.8917 12.0501C20.251 11.216 20.6232 10.3946 21.0082 9.59896V9.48346C21.6114 8.20013 22.2915 6.91679 22.946 5.76179C23.1927 5.34312 23.6547 5.0997 24.1395 5.13296C24.5858 5.12052 25.0017 5.35817 25.2175 5.74896C25.4468 6.14602 25.4468 6.63523 25.2175 7.03229C24.6015 8.11029 24.0112 9.22679 23.485 10.3561C22.4944 12.4483 21.6121 14.59 20.8414 16.7728C20.8341 16.8282 20.8341 16.8843 20.8414 16.9396C20.405 18.223 19.9944 19.4421 19.558 20.6998L17.2865 19.4165C18.0822 16.8241 18.9805 14.3601 19.8917 12.0501ZM11.55 19.07L31.7112 30.697C29.9095 32.3876 28.8837 34.7456 28.875 37.2163C26.8595 36.5489 24.9127 35.6894 23.0615 34.6496C19.7658 32.7436 16.8752 30.2105 14.553 27.1935V27.1165C12.32 24.1648 11.165 21.226 11.55 19.07ZM16.478 32.93C14.4292 43.5982 13.1214 54.3954 12.5639 65.2443C12.32 69.4408 12.1917 72.6748 12.1917 74.433H9.62502C9.8473 59.7771 11.4066 45.1721 14.2835 30.7996C14.9765 31.5183 15.708 32.237 16.478 32.93ZM8.94486 47.3546C8.81652 48.4198 8.70102 49.4721 8.58552 50.4988C7.52891 49.9583 6.41937 49.5283 5.27452 49.2155C6.19178 48.1191 7.51832 47.4465 8.94486 47.3546Z" fill="#99A537"/>
</g>
<defs>
<clipPath id="clip0_293_8167">
<rect width="77" height="77" fill="white"/>
</clipPath>
</defs>
</svg>
