<svg width="77" height="77" viewBox="0 0 77 77" fill="none" xmlns="http://www.w3.org/2000/svg">
<g clip-path="url(#clip0_293_8173)">
<path d="M62.3842 74.3459H41.1498V68.1478C41.1969 68.0934 41.2419 68.0367 41.2826 67.9757C43.2969 63.947 46.0269 60.8749 48.3416 58.4173C55.9711 58.3559 60.5983 57.0181 63.5788 53.908C66.4985 50.9882 67.8256 46.476 67.693 39.8402C67.693 39.0439 67.0294 38.513 66.3658 38.513C54.1608 38.513 46.6289 41.4997 46.4624 56.5804C44.7804 58.3611 42.8994 60.4383 41.1498 62.9579V45.1486C41.1498 43.4947 42.9798 40.2555 45.7032 37.1843C57.9198 37.1255 63.7112 35.0728 63.7112 18.6056C63.7112 17.8093 63.1804 17.2784 62.384 17.2784C49.9003 17.2784 43.9232 19.1025 43.8067 35.3714C43.1389 36.1286 42.1335 37.3279 41.175 38.7148C41.1662 38.6662 41.1593 38.6177 41.1495 38.569V23.914C41.1495 22.3151 41.2542 20.9249 41.4773 19.6526C45.7468 18.8829 49.6814 16.349 51.8995 12.8987C54.0229 9.58082 54.4211 5.33398 53.094 0.9544C52.8285 0.290794 52.2976 -0.107309 51.6342 0.0254425C44.7331 1.08715 39.8225 3.87417 37.8318 8.25376C36.3207 11.5279 36.7228 15.2798 38.9218 18.8295C38.6321 20.3558 38.4954 22.0158 38.4954 23.9142V33.1012C37.43 31.6094 36.3487 30.4244 35.8368 29.8889C35.7643 23.9208 34.6907 20.375 32.2578 17.942C29.8689 15.5531 26.2856 14.6242 21.2424 14.6242C20.4461 14.6242 19.9152 15.2878 19.9152 15.9514C19.9152 25.3597 22.3599 31.6802 33.9631 31.8726C35.4877 33.5083 38.4953 37.2863 38.4953 39.8401V56.9011C37.2456 55.2792 36.0413 54.1578 35.0446 53.2444C34.8623 53.062 34.6805 52.8802 34.5108 52.7105C34.386 34.2157 25.6459 30.5501 10.6251 30.5501C9.8287 30.5501 9.29785 31.0809 9.29785 31.8773C9.29785 46.6608 17.1653 54.2217 32.5179 54.4337C32.785 54.7009 33.052 54.9679 33.3192 55.235C34.7444 56.5307 36.6754 58.3329 38.4951 61.5048V74.3461H17.2611C16.4648 74.3461 15.9339 74.8769 15.9339 75.6733C15.9339 76.4696 16.4648 77.0005 17.2611 77.0005H62.3842C63.1805 77.0005 63.7114 76.4696 63.7114 75.6733C63.7114 74.8768 63.1805 74.3459 62.3842 74.3459ZM65.0384 41.1672C64.9057 46.3431 63.844 49.7936 61.7206 52.0497C59.4936 54.4005 55.9966 55.4822 50.3716 55.7254C51.8486 53.5497 53.7835 51.4365 56.4119 50.3244C57.0755 50.0589 57.3408 49.2627 57.0755 48.5991C56.81 47.9355 56.0138 47.6702 55.3502 47.9355C52.8136 49.0452 50.893 50.7231 49.3612 52.5732C50.5556 43.3591 55.683 41.2871 65.0384 41.1672ZM40.2207 9.31561C41.6806 5.99774 45.3967 3.74157 50.838 2.81261C51.6343 6.13049 51.2361 9.05026 49.6435 11.5718C47.8139 14.4307 44.8022 16.1062 42.2209 16.8549C42.7257 15.4733 43.4215 14.1632 44.3348 12.7662C44.7329 12.1026 44.6003 11.3064 43.9367 10.9082C43.2731 10.5101 42.4769 10.6427 42.0787 11.3063C41.2474 12.5749 40.5758 13.8004 40.0477 15.0635C39.3781 13.0729 39.4345 11.0851 40.2207 9.31561ZM22.5697 17.2786C26.1529 17.4113 28.6746 18.2075 30.3999 19.8001C31.8167 21.3259 32.696 23.5685 33.0388 26.8938L30.2671 23.9142C29.7363 23.3833 28.9399 23.2506 28.409 23.7814C27.8782 24.3123 27.7454 25.1086 28.2763 25.6395L31.3986 29.074C24.4082 28.2123 22.6926 24.2807 22.5697 17.2786ZM11.9526 33.2043C23.9074 33.4509 30.4818 36.2173 31.6782 48.7269C28.8963 45.0929 26.0371 42.6163 23.1007 41.2999C22.4371 41.0344 21.6408 41.2999 21.3753 41.9635C21.1098 42.6271 21.3753 43.4233 22.039 43.6888C25.0244 44.9518 27.9105 47.607 30.7831 51.7378C18.3732 51.0495 12.3397 45.0754 11.9526 33.2043ZM61.0448 19.9399C60.8152 32.0333 57.3289 34.1909 48.1645 34.4893C49.7569 32.7415 51.9317 30.5245 53.8905 28.9575C54.5541 28.5594 54.5541 27.6303 54.156 27.0995C53.7579 26.4358 52.8288 26.4358 52.2979 26.834C50.2972 28.3799 48.1721 30.4866 46.5627 32.2148C47.2363 21.5095 51.2758 20.0453 61.0448 19.9399Z" fill="#99A537"/>
</g>
<defs>
<clipPath id="clip0_293_8173">
<rect width="77" height="77" fill="white"/>
</clipPath>
</defs>
</svg>
