<svg width="97" height="71" viewBox="0 0 97 71" fill="none" xmlns="http://www.w3.org/2000/svg">
<path d="M41.782 35.4697V64.3553C41.782 67.7628 39.0134 70.5313 35.5867 70.5313H6.70098C3.29366 70.5313 0.525024 67.7628 0.525024 64.3553V28.6548C0.525024 19.9621 4.14552 8.07478 21.4729 0.892169C24.6674 -0.346922 28.2491 1.24064 29.4882 4.41565C30.6885 7.51338 29.2558 10.9788 26.2162 12.3341C14.2903 17.2709 12.8963 24.0083 12.8963 28.6548V29.2744H35.5867C39.0134 29.2744 41.782 32.0429 41.782 35.4697Z" fill="#99A537" fill-opacity="0.06"/>
<path d="M96.475 35.4697V64.3553C96.475 67.7628 93.7064 70.5313 90.2991 70.5313H61.4134C57.9867 70.5313 55.218 67.7628 55.218 64.3553V28.6548C55.218 19.9621 58.8578 8.07478 76.1853 0.892169C79.3604 -0.346922 82.9614 1.24064 84.2005 4.41565C85.4009 7.51338 83.9488 10.9788 80.9286 12.3341C69.0027 17.2709 67.6087 24.0083 67.6087 28.6548V29.2744H90.2991C93.7064 29.2744 96.475 32.0429 96.475 35.4697Z" fill="#99A537" fill-opacity="0.06"/>
</svg>
