<svg width="46" height="46" viewBox="0 0 46 46" fill="none" xmlns="http://www.w3.org/2000/svg">
<path d="M24.2842 16.3492C23.8625 16.3108 23.4217 16.2917 23 16.2917C22.7317 16.2917 22.4825 16.2917 22.2142 16.3108C18.975 16.4642 15.9658 17.5758 13.4933 19.3583L4.00584 2.1275C3.77584 1.68667 3.77584 1.15 4.02501 0.709167C4.29334 0.268333 4.75334 0 5.27084 0H13.8958C14.4133 0 14.8733 0.268333 15.1417 0.709167L23.2108 14.5092L24.2842 16.3492Z" fill="#99A537"/>
<path d="M41.9942 2.1275L32.5067 19.3583C31.165 18.3808 29.67 17.6142 28.06 17.0967L24.84 11.5767L30.8392 0.7475C31.1075 0.2875 31.5867 0 32.1042 0H40.7292C41.2467 0 41.7067 0.268333 41.975 0.709167C42.2242 1.15 42.2242 1.68667 41.9942 2.1275Z" fill="#99A537"/>
<path d="M23 19.166C15.6017 19.166 9.58334 25.1843 9.58334 32.5827C9.58334 39.981 15.6017 45.9993 23 45.9993C30.3983 45.9993 36.4167 39.981 36.4167 32.5827C36.4167 25.1843 30.3983 19.166 23 19.166ZM30.2584 32.1169L27.6498 34.7907L28.2689 38.5818C28.3571 39.1243 28.129 39.6705 27.6767 39.9887C27.4313 40.1612 27.14 40.2493 26.8506 40.2493C26.611 40.2493 26.3714 40.1899 26.1548 40.0692L23 38.3269L19.8452 40.0711C19.3641 40.3375 18.7699 40.3069 18.3214 39.9887C17.871 39.6705 17.6429 39.1243 17.7292 38.5818L18.3483 34.7907L15.7397 32.1169C15.364 31.7317 15.2337 31.1663 15.4062 30.6564C15.5768 30.1447 16.0176 29.7748 16.5523 29.6923L20.1001 29.1499L21.6986 25.744C22.1701 24.7339 23.828 24.7339 24.2995 25.744L25.898 29.1499L29.4458 29.6923C29.9786 29.7728 30.4213 30.1447 30.5919 30.6564C30.7644 31.1663 30.6341 31.7317 30.2584 32.1169Z" fill="#99A537"/>
</svg>
