<svg width="46" height="46" viewBox="0 0 46 46" fill="none" xmlns="http://www.w3.org/2000/svg">
<path d="M44.3435 38.8008L39.0683 27.4883C36.1554 31.7295 31.6075 34.7496 26.3429 35.6654L30.7589 45.135C31.3235 46.3468 33.0708 46.2659 33.5255 45.0146L35.7889 38.797L36.2554 38.5795L42.473 40.8429C43.7207 41.3008 44.9074 40.0077 44.3435 38.8008Z" fill="#99A537"/>
<path d="M23.0001 0C13.9092 0 6.51233 7.39639 6.51233 16.4878C6.51233 25.5791 13.9093 32.9755 23.0001 32.9755C32.091 32.9755 39.4879 25.5791 39.4879 16.4878C39.4879 7.39639 32.0911 0 23.0001 0ZM31.0226 15.2763L28.099 18.1263L28.7899 22.1517C29.0011 23.3807 27.7062 24.304 26.6147 23.7316L23.0002 21.8316L19.3857 23.7315C18.2879 24.3079 17.0004 23.3738 17.2105 22.1516L17.9014 18.1262L14.9778 15.2762C14.0892 14.4099 14.5824 12.8978 15.8084 12.7196L19.8493 12.1327L21.6566 8.47128C22.2035 7.35937 23.7966 7.35838 24.3441 8.47128L26.1514 12.1327L30.1923 12.7196C31.4181 12.8977 31.9112 14.4099 31.0226 15.2763Z" fill="#99A537"/>
<path d="M6.93198 27.4883L1.65671 38.8008C1.09025 40.0134 2.28768 41.2993 3.52735 40.8427L9.74489 38.5792L10.2114 38.7967L12.4748 45.0144C12.9286 46.2631 14.6756 46.3492 15.2414 45.1349L19.6574 35.6653C14.3928 34.7496 9.84489 31.7296 6.93198 27.4883Z" fill="#99A537"/>
</svg>
