<svg width="46" height="46" viewBox="0 0 46 46" fill="none" xmlns="http://www.w3.org/2000/svg">
<path d="M40.032 24.6142C43.3228 24.6142 46.0001 21.9369 46.0001 18.6461V16.3415C46.0001 15.5964 45.396 14.9923 44.6508 14.9923C42.1866 14.9906 40.3754 14.7611 38.4015 16.4876L37.9251 14.1781L38.9047 13.9337C42.0977 13.1368 44.0469 9.89097 43.2502 6.69803L42.6922 4.46221C42.5117 3.73921 41.7794 3.29973 41.0564 3.4798L38.8206 4.03784C35.692 4.75031 33.634 8.17703 34.4751 11.2734L35.0263 13.482C35.9417 18.2814 37.5188 22.1341 34.967 26.8294C33.6847 29.2075 31.6036 31.0869 29.1075 32.1212L25.4264 33.6462C24.9162 33.8584 24.5146 34.4281 24.6046 35.0641C24.9251 37.6322 24.945 39.5593 27.1675 41.3137C28.4275 42.291 30.012 42.7144 31.5755 42.5111L33.8613 42.2183C34.5543 42.1295 35.0567 41.5299 35.0387 40.8463C35.0376 40.8007 35.034 40.7548 35.0281 40.7086C34.7075 38.1405 34.6877 36.2134 32.4651 34.4592C32.1928 34.2487 31.9065 34.0638 31.6087 33.9055C32.2303 33.5609 32.824 33.1707 33.3864 32.7405L34.9715 33.7178C36.3308 34.5577 37.943 34.811 39.4811 34.4446C42.2278 33.7645 43.0449 32.0115 44.3931 29.8081C44.6376 29.4117 44.6522 28.9383 44.4739 28.5435C44.367 28.3067 44.1906 28.0981 43.9528 27.9515C42.0392 26.7837 40.6674 25.6487 38.3101 25.8822C38.4512 25.4647 38.5735 25.0416 38.6758 24.6141H40.032V24.6142Z" fill="#99A537"/>
<path d="M21.4038 34.8259C21.3825 34.3687 21.0949 33.8551 20.5737 33.6464L16.8926 32.1213C14.3964 31.087 12.3155 29.2077 11.0331 26.8295C8.48004 22.1319 10.0601 18.2762 10.9738 13.4822C11.6086 10.9819 12.2773 9.18811 10.8509 6.75575C10.0301 5.38918 8.72632 4.42396 7.17968 4.03791L4.94377 3.47987C4.71782 3.42357 4.49097 3.42771 4.28032 3.48221C3.81691 3.60202 3.43203 3.96523 3.30799 4.46219L2.74996 6.6981C1.95311 9.89095 3.90245 13.1369 7.09531 13.9337L8.07501 14.1782L7.59856 16.4878C6.54591 15.5583 5.16504 14.9926 3.65366 14.9926H1.34921C0.604086 14.9926 0 15.5967 0 16.3418V18.6463C0 21.9371 2.67728 24.6144 5.96809 24.6144H7.32413C7.43351 25.0713 7.56564 25.5231 7.71927 25.9683C5.38514 25.7549 4.0192 26.8892 2.12707 28.0419C1.50437 28.4204 1.28993 29.26 1.6866 29.8984C1.68669 29.8985 1.68687 29.8987 1.68705 29.899C3.03788 32.1062 3.85073 33.8532 6.59871 34.5349C8.13672 34.9016 9.74911 34.6478 11.1083 33.8082L12.715 32.8176C13.2473 33.2174 13.807 33.5818 14.3914 33.9058C14.0937 34.0642 13.8072 34.2489 13.535 34.4594C11.3131 36.2117 11.2916 38.1455 10.972 40.7089C10.9661 40.7551 10.9626 40.801 10.9614 40.8466C10.9435 41.5302 11.446 42.1297 12.1388 42.2185C12.7257 42.281 14.64 42.5781 15.1952 42.5608C16.508 42.5608 17.7769 42.1298 18.8326 41.3139C21.0548 39.5606 21.0756 37.6298 21.3956 35.0644C21.3983 35.004 21.4097 34.9722 21.4038 34.8259Z" fill="#99A537"/>
<path d="M28.1602 27.6134C28.4083 27.6134 28.6553 27.5364 28.8641 27.3847C29.2407 27.111 29.4246 26.6439 29.3356 26.187L28.4226 21.5006C28.3711 21.2366 28.4594 20.9648 28.6562 20.7815L32.1495 17.527C32.4902 17.2097 32.6159 16.7236 32.4721 16.2809C32.3283 15.8381 31.9409 15.5189 31.4787 15.4624L26.7396 14.8826C26.4726 14.8499 26.2413 14.6819 26.1278 14.4382L24.1241 10.1359C23.699 9.19379 22.3739 9.18273 21.9412 10.1101L19.9254 14.4382C19.8119 14.6819 19.5807 14.8499 19.3137 14.8826L14.5746 15.4624C13.5619 15.584 13.1591 16.8542 13.9245 17.5463L17.397 20.7815C17.5938 20.9648 17.6821 21.2366 17.6307 21.5006L16.7176 26.187C16.6286 26.6439 16.8125 27.111 17.1891 27.3847C17.5658 27.6583 18.0669 27.6889 18.4739 27.463L22.6487 25.1464C22.8838 25.0159 23.1696 25.0159 23.4049 25.1464L27.5797 27.463C27.7606 27.5636 27.9608 27.6134 28.1602 27.6134Z" fill="#99A537"/>
</svg>
