<svg width="33" height="33" viewBox="0 0 33 33" fill="none" xmlns="http://www.w3.org/2000/svg">
<path d="M26.1466 28.5315C26.147 28.5145 26.147 28.4975 26.147 28.4806C26.147 25.9789 24.1106 23.9434 21.6078 23.9434C20.8317 23.9434 20.0851 24.1358 19.4186 24.5043C18.619 22.9257 17.2561 21.8331 15.6648 21.3595C15.7848 20.5779 15.9394 19.7615 16.1382 18.9206C16.1531 18.8668 16.1739 18.784 16.1953 18.6687C16.8264 16.1014 17.8763 13.3492 19.5883 10.8444C20.4642 11.737 21.6213 12.2571 22.8718 12.3051C22.9356 12.3077 22.9993 12.3088 23.0631 12.3088C24.2991 12.3088 25.4719 11.8456 26.3837 10.9929C29.7754 7.82047 29.8075 1.75506 29.807 1.49844C29.8066 1.25353 29.6185 1.05011 29.3745 1.03062C29.1214 1.01067 23.1264 0.576101 19.7324 3.75018C17.9582 5.41009 17.6859 8.09864 18.9716 10.0762C17.6504 11.9532 16.6982 13.9686 16.0151 15.9537C15.7109 14.8632 15.0804 13.5491 13.8442 12.1266C14.7623 10.3317 14.5317 8.07221 13.0966 6.50644C9.96679 3.09225 3.99381 3.04684 3.69431 3.04684C3.69293 3.04684 3.69201 3.04684 3.6911 3.04684C3.44572 3.04707 3.24208 3.23581 3.22327 3.48027C3.20355 3.73596 2.77334 9.78578 5.91325 13.2119C6.80211 14.1812 8.01157 14.7426 9.31918 14.7929C9.38294 14.7954 9.44623 14.7965 9.50952 14.7965C10.746 14.7965 11.9188 14.3331 12.8301 13.4804C13.0033 13.3185 13.1568 13.1438 13.3014 12.9639C15.5786 15.7329 15.3688 17.9568 15.2597 18.5436C15.0414 19.4452 14.8716 20.3237 14.7414 21.161C13.6869 21.0133 12.567 21.1196 11.4625 21.5281C9.18021 22.3725 7.65153 24.5403 7.55247 27.0399C5.49863 27.3149 3.8131 28.9133 3.46085 30.9887C3.41866 31.2405 3.48883 31.4971 3.65395 31.6927C3.81906 31.8881 4.06031 32 4.31532 32H28.5233C28.8242 32 29.098 31.8473 29.2558 31.5916C29.4163 31.332 29.4296 31.0134 29.2924 30.7396C28.6733 29.5029 27.4945 28.6863 26.1466 28.5315ZM12.1885 12.7943C11.4148 13.5185 10.4158 13.898 9.35496 13.8542C8.30006 13.8139 7.3236 13.3603 6.60581 12.5771C4.20845 9.96121 4.10801 5.43687 4.14103 4.00221C5.5633 4.07972 10.0108 4.53012 12.4041 7.14121C13.4866 8.32209 13.7238 9.99005 13.1528 11.3884C12.1114 10.3439 10.7391 9.25527 8.92108 8.16445C8.69817 8.03053 8.40968 8.10299 8.27667 8.32544C8.14321 8.54788 8.21521 8.83638 8.43766 8.96984C10.303 10.0891 11.6668 11.2012 12.6674 12.2527C12.5258 12.4439 12.368 12.6264 12.1885 12.7943ZM20.374 4.43632C22.7636 2.20155 26.7625 1.94402 28.4783 1.94402C28.6187 1.94402 28.7444 1.94563 28.8521 1.94815C28.776 3.38051 28.332 7.88445 25.742 10.3068C24.9674 11.031 23.9684 11.4115 22.9076 11.3665C21.8532 11.3259 20.8767 10.8723 20.1594 10.0894C20.1536 10.0831 20.1489 10.0762 20.1432 10.0699C21.4625 8.32747 23.1298 6.7331 25.2435 5.44696C25.465 5.31211 25.5356 5.02316 25.4008 4.80141C25.266 4.58057 24.9779 4.50948 24.7555 4.64432C22.6285 5.93857 20.9324 7.5251 19.5781 9.25796C18.7489 7.69236 19.0259 5.69778 20.374 4.43632ZM4.40246 31.0607C4.73957 29.3146 6.25449 28.0079 8.03726 27.9403C8.29456 27.9304 8.49499 27.6843 8.48765 27.4266C8.42206 25.1803 9.74848 23.1639 11.7881 22.4092C15.0638 21.1977 17.8335 23.029 18.7797 25.3663C18.8339 25.5005 18.9471 25.6021 19.0861 25.6417C19.2255 25.6819 19.3751 25.655 19.492 25.5695C20.1075 25.1203 20.8395 24.8827 21.6078 24.8827C23.5928 24.8827 25.2077 26.4967 25.2077 28.4806C25.2077 28.6282 25.199 28.7739 25.1811 28.916C25.1641 29.0497 25.2059 29.1841 25.2949 29.285C25.3843 29.3862 25.5123 29.4439 25.6471 29.4439H25.6774C26.8217 29.4439 27.8546 30.0604 28.4004 31.0607H4.40246Z" fill="#99A537"/>
<path d="M11.4625 24.6423C10.3122 25.0679 9.5641 26.1982 9.60079 27.4549C9.60859 27.7095 9.81728 27.9108 10.07 27.9108C10.075 27.9108 10.0796 27.9108 10.0842 27.9106C10.3433 27.903 10.5474 27.6868 10.5401 27.4274C10.5149 26.5741 11.0166 25.8089 11.7881 25.5233C12.0316 25.4332 12.1559 25.1631 12.0656 24.9198C11.9752 24.6764 11.7055 24.5531 11.4625 24.6423Z" fill="#99A537"/>
<path d="M21.6078 25.9766C21.3482 25.9766 21.1381 26.1869 21.1381 26.4462C21.1381 26.7056 21.3482 26.9159 21.6078 26.9159C22.471 26.9159 23.1731 27.6174 23.1731 28.4799C23.1731 28.7392 23.3832 28.9495 23.6428 28.9495C23.9024 28.9495 24.1125 28.7392 24.1125 28.4799C24.1125 27.0996 22.9888 25.9766 21.6078 25.9766Z" fill="#99A537"/>
</svg>
