<svg width="33" height="33" viewBox="0 0 33 33" fill="none" xmlns="http://www.w3.org/2000/svg">
<g clip-path="url(#clip0_293_8224)">
<path d="M10.45 24.2012C8.93197 24.203 7.70182 25.4331 7.7 26.9512V28.0512C7.7 29.57 8.93121 30.8012 10.45 30.8012C11.9688 30.8012 13.2 29.57 13.2 28.0512V26.9512C13.1982 25.4331 11.968 24.203 10.45 24.2012ZM12.1 28.0512C12.1 28.9624 11.3613 29.7012 10.45 29.7012C9.53873 29.7012 8.8 28.9624 8.8 28.0512V26.9512C8.8 26.0399 9.53873 25.3012 10.45 25.3012C11.3613 25.3012 12.1 26.0399 12.1 26.9512V28.0512Z" fill="#99A537"/>
<path d="M22.55 24.2012C21.032 24.203 19.8018 25.4331 19.8 26.9512V28.0512C19.8 29.57 21.0312 30.8012 22.55 30.8012C24.0688 30.8012 25.3 29.57 25.3 28.0512V26.9512C25.2982 25.4331 24.068 24.203 22.55 24.2012ZM24.2 28.0512C24.2 28.9624 23.4613 29.7012 22.55 29.7012C21.6387 29.7012 20.9 28.9624 20.9 28.0512V26.9512C20.9 26.0399 21.6387 25.3012 22.55 25.3012C23.4613 25.3012 24.2 26.0399 24.2 26.9512V28.0512Z" fill="#99A537"/>
<path d="M22.8607 22.0129C21.9496 21.9553 21.0405 22.153 20.2356 22.5838C19.8487 21.6282 19.3771 20.7092 18.8265 19.8376C18.8982 19.809 18.9735 19.7905 19.0503 19.7826C21.505 19.4642 26.3824 15.6208 26.95 9.40026C27.5033 3.28921 26.4077 0.463857 26.3609 0.346157C26.2806 0.144756 26.0894 0.00937557 25.8727 0.000466807C25.656 -0.00844196 25.4544 0.110784 25.3577 0.304907L17.3464 16.3281C17.2363 16.5463 17.0806 16.7383 16.8899 16.8913C16.8239 16.9413 16.7453 17.0051 16.6699 17.0678C16.6149 17.0634 16.5599 17.0508 16.5049 17.0508C16.4499 17.0508 16.3949 17.0634 16.3399 17.0678C16.2613 17.004 16.1865 16.9446 16.126 16.899C15.9325 16.7453 15.7742 16.552 15.6618 16.3319L7.64499 0.304907C7.54633 0.111219 7.34411 -0.0074918 7.12689 0.00075726C6.91058 0.00967092 6.71961 0.144659 6.63904 0.345607C6.59229 0.463857 5.49669 3.28921 6.04999 9.40026C6.61759 15.6208 11.495 19.4642 13.9606 19.781C14.0338 19.7891 14.1055 19.8077 14.1735 19.836C13.6245 20.707 13.1516 21.6238 12.76 22.5761C11.9568 22.1492 11.0507 21.9542 10.1431 22.0129C7.49309 22.2212 5.46077 24.4524 5.49999 27.1103V27.9023C5.46343 30.5498 7.48427 32.7731 10.1233 32.9887C10.2333 32.996 10.3433 32.9997 10.4533 32.9997C11.7104 33.003 12.9208 32.5236 13.8347 31.6604C14.831 30.7239 15.3973 29.4181 15.4 28.0508V27.0938C15.3864 25.5049 15.7642 23.9371 16.5 22.5288C17.2358 23.9371 17.6136 25.5049 17.6 27.0938V28.0508C17.6024 29.418 18.1683 30.7237 19.1642 31.6604C20.0778 32.5242 21.2883 33.004 22.5456 33.0008C22.6556 33.0008 22.7656 32.9969 22.8756 32.9898C25.5155 32.7747 27.5371 30.5506 27.5 27.9023V27.1103C27.5394 24.4537 25.5092 22.2231 22.8607 22.0129ZM16.5 20.3508C15.8925 20.3508 15.4 19.8583 15.4 19.2508C15.4 18.6432 15.8925 18.1508 16.5 18.1508C17.1075 18.1508 17.6 18.6432 17.6 19.2508C17.6 19.8583 17.1075 20.3508 16.5 20.3508ZM18.3287 16.8236L25.6795 2.12101C26.0582 4.49593 26.1156 6.91103 25.85 9.30126C25.3445 14.8629 20.999 18.4203 18.92 18.6876C18.8235 18.6981 18.728 18.7165 18.6345 18.7426C18.5157 18.2475 18.2285 17.8091 17.8222 17.5023C18.024 17.3026 18.1947 17.0739 18.3287 16.8236ZM7.14999 9.30126C6.8844 6.91103 6.94174 4.49593 7.32049 2.12101L14.6734 16.8275C14.8066 17.077 14.9764 17.3052 15.1772 17.5045C14.7708 17.8107 14.4836 18.2488 14.3649 18.7437C14.2749 18.7177 14.1829 18.6993 14.0899 18.6887C11.9988 18.4203 7.65324 14.8629 7.14999 9.30126ZM14.3 27.0938V28.0508C14.2996 29.1161 13.8578 30.1337 13.0797 30.8614C12.3016 31.5891 11.2567 31.9618 10.1937 31.8909C8.13327 31.7133 6.56256 29.97 6.59999 27.9023V27.1103C6.56035 25.0334 8.14067 23.2829 10.2107 23.1107C10.9167 23.067 11.6209 23.2192 12.2457 23.5507C12.5284 23.6975 12.86 23.7175 13.1582 23.6057C13.4476 23.4951 13.6763 23.2667 13.7874 22.9776C14.0994 22.2078 14.4732 21.4645 14.905 20.755C15.1303 20.9942 15.4064 21.1799 15.7129 21.2984C15.7553 21.3534 15.7976 21.415 15.84 21.4739C15.7877 21.5586 15.7377 21.6345 15.6843 21.7252C14.7602 23.3624 14.2828 25.2138 14.3 27.0938ZM26.4 27.9023C26.4374 29.97 24.8667 31.7133 22.8063 31.8909C21.7433 31.9618 20.6984 31.5891 19.9203 30.8614C19.1422 30.1337 18.7004 29.1161 18.7 28.0508V27.0938C18.7173 25.2141 18.2401 23.3628 17.3162 21.7258C17.2414 21.5976 17.1655 21.4816 17.0907 21.3622C17.4751 21.2562 17.8232 21.0469 18.0972 20.7572C18.527 21.4682 18.8991 22.2125 19.2098 22.9831C19.3209 23.2722 19.5497 23.5006 19.839 23.6112C20.139 23.7228 20.4723 23.7011 20.7553 23.5518C21.3802 23.2206 22.0844 23.0683 22.7903 23.1118C24.8595 23.2845 26.4391 25.0342 26.4 27.1103V27.9023Z" fill="#99A537"/>
</g>
<defs>
<clipPath id="clip0_293_8224">
<rect width="33" height="33" fill="white"/>
</clipPath>
</defs>
</svg>
