<svg width="33" height="33" viewBox="0 0 33 33" fill="none" xmlns="http://www.w3.org/2000/svg">
<g clip-path="url(#clip0_293_8211)">
<path d="M0.00253296 29.1498C0.0049818 31.2748 1.72697 32.9968 3.85192 32.9992H18.6996C20.8246 32.9968 22.5466 31.2748 22.549 29.1498C22.549 28.5424 22.0566 28.05 21.4492 28.05H18.8673C19.3131 27.7383 19.7151 27.3684 20.0628 26.9501H21.4492C23.5741 26.9477 25.2962 25.2257 25.2985 23.1008C25.2967 21.583 24.0668 20.353 22.5489 20.3512H21.4491V18.7014C21.4491 18.094 20.9567 17.6016 20.3492 17.6016H2.20204C1.5946 17.6016 1.10219 18.094 1.10219 18.7014V23.1008C1.10432 25.0734 2.06916 26.9209 3.68681 28.05H1.10238C0.494943 28.05 0.00253296 28.5424 0.00253296 29.1498ZM24.1988 23.1008C24.1961 24.6182 22.9667 25.8476 21.4492 25.8504H20.7817C21.2199 25 21.4487 24.0574 21.4492 23.1008V21.451H22.5491C23.4602 21.451 24.1988 22.1896 24.1988 23.1008ZM2.20224 23.1008V21.451H4.95183C5.25555 21.451 5.50173 21.2048 5.50173 20.9011C5.50173 20.5975 5.25555 20.3512 4.95183 20.3512H2.20224V18.7015H20.3494V20.3512H7.15147C6.84775 20.3512 6.60158 20.5974 6.60158 20.9011C6.60158 21.2048 6.84782 21.451 7.15147 21.451H20.3494V23.1008C20.3461 25.8328 18.1322 28.0466 15.4002 28.05H7.15147C4.41947 28.0466 2.20559 25.8328 2.20224 23.1008ZM15.4002 29.1498H21.4493C21.4475 30.6676 20.2175 31.8976 18.6997 31.8994H3.85198C2.33428 31.8973 1.10451 30.6675 1.10238 29.1498H15.4002Z" fill="#99A537"/>
<path d="M31.8976 11.0034H21.4492V9.27057C21.4492 9.20844 21.4591 9.15676 21.4613 9.09676C21.9932 9.36942 22.5832 9.5092 23.1809 9.50424C24.6127 9.45719 25.9688 8.8502 26.9578 7.81383C28.9247 5.99647 29.6482 3.19731 28.8082 0.654512C28.7528 0.512673 28.6405 0.400413 28.4987 0.344927C25.9558 -0.495025 23.1566 0.228414 21.3393 2.19541C21.1835 2.35362 21.0365 2.52053 20.8994 2.6953C20.7617 2.52259 20.6149 2.35736 20.4594 2.20038C18.6443 0.229058 15.8423 -0.495734 13.299 0.348278C13.1577 0.40415 13.0458 0.516024 12.9899 0.657348C12.1481 3.19931 12.8719 5.99866 14.8404 7.81396C15.705 8.7054 16.8404 9.28545 18.0695 9.4637C18.2553 9.48697 18.4425 9.49876 18.6298 9.49889C19.2217 9.5052 19.8065 9.36884 20.3345 9.10127C20.3345 9.16011 20.3467 9.21128 20.3467 9.27121L20.3494 11.0034H9.901C9.29356 11.0034 8.80115 11.4959 8.80115 12.1033V13.753C8.80115 14.3605 9.29356 14.8529 9.901 14.8529H9.99283L10.2128 16.0517C10.2721 16.3457 10.5559 16.5379 10.8508 16.4839C11.1458 16.4299 11.3431 16.1496 11.2945 15.8538L11.1108 14.8529H30.6878L27.6715 31.4488C27.624 31.7103 27.3962 31.9003 27.1304 31.9003H23.0935C22.7898 31.9003 22.5436 32.1465 22.5436 32.4502C22.5436 32.7539 22.7898 33.0001 23.0935 33.0001H27.1304C27.9277 33.0002 28.611 32.4301 28.7537 31.6456L31.8068 14.8529H31.8976C32.505 14.8529 32.9974 14.3605 32.9974 13.753V12.1033C32.9974 11.4958 32.505 11.0034 31.8976 11.0034ZM22.1158 2.9746C23.5716 1.39348 25.782 0.746215 27.8607 1.29244C28.4069 3.37118 27.7597 5.58158 26.1786 7.03742C24.795 8.42043 22.8302 8.79717 21.6555 7.91726C22.0542 6.78499 23.0265 6.0921 24.5634 5.32387C24.7392 5.23597 24.8547 5.06094 24.8664 4.86478C24.8781 4.66861 24.7843 4.48108 24.6203 4.37288C24.4563 4.26462 24.247 4.25212 24.0712 4.34008C23.3765 4.66752 22.7184 5.06771 22.108 5.53396C22.0375 4.88624 21.8457 4.25753 21.5427 3.68076C21.7112 3.42782 21.903 3.19145 22.1158 2.9746ZM18.2048 8.37204C17.2197 8.2242 16.3112 7.75525 15.6201 7.03793C14.0373 5.58403 13.3894 3.37343 13.9368 1.29514C16.0144 0.746795 18.2249 1.39322 19.6796 2.9746C19.9769 3.27303 20.2356 3.60762 20.4495 3.9705L20.455 3.98094C21.0211 4.8497 21.1759 5.92364 20.8784 6.91691C20.1899 5.68456 18.9664 4.96415 17.7198 4.34053C17.544 4.25263 17.3347 4.26513 17.1707 4.37333C17.0067 4.4816 16.9129 4.66906 16.9246 4.86523C16.9363 5.0614 17.0518 5.23636 17.2275 5.32432C18.7673 6.09423 19.7412 6.78821 20.1388 7.92486C19.5776 8.32158 18.8831 8.4821 18.2048 8.37204ZM31.3477 13.7529H9.901V12.1032H31.8976V13.7529H31.3477Z" fill="#99A537"/>
</g>
<defs>
<clipPath id="clip0_293_8211">
<rect width="33" height="33" fill="white"/>
</clipPath>
</defs>
</svg>
