<svg width="33" height="33" viewBox="0 0 33 33" fill="none" xmlns="http://www.w3.org/2000/svg">
<g clip-path="url(#clip0_293_8198)">
<path d="M28.3201 14.3053C28.0908 14.1206 27.7567 14.1492 27.5622 14.3703C27.3676 14.5913 27.3817 14.9263 27.5941 15.1303L28.875 16.2572L27.6535 17.4782C27.5105 17.6163 27.4531 17.8208 27.5035 18.0131C27.5538 18.2054 27.704 18.3556 27.8963 18.4059C28.0886 18.4562 28.2931 18.3989 28.4312 18.2559L29.6533 17.0344C29.8681 16.8193 29.9843 16.525 29.9744 16.2212C29.9645 15.9173 29.8294 15.6312 29.601 15.4306L28.3201 14.3053Z" fill="#99A537"/>
<path d="M0.825012 27.5004C0.825012 27.8042 1.07126 28.0504 1.37501 28.0504C1.67877 28.0504 1.92501 27.8042 1.92501 27.5004V22.0004C1.92867 20.0888 3.33323 18.4689 5.22501 18.1944V19.3054C3.94548 19.5686 3.02666 20.6941 3.02501 22.0004V29.7004C3.02501 30.0042 3.27126 30.2504 3.57501 30.2504C3.87877 30.2504 4.12501 30.0042 4.12501 29.7004V22.0004C4.12706 21.2997 4.57244 20.6771 5.23491 20.4489C5.28684 21.3177 6.00467 21.9968 6.87501 22.0004H7.97501C8.83639 21.9964 9.54975 21.3305 9.61291 20.4714L20.3269 23.448L20.8219 24.0107C21.4249 24.6947 22.2833 25.0999 23.1946 25.1305H23.2997C24.1749 25.1295 25.0141 24.782 25.6339 24.1641L31.2081 18.5904C31.8571 17.9484 32.2078 17.064 32.175 16.1517C32.1502 15.4379 31.895 14.7514 31.4474 14.1948C31.3852 10.7414 30.7098 0.482222 24.8793 0.0240719C22.88 -0.127728 21.285 0.385422 20.1267 1.54042C19.0782 2.67148 18.4791 4.14667 18.4421 5.68852L11.8685 12.2654C11.458 12.6755 11.4366 13.3338 11.8195 13.7697L13.6087 15.8047C13.6087 15.8047 13.6114 15.8107 13.6142 15.8129H13.6186L13.9992 16.2463L9.62501 16.815V16.5004C9.62501 15.5892 8.88628 14.8504 7.97501 14.8504H6.87501C5.96374 14.8504 5.22501 15.5892 5.22501 16.5004V17.0829C2.72156 17.3653 0.828427 19.4811 0.825012 22.0004L0.825012 27.5004ZM30.4304 17.8133L24.8556 23.3881C24.4256 23.818 23.8368 24.0507 23.229 24.031C22.6213 24.0113 22.0488 23.7409 21.6475 23.2841L14.7582 15.445L22.4873 7.71582L28.2425 12.7731L30.327 14.6046C30.7837 15.006 31.0538 15.5786 31.0733 16.1864C31.0928 16.7941 30.8599 17.3828 30.4299 17.8127L30.4304 17.8133ZM21.7525 5.60547C21.7945 4.96752 22.043 4.36057 22.4604 3.87627C23.0657 3.38342 23.8556 3.17862 24.6241 3.31527C26.1305 3.43352 27.4357 6.54652 27.94 11.0428L21.7525 5.60547ZM20.9039 2.31977C21.8251 1.39907 23.1314 0.995922 24.7951 1.12077C29.2468 1.47057 30.134 9.57042 30.3083 13.124L29.15 12.1043C28.9509 9.57427 28.0891 2.48312 24.711 2.21857C23.3877 2.11847 22.3691 2.41382 21.686 3.09857C21.2454 3.56431 20.938 4.13987 20.7961 4.76507C20.4972 4.51329 20.087 4.43954 19.7192 4.57147C19.8983 3.72581 20.3084 2.94638 20.9039 2.31977ZM20.0838 5.60327L21.6596 6.98817L14.0311 14.6167L12.6462 13.0409L20.0838 5.60327ZM14.8742 17.2429L18.9992 21.9377L9.62501 19.3329V17.9244L14.8742 17.2429ZM6.32501 16.5004C6.32501 16.1967 6.57126 15.9504 6.87501 15.9504H7.97501C8.27877 15.9504 8.52501 16.1967 8.52501 16.5004V20.3504C8.52501 20.6542 8.27877 20.9004 7.97501 20.9004H6.87501C6.57126 20.9004 6.32501 20.6542 6.32501 20.3504V16.5004Z" fill="#99A537"/>
<path d="M0.825012 32.4504C0.825012 32.7541 1.07126 33.0004 1.37501 33.0004C1.67877 33.0004 1.92501 32.7541 1.92501 32.4504V29.7004C1.92501 29.3966 1.67877 29.1504 1.37501 29.1504C1.07126 29.1504 0.825012 29.3966 0.825012 29.7004V32.4504Z" fill="#99A537"/>
</g>
<defs>
<clipPath id="clip0_293_8198">
<rect width="33" height="33" fill="white"/>
</clipPath>
</defs>
</svg>
