<svg width="45" height="45" viewBox="0 0 45 45" fill="none" xmlns="http://www.w3.org/2000/svg">
<path d="M42.7227 23.7679C41.5705 22.902 40.0023 22.9429 38.8977 23.8702L36.2932 26.0656C34.2136 22.6225 30.75 20.427 26.9659 20.1611L30.2318 17.4543C30.6614 17.5429 31.4591 17.6656 32.4 17.6656C33.7432 17.6656 35.3523 17.3997 36.5045 16.3634C38.8023 14.2906 38.2227 10.077 38.1955 9.89974C38.1614 9.64065 37.9636 9.42928 37.7114 9.3611C37.5341 9.31337 33.4023 8.29746 31.1045 10.3702C29.1614 12.1225 29.2773 15.3884 29.3727 16.4793L26.9659 18.477V11.7884C27.7705 11.1611 30.1159 9.10883 30.0545 6.62019C29.9864 3.68837 26.5977 1.49974 26.4545 1.4111C26.2295 1.26792 25.95 1.27474 25.7318 1.43155C25.5886 1.52701 22.3159 3.85883 22.3773 6.79746C22.4318 9.25201 24.7909 11.1747 25.6568 11.7952V15.5656L23.1818 14.2566C23.0386 13.2543 22.4455 10.3156 20.325 9.15655C17.8159 7.7861 14.3318 9.57928 14.1886 9.65428C13.9568 9.77701 13.8205 10.0293 13.8409 10.2884C13.8545 10.452 14.2295 14.3452 16.7318 15.7225C17.4273 16.1043 18.1909 16.2406 18.9477 16.2406C20.4614 16.2406 21.9 15.6816 22.5409 15.3952L25.6636 17.0247V20.1543C21.6205 20.3452 17.8773 22.752 15.7909 26.5497C14.4136 26.4134 13.0568 26.5225 11.7955 26.8906C10.2136 27.3475 8.82955 28.1452 7.67727 29.2566C7.29545 29.6247 6.83182 29.9793 6.21818 30.3611L1.97727 33.0202C1.11136 33.5656 0.804546 34.6975 1.26818 35.6043L4.89545 42.627C5.14091 43.0975 5.55 43.4452 6.05455 43.6088C6.25227 43.6702 6.45682 43.7043 6.65455 43.7043C6.96818 43.7043 7.28182 43.6293 7.56818 43.4793L12.3818 40.9702C13.2341 40.527 14.1818 40.3566 15.1364 40.4725L23.3727 41.4952C24.45 41.6316 25.5477 41.4679 26.5432 41.0384C31.7932 38.7406 37.2136 34.5816 43.1114 28.3225C43.7114 27.6884 44.0045 26.8293 43.9364 25.9566C43.8614 25.0906 43.4182 24.2929 42.7227 23.7679ZM17.3591 14.577C15.8795 13.7656 15.3614 11.5634 15.1977 10.6156C16.2614 10.1588 18.3273 9.55201 19.6977 10.2952C20.8568 10.9293 21.4227 12.4088 21.6955 13.4793L19.5614 12.3611C19.2409 12.1975 18.8523 12.3202 18.6818 12.6338C18.5182 12.9543 18.6409 13.3429 18.9545 13.5134L20.9932 14.577C19.95 14.9179 18.4705 15.1838 17.3591 14.577ZM31.9773 11.3316C33.3818 10.0634 35.9318 10.3497 36.9545 10.527C37.0295 11.5566 37.05 14.1134 35.6386 15.3884C34.5545 16.3634 32.8159 16.4247 31.5955 16.3225L33.2114 14.9793C33.4909 14.7475 33.525 14.3384 33.2932 14.0656C33.0614 13.7929 32.6523 13.752 32.3795 13.9838L30.6341 15.4293C30.6341 14.202 30.8386 12.3543 31.9773 11.3316ZM23.6864 6.75655C23.6455 5.00428 25.3636 3.38837 26.1273 2.7611C26.9182 3.35428 28.7114 4.88837 28.7523 6.64064C28.7795 7.98383 27.7773 9.24519 26.9659 10.0497V6.94064C26.9659 6.57928 26.6727 6.29292 26.3182 6.29292C25.9568 6.29292 25.6705 6.5861 25.6705 6.94064V10.1179C24.8114 9.35428 23.7205 8.12019 23.6864 6.75655ZM25.6636 21.4497V24.5179H23.7136C23.3523 24.5179 23.0659 24.8111 23.0659 25.1656C23.0659 25.527 23.3591 25.8134 23.7136 25.8134H28.9227C29.2841 25.8134 29.5705 25.5202 29.5705 25.1656C29.5705 24.8043 29.2773 24.5179 28.9227 24.5179H26.9727V21.4634C30.3614 21.7361 33.4636 23.7611 35.2909 26.9111L31.6977 29.9384C31.2409 28.9156 30.2114 28.1929 29.0182 28.1929H22.9909C22.3295 28.1929 21.6818 28.0975 21.0545 27.8997L18.1773 27.0134C17.8432 26.9111 17.5091 26.8293 17.1682 26.7543C19.0568 23.6247 22.2409 21.6338 25.6636 21.4497ZM42.1636 27.4293C36.3886 33.5588 31.1114 37.6156 26.025 39.8452C25.2409 40.1861 24.3886 40.3088 23.5364 40.2066L15.3 39.1838C14.0864 39.0338 12.8727 39.252 11.7818 39.8179L6.96818 42.327C6.80455 42.4088 6.62045 42.4225 6.45 42.3747C6.27955 42.3202 6.13636 42.1975 6.05455 42.0406L2.42727 35.0179C2.26364 34.7043 2.36591 34.3225 2.67273 34.1316L6.91364 31.4656C7.60227 31.0293 8.13409 30.627 8.58409 30.1906C9.57955 29.2293 10.7864 28.5338 12.1568 28.1384C12.9545 27.9066 13.7932 27.7906 14.6591 27.7906C15.6818 27.7906 16.7386 27.9543 17.7955 28.2747L20.6727 29.1611C21.4227 29.3929 22.2068 29.5088 22.9909 29.5088H29.0182C29.9182 29.5088 30.6477 30.2384 30.6477 31.1384V31.1452C30.6477 32.0452 29.9182 32.7679 29.0182 32.7679H17.2841C16.9227 32.7679 16.6364 33.0611 16.6364 33.4156C16.6364 33.7702 16.9295 34.0634 17.2841 34.0634H29.0182C30.525 34.0634 31.7727 32.9179 31.9295 31.452L39.7432 24.8725C40.3773 24.3406 41.2841 24.3134 41.9455 24.8111C42.3477 25.1111 42.6 25.5747 42.6409 26.0725C42.6818 26.577 42.5114 27.0611 42.1636 27.4293Z" fill="#99A537"/>
</svg>
