<svg width="45" height="45" viewBox="0 0 45 45" fill="none" xmlns="http://www.w3.org/2000/svg">
<path d="M35.6544 38.9062C35.655 38.883 35.655 38.8599 35.655 38.8368C35.655 35.4254 32.8781 32.6497 29.4651 32.6497C28.4069 32.6497 27.3887 32.9121 26.4799 33.4146C25.3895 31.262 23.531 29.772 21.361 29.1262C21.5248 28.0604 21.7355 26.9471 22.0067 25.8005C22.027 25.7271 22.0553 25.6141 22.0845 25.457C22.9451 21.9562 24.3767 18.2031 26.7112 14.7874C27.9058 16.0046 29.4836 16.7139 31.1888 16.7794C31.2758 16.7828 31.3627 16.7844 31.4496 16.7844C33.1352 16.7844 34.7344 16.1527 35.9777 14.99C40.6028 10.6639 40.6466 2.39291 40.646 2.04298C40.6453 1.709 40.3889 1.43162 40.0562 1.40504C39.7109 1.37783 31.5359 0.785237 26.9077 5.11353C24.4884 7.37704 24.1171 11.0432 25.8703 13.7399C24.0687 16.2994 22.7702 19.0477 21.8388 21.7546C21.4239 20.2676 20.5642 18.4757 18.8784 16.5359C20.1304 14.0884 19.8159 11.0072 17.859 8.87206C13.5911 4.21635 5.44608 4.15443 5.03768 4.15443C5.0358 4.15443 5.03455 4.15443 5.0333 4.15443C4.69869 4.15475 4.421 4.41211 4.39536 4.74546C4.36847 5.09414 3.78181 13.3439 8.06351 18.0159C9.2756 19.3377 10.9249 20.1032 12.708 20.1717C12.7949 20.1752 12.8812 20.1767 12.9675 20.1767C14.6537 20.1767 16.2529 19.5447 17.4956 18.382C17.7317 18.1613 17.9411 17.9231 18.1383 17.6777C21.2435 21.4536 20.9574 24.4861 20.8087 25.2864C20.511 26.5159 20.2795 27.7138 20.1019 28.8555C18.664 28.6541 17.1368 28.7991 15.6306 29.3562C12.5185 30.5076 10.4339 33.4637 10.2988 36.8723C7.49812 37.2472 5.19966 39.4269 4.71933 42.2569C4.66179 42.6003 4.75748 42.9502 4.98264 43.217C5.20779 43.4834 5.53677 43.636 5.88451 43.636H38.8954C39.3057 43.636 39.679 43.4277 39.8942 43.0791C40.1131 42.7251 40.1312 42.2907 39.9442 41.9173C39.0999 40.2309 37.4925 39.1173 35.6544 38.9062ZM16.6207 17.4464C15.5656 18.434 14.2034 18.9515 12.7567 18.8918C11.3183 18.8367 9.98671 18.2182 9.00791 17.1503C5.73878 13.5831 5.60182 7.41355 5.64685 5.45721C7.58631 5.5629 13.6511 6.17708 16.9146 9.73765C18.3907 11.3479 18.7143 13.6224 17.9356 15.5293C16.5155 14.1049 14.6442 12.6205 12.1651 11.133C11.8611 10.9504 11.4677 11.0492 11.2864 11.3525C11.1044 11.6559 11.2025 12.0492 11.5059 12.2312C14.0496 13.7575 15.9093 15.274 17.2737 16.7079C17.0806 16.9686 16.8655 17.2175 16.6207 17.4464ZM27.7827 6.04918C31.0412 3.00176 36.4943 2.65058 38.8341 2.65058C39.0255 2.65058 39.1968 2.65277 39.3438 2.65621C39.24 4.60943 38.6346 10.7512 35.1028 14.0544C34.0464 15.0419 32.6842 15.5607 31.2376 15.4994C29.7997 15.4441 28.4682 14.8255 27.49 13.7579C27.4821 13.7493 27.4758 13.7399 27.4679 13.7313C29.267 11.3553 31.5406 9.18114 34.4229 7.42731C34.725 7.24344 34.8213 6.84941 34.6374 6.54702C34.4536 6.24587 34.0608 6.14893 33.7575 6.33281C30.8571 8.0977 28.5441 10.2611 26.6974 12.6241C25.5666 10.4892 25.9443 7.76934 27.7827 6.04918ZM6.00334 42.3551C6.46303 39.9741 8.52883 38.1923 10.9599 38.1C11.3107 38.0866 11.5841 37.751 11.5741 37.3995C11.4846 34.3365 13.2934 31.5868 16.0747 30.5576C20.5415 28.9055 24.3185 31.4029 25.6087 34.5901C25.6825 34.773 25.837 34.9116 26.0265 34.9657C26.2166 35.0204 26.4205 34.9838 26.58 34.8672C27.4193 34.2545 28.4175 33.9306 29.4651 33.9306C32.172 33.9306 34.3741 36.1315 34.3741 38.8368C34.3741 39.0382 34.3623 39.2367 34.3379 39.4306C34.3147 39.6129 34.3716 39.7962 34.493 39.9338C34.6149 40.0717 34.7894 40.1505 34.9733 40.1505H35.0146C36.575 40.1505 37.9835 40.9911 38.7278 42.3551H6.00334Z" fill="#99A537"/>
<path d="M15.6306 33.602C14.062 34.1824 13.0419 35.7238 13.092 37.4375C13.1026 37.7846 13.3872 38.0592 13.7318 38.0592C13.7387 38.0592 13.7449 38.0592 13.7512 38.0589C14.1045 38.0485 14.3829 37.7536 14.3729 37.4C14.3385 36.2364 15.0227 35.1928 16.0747 34.8035C16.4068 34.6806 16.5762 34.3122 16.453 33.9804C16.3298 33.6486 15.9621 33.4804 15.6306 33.602Z" fill="#99A537"/>
<path d="M29.4651 35.4229C29.1112 35.4229 28.8247 35.7096 28.8247 36.0633C28.8247 36.417 29.1112 36.7037 29.4651 36.7037C30.6422 36.7037 31.5997 37.6603 31.5997 38.8365C31.5997 39.1901 31.8862 39.4769 32.2402 39.4769C32.5942 39.4769 32.8806 39.1901 32.8806 38.8365C32.8806 36.9542 31.3483 35.4229 29.4651 35.4229Z" fill="#99A537"/>
</svg>
