<svg width="43" height="41" viewBox="0 0 43 41" fill="none" xmlns="http://www.w3.org/2000/svg">
<path d="M41.7091 29.8136C41.5114 29.7045 41.2728 29.7045 41.0818 29.8205L37.2364 32.125C35.7091 33.0386 33.8137 33.0386 32.2932 32.125L31.2432 31.4977C29.3205 30.3455 26.9341 30.3455 25.0182 31.4977L23.975 32.125C23.1773 32.6023 22.2841 32.8273 21.3909 32.8068C20.6887 25.7636 21.3909 20.6023 22.6932 16.8318C22.7818 16.8864 22.8637 16.9409 22.9523 16.9886C24.0705 17.5886 25.25 17.8886 26.45 17.8886C27.6023 17.8886 28.7682 17.6091 29.9341 17.0568C32.1705 15.9932 33.9023 14.0773 34.8159 11.6705C35.2659 10.4909 35.8387 8.66364 36.0637 6.63182C36.1864 5.62954 36.7455 2.82727 37.8841 1.85909C38.075 1.70227 38.15 1.44318 38.075 1.21136C38.0068 0.972726 37.8023 0.802271 37.5568 0.76818C37.1477 0.713635 27.6978 -0.43182 22.3864 4.36136C20.1023 6.42045 19.0591 9.38636 19.5841 12.2841C19.8568 13.7977 20.5455 15.0591 21.5818 16.0068C21.0023 17.6364 20.525 19.5182 20.225 21.7C19.2159 21.7205 16.7068 21.55 13.9591 19.7636C14.0068 19.6955 14.0614 19.6341 14.1091 19.5591C15.2409 17.8273 15.4318 15.8295 14.6682 13.7909C13.9455 11.875 12.4932 10.3068 10.5705 9.38636C9.63639 8.93636 8.18411 8.33636 6.53411 8.01591C5.7432 7.85227 3.53411 7.21136 2.85229 6.25C2.70911 6.04545 2.46366 5.95 2.2182 6.00454C1.97957 6.05227 1.78866 6.24318 1.73411 6.48182C1.66593 6.80909 0.0636585 14.4591 3.61593 19.15C5.02048 20.9977 7.11366 22.0545 9.30911 22.0545C9.52729 22.0545 9.74548 22.0409 9.96366 22.0205C11.1841 21.9045 12.2409 21.4545 13.0932 20.7182C15.9841 22.6682 18.6841 22.9545 20.0137 22.9545H20.075C19.7887 25.7159 19.7682 28.9136 20.1159 32.6091C19.7341 32.4932 19.3659 32.3432 19.0182 32.1318L17.975 31.5045C16.0523 30.3523 13.6659 30.3523 11.7432 31.5045L10.7 32.1318C9.17275 33.0455 7.27729 33.0455 5.75002 32.1318L1.91139 29.8273C1.72729 29.7045 1.48866 29.7045 1.29093 29.8136C1.0932 29.9227 0.977295 30.1341 0.977295 30.3523V39.7614C0.977295 40.1023 1.25684 40.3818 1.59775 40.3818H41.4023C41.7432 40.3818 42.0227 40.1023 42.0227 39.7614V30.3523C42.0227 30.1341 41.9068 29.9227 41.7091 29.8136ZM20.8114 12.0591C20.3614 9.58409 21.2614 7.05454 23.225 5.28182C26.4568 2.36364 31.5841 1.86591 34.7 1.86591C35.2932 1.86591 35.8182 1.88636 36.2409 1.90682C35.1909 3.61818 34.8637 6.14091 34.8159 6.48864C34.6114 8.39773 34.0659 10.1159 33.6432 11.2273C32.8455 13.3341 31.3318 15.0045 29.3887 15.9318C27.3637 16.8932 25.3932 16.8795 23.5387 15.8841C23.3955 15.8091 23.2659 15.7205 23.1364 15.6386C26.0887 8.425 31.2227 6.97954 31.3114 6.95227C31.6455 6.87045 31.8432 6.52954 31.7614 6.19545C31.6796 5.86136 31.3387 5.66364 31.0046 5.74545C30.65 5.83409 25.2296 7.32045 22.0796 14.7386C21.4318 14.0295 21.0091 13.1295 20.8114 12.0591ZM9.84775 20.7795C7.8432 20.9636 5.88639 20.0773 4.61139 18.3932C2.15002 15.1409 2.4773 10.0682 2.77048 7.84545C4.10684 8.75909 6.00911 9.175 6.28184 9.23636C7.8023 9.53636 9.15911 10.0955 10.025 10.5114C11.6546 11.2955 12.8887 12.6182 13.4955 14.2341C14.1228 15.9114 13.9796 17.4795 13.0591 18.8841C13.025 18.9386 12.9841 18.9864 12.9432 19.0409C11.4841 17.8886 9.99775 16.2523 8.6682 13.9205C8.49775 13.6205 8.11593 13.5182 7.81593 13.6886C7.51593 13.8591 7.41366 14.2409 7.58411 14.5409C8.97502 16.9886 10.5296 18.7273 12.0568 19.9682C11.45 20.4182 10.7137 20.6977 9.84775 20.7795ZM40.7818 39.1409H2.2182V31.4568L5.10911 33.1955C7.03184 34.3477 9.4182 34.3477 11.3409 33.1955L12.3841 32.5682C13.9114 31.6545 15.8068 31.6545 17.3341 32.5682L18.3773 33.1955C19.1341 33.6455 19.9591 33.9182 20.8046 34.0136H20.8114H20.8182C22.1137 34.1568 23.4432 33.8909 24.6091 33.1955L25.6523 32.5682C27.1796 31.6545 29.075 31.6545 30.6023 32.5682L31.6523 33.1955C33.575 34.3477 35.9546 34.3477 37.8773 33.1955L40.7818 31.4568V39.1409Z" fill="#99A537"/>
<path d="M36.3023 37.9004C36.8181 37.9004 37.2363 37.4822 37.2363 36.9663C37.2363 36.4504 36.8181 36.0322 36.3023 36.0322C35.7864 36.0322 35.3682 36.4504 35.3682 36.9663C35.3682 37.4822 35.7864 37.9004 36.3023 37.9004Z" fill="#99A537"/>
<path d="M30.9841 37.9004C31.5 37.9004 31.9182 37.4822 31.9182 36.9663C31.9182 36.4504 31.5 36.0322 30.9841 36.0322C30.4683 36.0322 30.05 36.4504 30.05 36.9663C30.05 37.4822 30.4683 37.9004 30.9841 37.9004Z" fill="#99A537"/>
<path d="M26.5045 36.3662C27.0204 36.3662 27.4386 35.948 27.4386 35.4321C27.4386 34.9163 27.0204 34.498 26.5045 34.498C25.9886 34.498 25.5704 34.9163 25.5704 35.4321C25.5704 35.948 25.9886 36.3662 26.5045 36.3662Z" fill="#99A537"/>
<path d="M22.4681 38.5205C22.984 38.5205 23.4022 38.1023 23.4022 37.5864C23.4022 37.0706 22.984 36.6523 22.4681 36.6523C21.9523 36.6523 21.5341 37.0706 21.5341 37.5864C21.5341 38.1023 21.9523 38.5205 22.4681 38.5205Z" fill="#99A537"/>
<path d="M18.7387 36.9932C19.2545 36.9932 19.6727 36.575 19.6727 36.0591C19.6727 35.5432 19.2545 35.125 18.7387 35.125C18.2228 35.125 17.8046 35.5432 17.8046 36.0591C17.8046 36.575 18.2228 36.9932 18.7387 36.9932Z" fill="#99A537"/>
<path d="M13.8091 38.2344C14.325 38.2344 14.7432 37.8162 14.7432 37.3003C14.7432 36.7844 14.325 36.3662 13.8091 36.3662C13.2932 36.3662 12.875 36.7844 12.875 37.3003C12.875 37.8162 13.2932 38.2344 13.8091 38.2344Z" fill="#99A537"/>
<path d="M9.60914 36.9932C10.125 36.9932 10.5432 36.575 10.5432 36.0591C10.5432 35.5432 10.125 35.125 9.60914 35.125C9.09326 35.125 8.67505 35.5432 8.67505 36.0591C8.67505 36.575 9.09326 36.9932 9.60914 36.9932Z" fill="#99A537"/>
<path d="M6.07728 38.2344C6.59316 38.2344 7.01137 37.8162 7.01137 37.3003C7.01137 36.7844 6.59316 36.3662 6.07728 36.3662C5.5614 36.3662 5.14319 36.7844 5.14319 37.3003C5.14319 37.8162 5.5614 38.2344 6.07728 38.2344Z" fill="#99A537"/>
</svg>
