<svg width="46" height="46" viewBox="0 0 46 46" fill="none" xmlns="http://www.w3.org/2000/svg">
<path d="M23 24.4375C21.2941 24.4375 19.6266 23.9317 18.2082 22.9839C16.7898 22.0362 15.6843 20.6892 15.0315 19.1131C14.3787 17.5371 14.2079 15.8029 14.5407 14.1299C14.8735 12.4568 15.695 10.9199 16.9012 9.71371C18.1074 8.50748 19.6443 7.68603 21.3174 7.35323C22.9904 7.02043 24.7246 7.19124 26.3006 7.84404C27.8767 8.49685 29.2237 9.60234 30.1714 11.0207C31.1192 12.4391 31.625 14.1066 31.625 15.8125C31.625 18.1 30.7163 20.2938 29.0988 21.9113C27.4813 23.5288 25.2875 24.4375 23 24.4375ZM23 10.0625C21.8628 10.0625 20.7511 10.3997 19.8055 11.0316C18.8599 11.6634 18.1229 12.5614 17.6877 13.6121C17.2525 14.6627 17.1386 15.8189 17.3605 16.9343C17.5824 18.0497 18.13 19.0742 18.9341 19.8784C19.7383 20.6825 20.7628 21.2302 21.8782 21.452C22.9936 21.6739 24.1498 21.56 25.2004 21.1248C26.2511 20.6896 27.1491 19.9526 27.781 19.007C28.4128 18.0615 28.75 16.9497 28.75 15.8125C28.75 14.2875 28.1442 12.825 27.0659 11.7466C25.9875 10.6683 24.525 10.0625 23 10.0625Z" fill="#DDDDDD"/>
<path d="M23 44.5626C19.8123 44.5604 16.6647 43.8515 13.7838 42.4869C10.9029 41.1223 8.36042 39.1359 6.33939 36.6707L5.59189 35.7507L6.33939 34.8451C8.36212 32.3831 10.9053 30.4 13.7861 29.0384C16.6669 27.6769 19.8137 26.9707 23 26.9707C26.1864 26.9707 29.3331 27.6769 32.2139 29.0384C35.0947 30.4 37.6379 32.3831 39.6606 34.8451L40.4081 35.7507L39.6606 36.6707C37.6396 39.1359 35.0971 41.1223 32.2163 42.4869C29.3354 43.8515 26.1878 44.5604 23 44.5626ZM9.35814 35.7651C11.1065 37.6367 13.2209 39.129 15.5701 40.1493C17.9193 41.1695 20.4532 41.696 23.0144 41.696C25.5756 41.696 28.1095 41.1695 30.4587 40.1493C32.8079 39.129 34.9223 37.6367 36.6706 35.7651C34.9223 33.8934 32.8079 32.4011 30.4587 31.3809C28.1095 30.3606 25.5756 29.8341 23.0144 29.8341C20.4532 29.8341 17.9193 30.3606 15.5701 31.3809C13.2209 32.4011 11.1065 33.8934 9.35814 35.7651Z" fill="#DDDDDD"/>
<path d="M23 44.5625C18.1021 44.5658 13.349 42.9014 9.52299 39.8434C5.69702 36.7853 3.02616 32.5158 1.95002 27.7376C0.873884 22.9593 1.45659 17.9571 3.60222 13.5541C5.74786 9.15118 9.32858 5.60991 13.755 3.51317C18.1815 1.41643 23.1899 0.889176 27.9559 2.01818C32.7219 3.14718 36.9616 5.86515 39.9771 9.72477C42.9926 13.5844 44.6042 18.3556 44.5466 23.2532C44.4891 28.1508 42.7659 32.8829 39.6606 36.6706C37.6396 39.1358 35.0971 41.1222 32.2162 42.4869C29.3354 43.8515 26.1877 44.5604 23 44.5625ZM23 4.31252C19.304 4.31252 15.6909 5.40852 12.6178 7.46193C9.54465 9.51534 7.14942 12.4339 5.73501 15.8486C4.3206 19.2633 3.95052 23.0207 4.67158 26.6458C5.39264 30.2708 7.17246 33.6006 9.78595 36.2141C12.3994 38.8276 15.7292 40.6074 19.3543 41.3284C22.9793 42.0495 26.7367 41.6794 30.1514 40.265C33.5661 38.8506 36.4847 36.4554 38.5381 33.3822C40.5915 30.3091 41.6875 26.6961 41.6875 23C41.6875 18.0438 39.7187 13.2905 36.2141 9.78596C32.7095 6.28137 27.9562 4.31252 23 4.31252Z" fill="#DDDDDD"/>
<path d="M7.44626 35.7648C7.44626 35.7648 21.9219 51.9367 36.6563 37.3748L38.5538 35.7648C38.5538 35.7648 26.2488 22.9998 13.7569 30.6617L7.44626 35.7648Z" fill="#DDDDDD"/>
<path d="M23 23C26.9695 23 30.1875 19.782 30.1875 15.8125C30.1875 11.843 26.9695 8.625 23 8.625C19.0305 8.625 15.8125 11.843 15.8125 15.8125C15.8125 19.782 19.0305 23 23 23Z" fill="#DDDDDD"/>
</svg>
