<svg width="16" height="15" viewBox="0 0 16 15" fill="none" xmlns="http://www.w3.org/2000/svg">
<path d="M6.80841 14.014C6.8063 14.014 6.80384 14.014 6.80173 14.014C6.71454 14.0122 6.63228 13.9749 6.57322 13.9109L0.545324 7.35641C0.441964 7.24391 0.432474 7.07446 0.522824 6.95106C0.613184 6.82801 0.777714 6.78583 0.916224 6.85051L6.43329 9.4338C6.4797 9.4556 6.53454 9.445 6.57005 9.4081L14.9858 0.612391C15.0997 0.493211 15.286 0.480201 15.4154 0.582861C15.5447 0.685511 15.5746 0.869731 15.4843 1.0079L7.11286 13.8322C7.10091 13.8508 7.08685 13.8677 7.07138 13.8835L7.03446 13.9204C6.97435 13.9802 6.89278 14.014 6.80841 14.014Z" fill="#99A537"/>
</svg>
