<svg width="98" height="98" viewBox="0 0 98 98" fill="none" xmlns="http://www.w3.org/2000/svg">
<path d="M93.0406 51.763C90.5312 49.8772 87.1161 49.9663 84.7106 51.9857L79.0385 56.7669C74.5097 49.2684 66.9667 44.4872 58.7257 43.9081L65.8382 38.0133C66.7736 38.2063 68.5109 38.4736 70.56 38.4736C73.4851 38.4736 76.9894 37.8945 79.4988 35.6375C84.5027 31.1236 83.2406 21.9472 83.1812 21.5612C83.107 20.9969 82.6764 20.5366 82.127 20.3881C81.7409 20.2842 72.7427 18.0718 67.7388 22.5857C63.507 26.4018 63.7594 33.5142 63.9673 35.8899L58.7257 40.2406V25.6742C60.4779 24.3081 65.5858 19.8387 65.4521 14.419C65.3036 8.03419 57.9239 3.26783 57.6121 3.0748C57.1221 2.76298 56.5133 2.77783 56.0382 3.11934C55.7264 3.32722 48.5991 8.4054 48.7327 14.8051C48.8515 20.1506 53.9891 24.3378 55.8748 25.689V33.9003L50.4848 31.0493C50.173 28.8666 48.8812 22.4669 44.2633 19.9427C38.7991 16.9581 31.2115 20.8633 30.8997 21.0266C30.3948 21.2939 30.0979 21.8433 30.1424 22.4075C30.1721 22.7639 30.9888 31.2424 36.4382 34.2418C37.9527 35.0733 39.6158 35.3703 41.2639 35.3703C44.5603 35.3703 47.6933 34.1527 49.0891 33.529L55.8897 37.0778V43.8933C47.0845 44.309 38.9327 49.5506 34.3891 57.8212C31.3897 57.5242 28.4348 57.7618 25.6879 58.5636C22.243 59.5584 19.2288 61.2957 16.7194 63.716C15.8879 64.5178 14.8782 65.2899 13.5418 66.1215L4.30606 71.9124C2.4203 73.1003 1.75212 75.5651 2.76181 77.5399L10.6612 92.8339C11.1958 93.8584 12.0867 94.6157 13.1854 94.9721C13.6161 95.1057 14.0615 95.1799 14.4921 95.1799C15.1751 95.1799 15.8582 95.0166 16.4818 94.6899L26.9648 89.2257C28.8209 88.2606 30.8848 87.8893 32.9636 88.1418L50.9006 90.369C53.2467 90.666 55.6373 90.3096 57.8051 89.3742C69.2385 84.3702 81.043 75.3127 93.887 61.6818C95.1936 60.3009 95.8321 58.4299 95.6836 56.5293C95.5203 54.6436 94.5551 52.9063 93.0406 51.763ZM37.8042 31.7472C34.5821 29.9802 33.4536 25.1842 33.0973 23.1203C35.4136 22.1254 39.9127 20.8039 42.8973 22.4224C45.4215 23.8033 46.6539 27.0254 47.2479 29.3566L42.6003 26.9215C41.9024 26.5651 41.0561 26.8324 40.6848 27.5154C40.3285 28.2133 40.5957 29.0596 41.2788 29.4309L45.7185 31.7472C43.4467 32.4896 40.2245 33.0687 37.8042 31.7472ZM69.6394 24.6793C72.6982 21.9175 78.2515 22.5412 80.4788 22.9272C80.6421 25.1693 80.6867 30.7375 77.613 33.5142C75.2521 35.6375 71.4658 35.7712 68.8079 35.5484L72.327 32.6233C72.9357 32.1184 73.01 31.2275 72.5051 30.6336C72.0003 30.0396 71.1094 29.9506 70.5154 30.4554L66.7142 33.6033C66.7142 30.9306 67.1597 26.9066 69.6394 24.6793ZM51.5836 14.716C51.4945 10.8999 55.2364 7.38086 56.8994 6.0148C58.6218 7.30661 62.527 10.6475 62.6161 14.4636C62.6754 17.3887 60.4927 20.1357 58.7257 21.8878V15.1169C58.7257 14.3299 58.0873 13.7063 57.3151 13.7063C56.5282 13.7063 55.9045 14.3448 55.9045 15.1169V22.0363C54.0336 20.3733 51.6579 17.6857 51.5836 14.716ZM55.8897 46.7145V53.3963H51.643C50.8561 53.3963 50.2324 54.0348 50.2324 54.8069C50.2324 55.5939 50.8709 56.2175 51.643 56.2175H62.9873C63.7742 56.2175 64.3979 55.579 64.3979 54.8069C64.3979 54.0199 63.7594 53.3963 62.9873 53.3963H58.7406V46.7442C66.1203 47.3381 72.8764 51.7481 76.8557 58.6081L69.0306 65.2009C68.0358 62.9736 65.7936 61.3996 63.1951 61.3996H50.0691C48.6288 61.3996 47.2182 61.1918 45.8521 60.7612L39.5861 58.8309C38.8585 58.6081 38.1309 58.43 37.3885 58.2666C41.5015 51.4512 48.4357 47.1154 55.8897 46.7145ZM91.823 59.7366C79.2464 73.0854 67.7536 81.9202 56.6767 86.7757C54.9691 87.5181 53.113 87.7854 51.257 87.5627L33.32 85.3354C30.677 85.0087 28.0339 85.4839 25.6582 86.7163L15.1751 92.1806C14.8188 92.3587 14.4179 92.3884 14.0467 92.2845C13.6754 92.1657 13.3636 91.8984 13.1854 91.5569L5.28606 76.263C4.92969 75.5799 5.15242 74.7484 5.8206 74.3327L15.0564 68.5269C16.5561 67.5766 17.7142 66.7006 18.6942 65.7503C20.8621 63.6566 23.4903 62.1421 26.4748 61.2809C28.2121 60.776 30.0385 60.5236 31.9242 60.5236C34.1515 60.5236 36.453 60.88 38.7545 61.5778L45.0206 63.5081C46.6539 64.013 48.3615 64.2654 50.0691 64.2654H63.1951C65.1551 64.2654 66.7439 65.8542 66.7439 67.8142V67.829C66.7439 69.789 65.1551 71.363 63.1951 71.363H37.6409C36.8539 71.363 36.2303 72.0015 36.2303 72.7736C36.2303 73.5457 36.8688 74.1842 37.6409 74.1842H63.1951C66.4767 74.1842 69.1939 71.6896 69.5354 68.4972L86.5518 54.1684C87.9327 53.0103 89.9076 52.9509 91.3479 54.0348C92.2239 54.6881 92.7733 55.6978 92.8624 56.7818C92.9515 57.8806 92.5803 58.9348 91.823 59.7366Z" fill="#99A537"/>
</svg>
