<svg width="98" height="98" viewBox="0 0 98 98" fill="none" xmlns="http://www.w3.org/2000/svg">
<g clip-path="url(#clip0_293_8178)">
<path d="M84.102 42.4834C83.421 41.9349 82.4289 42.02 81.8513 42.6764C81.2736 43.3328 81.3154 44.3277 81.946 44.9334L85.75 48.2801L82.1224 51.9061C81.6978 52.3162 81.5275 52.9235 81.677 53.4945C81.8265 54.0656 82.2724 54.5116 82.8435 54.661C83.4146 54.8105 84.0218 54.6402 84.4319 54.2156L88.0612 50.588C88.6991 49.9494 89.0444 49.0752 89.015 48.173C88.9856 47.2708 88.5842 46.421 87.906 45.8252L84.102 42.4834Z" fill="#99A537"/>
<path d="M2.44995 81.6669C2.44995 82.569 3.18122 83.3002 4.08328 83.3002C4.98535 83.3002 5.71662 82.569 5.71662 81.6669V65.3336C5.72748 59.6567 9.89859 54.846 15.5166 54.0309V57.3302C11.7168 58.1117 8.98818 61.4542 8.98329 65.3336V88.2002C8.98329 89.1023 9.71455 89.8336 10.6166 89.8336C11.5187 89.8336 12.25 89.1023 12.25 88.2002V65.3336C12.256 63.2527 13.5787 61.4038 15.546 60.7259C15.7002 63.306 17.832 65.3227 20.4166 65.3336H23.6833C26.2413 65.3217 28.3598 63.3441 28.5474 60.7929L60.3647 69.6325L61.8347 71.3034C63.6253 73.3349 66.1744 74.538 68.8809 74.6289H69.1929C71.7919 74.6259 74.2841 73.5941 76.1247 71.7591L92.6786 55.2069C94.606 53.3003 95.6473 50.674 95.55 47.9647C95.4764 45.845 94.7183 43.8061 93.3891 42.1533C93.2045 31.8976 91.1988 1.43102 73.8838 0.0704505C67.9466 -0.38035 63.21 1.14355 59.7702 4.57355C56.6564 7.93246 54.8772 12.3133 54.7673 16.8922L35.2457 36.4236C34.0267 37.6413 33.9631 39.5963 35.1003 40.8907L40.4135 46.9341C40.4135 46.9341 40.4217 46.952 40.4299 46.9586H40.4429L41.5732 48.2456L28.5833 49.9345V49.0002C28.5833 46.294 26.3895 44.1002 23.6833 44.1002H20.4166C17.7104 44.1002 15.5166 46.294 15.5166 49.0002V50.7299C8.08211 51.5686 2.46009 57.8519 2.44995 65.3336L2.44995 81.6669ZM90.369 52.899L73.8136 69.4545C72.5365 70.7311 70.7879 71.4222 68.9831 71.3637C67.1783 71.3053 65.4781 70.5024 64.2863 69.1458L43.8272 45.8659L66.7804 22.9126L83.8716 37.9311L90.062 43.3701C91.4182 44.5624 92.2204 46.2628 92.2783 48.0676C92.3361 49.8724 91.6444 51.6207 90.3674 52.8974L90.369 52.899ZM64.5983 16.6455C64.7231 14.751 65.4609 12.9485 66.7004 11.5103C68.4979 10.0467 70.8437 9.4385 73.1259 9.84432C77.5996 10.1955 81.4755 19.4402 82.9733 32.7927L64.5983 16.6455ZM62.0781 6.88798C64.8139 4.15378 68.6931 2.95655 73.6339 3.32732C86.8541 4.36612 89.4887 28.4202 90.0064 38.9732L86.5666 35.945C85.9754 28.4317 83.4159 7.37309 73.384 6.58745C69.4542 6.29018 66.4293 7.16728 64.4007 9.20078C63.0922 10.5839 62.1795 12.2931 61.7579 14.1498C60.8705 13.4021 59.6522 13.1831 58.5599 13.5749C59.0918 11.0635 60.3097 8.74881 62.0781 6.88798ZM59.6428 16.639L64.3223 20.7517L41.6679 43.4061L37.5552 38.7266L59.6428 16.639ZM44.1718 51.2052L56.4218 65.1474L28.5833 57.4119V53.2289L44.1718 51.2052ZM18.7833 49.0002C18.7833 48.0982 19.5146 47.3669 20.4166 47.3669H23.6833C24.5854 47.3669 25.3166 48.0982 25.3166 49.0002V60.4336C25.3166 61.3356 24.5854 62.0669 23.6833 62.0669H20.4166C19.5146 62.0669 18.7833 61.3356 18.7833 60.4336V49.0002Z" fill="#99A537"/>
<path d="M2.44995 96.3664C2.44995 97.2685 3.18122 97.9997 4.08328 97.9997C4.98535 97.9997 5.71662 97.2685 5.71662 96.3664V88.1997C5.71662 87.2977 4.98535 86.5664 4.08328 86.5664C3.18122 86.5664 2.44995 87.2977 2.44995 88.1997V96.3664Z" fill="#99A537"/>
</g>
<defs>
<clipPath id="clip0_293_8178">
<rect width="98" height="98" fill="white"/>
</clipPath>
</defs>
</svg>
