<svg width="98" height="98" viewBox="0 0 98 98" fill="none" xmlns="http://www.w3.org/2000/svg">
<g clip-path="url(#clip0_293_8185)">
<path d="M0.00756836 86.5683C0.0148407 92.8788 5.12862 97.9928 11.4391 97.9998H55.5323C61.8427 97.9926 66.9567 92.8788 66.9638 86.5683C66.9638 84.7644 65.5015 83.3021 63.6976 83.3021H56.0302C57.354 82.3764 58.548 81.2779 59.5805 80.0359H63.6976C70.008 80.0286 75.122 74.9148 75.1291 68.6044C75.1237 64.0971 71.4711 60.4445 66.9636 60.4389H63.6974V55.5397C63.6974 53.7358 62.2351 52.2734 60.4311 52.2734H6.53945C4.73553 52.2734 3.27322 53.7358 3.27322 55.5397V68.6044C3.27954 74.4626 6.14483 79.9492 10.9488 83.3021H3.2738C1.46988 83.3021 0.00756836 84.7644 0.00756836 86.5683ZM71.8632 68.6044C71.8552 73.1107 68.2041 76.7616 63.6977 76.7698H61.7153C63.0166 74.2446 63.6962 71.4452 63.6977 68.6044V63.7051H66.964C69.6698 63.7051 71.8632 65.8985 71.8632 68.6044ZM6.54002 68.6044V63.7051H14.7055C15.6075 63.7051 16.3385 62.9739 16.3385 62.0721C16.3385 61.1704 15.6075 60.4391 14.7055 60.4391H6.54002V55.5399H60.4317V60.4391H21.2378C20.3358 60.4391 19.6047 61.1702 19.6047 62.0721C19.6047 62.9741 20.336 63.7051 21.2378 63.7051H60.4317V68.6044C60.4218 76.7176 53.8472 83.2922 45.734 83.3021H21.2378C13.1245 83.2922 6.54997 76.7176 6.54002 68.6044ZM45.734 86.5683H63.6979C63.6926 91.0756 60.04 94.7283 55.5325 94.7338H11.4393C6.93215 94.7275 3.28011 91.0755 3.2738 86.5683H45.734Z" fill="#99A537"/>
<path d="M94.7263 32.6767H63.6977V27.5308C63.6977 27.3463 63.7271 27.1928 63.7336 27.0146C65.3133 27.8243 67.0653 28.2394 68.8403 28.2247C73.0921 28.085 77.1195 26.2824 80.0563 23.2047C85.8975 17.8077 88.0461 9.49505 85.5517 1.9437C85.387 1.52248 85.0536 1.1891 84.6323 1.02433C77.0808 -1.47008 68.7682 0.67832 63.3714 6.51971C62.9084 6.98954 62.4721 7.48521 62.0648 8.00422C61.6559 7.49133 61.2199 7.00064 60.7583 6.53445C55.3678 0.680233 47.0469 -1.47218 39.4939 1.03428C39.0744 1.2002 38.7421 1.53243 38.576 1.95212C36.0761 9.50098 38.2256 17.8142 44.0714 23.2051C46.6391 25.8524 50.011 27.575 53.6609 28.1043C54.2128 28.1734 54.7686 28.2084 55.3249 28.2088C57.0827 28.2276 58.8193 27.8226 60.3874 27.028C60.3874 27.2028 60.4234 27.3547 60.4234 27.5327L60.4316 32.6769H29.4029C27.599 32.6769 26.1367 34.1392 26.1367 35.9431V40.8424C26.1367 42.6463 27.599 44.1086 29.4029 44.1086H29.6757L30.3288 47.6688C30.5049 48.5416 31.3477 49.1125 32.2236 48.9521C33.0996 48.7918 33.6856 47.9595 33.5411 47.0809L32.9957 44.1086H91.1334L82.176 93.3935C82.0348 94.1701 81.3583 94.7342 80.569 94.7342H68.5806C67.6787 94.7342 66.9476 95.4653 66.9476 96.3673C66.9476 97.2692 67.6787 98.0003 68.5806 98.0003H80.569C82.9368 98.0007 84.9661 96.3075 85.3898 93.9779L94.4567 44.1086H94.7261C96.53 44.1086 97.9924 42.6463 97.9924 40.8424V35.9431C97.9924 34.139 96.5301 32.6767 94.7263 32.6767ZM65.6771 8.83365C70.0005 4.13822 76.5647 2.21603 82.7379 3.83814C84.3598 10.0114 82.4378 16.5756 77.7424 20.899C73.6335 25.0061 67.7987 26.1249 64.3102 23.5119C65.4943 20.1494 68.3816 18.0917 72.9459 15.8103C73.4678 15.5492 73.8108 15.0295 73.8456 14.4469C73.8804 13.8644 73.6018 13.3075 73.1147 12.9861C72.6277 12.6646 72.0061 12.6275 71.4842 12.8887C69.421 13.8611 67.4666 15.0496 65.6541 16.4342C65.4447 14.5106 64.8752 12.6436 63.9753 10.9308C64.4756 10.1796 65.0453 9.47763 65.6771 8.83365ZM54.0626 24.8624C51.1374 24.4234 48.4392 23.0307 46.3871 20.9005C41.6867 16.5829 39.7625 10.0181 41.3881 3.84618C47.5579 2.21775 54.1223 4.13745 58.4424 8.83365C59.3255 9.71991 60.0935 10.7135 60.7288 11.7912L60.7451 11.8222C62.4261 14.4021 62.886 17.5914 62.0026 20.5411C59.958 16.8814 56.3245 14.742 52.6223 12.8901C52.1004 12.629 51.4788 12.6662 50.9918 12.9875C50.5047 13.309 50.2261 13.8657 50.2609 14.4483C50.2957 15.0308 50.6387 15.5504 51.1606 15.8116C55.7331 18.098 58.6254 20.1589 59.806 23.5344C58.1395 24.7126 56.077 25.1893 54.0626 24.8624ZM93.0931 40.842H29.4029V35.9427H94.7261V40.842H93.0931Z" fill="#99A537"/>
</g>
<defs>
<clipPath id="clip0_293_8185">
<rect width="98" height="98" fill="white"/>
</clipPath>
</defs>
</svg>
