<svg width="51" height="51" viewBox="0 0 51 51" fill="none" xmlns="http://www.w3.org/2000/svg">
<g clip-path="url(#clip0_185_69743)">
<path d="M44.3515 35.7045C43.1196 34.2645 41.4784 33.2396 39.6663 32.7629V5.00732C39.6663 2.24627 37.4197 0 34.6578 0H15.7869C15.0714 0 14.3741 0.169258 13.7469 0.482872C13.7438 0.484428 13.7406 0.485207 13.7375 0.486763C13.7344 0.488319 13.7309 0.490654 13.7274 0.49221C13.6889 0.511665 13.6508 0.532677 13.6126 0.553299C13.5834 0.569252 13.5539 0.584816 13.5251 0.601158C13.4908 0.620613 13.4574 0.640846 13.4239 0.661468C13.3908 0.681313 13.3582 0.701157 13.3259 0.721779C13.2963 0.740845 13.2671 0.7603 13.2375 0.780144C13.2021 0.803879 13.1667 0.828392 13.1321 0.853294C13.1056 0.871971 13.0796 0.891037 13.0539 0.910103C13.0169 0.937729 12.9807 0.965744 12.9449 0.994537C12.9212 1.0136 12.8975 1.03228 12.8741 1.05173C12.8375 1.08208 12.8014 1.1136 12.7656 1.14512C12.7434 1.16457 12.7216 1.18364 12.6998 1.20348C12.6636 1.23656 12.6282 1.27119 12.5932 1.30543C12.573 1.32527 12.5523 1.34473 12.5325 1.36496C12.4905 1.40776 12.4496 1.45173 12.4091 1.49648C12.3983 1.50854 12.387 1.51982 12.3761 1.53188L9.3804 4.90187L5.63532 9.11465C5.59019 9.16523 5.547 9.21659 5.5042 9.26912C5.49136 9.28507 5.47929 9.30141 5.46645 9.31737C5.43883 9.35277 5.41081 9.38779 5.38435 9.42398C5.36295 9.45238 5.34272 9.48157 5.3221 9.51036C5.30576 9.53409 5.28864 9.55744 5.27229 9.58118C5.247 9.61853 5.22288 9.65627 5.19875 9.69401C5.18903 9.70958 5.17891 9.72475 5.16918 9.74032C5.14117 9.78545 5.11471 9.83059 5.08825 9.8765C5.08358 9.88467 5.07891 9.89284 5.07424 9.90102C5.04467 9.95315 5.01627 10.0061 4.98864 10.0598C4.98786 10.0605 4.98747 10.0613 4.98708 10.0625C4.65829 10.7022 4.48242 11.415 4.48242 12.1461V43.1067C4.48242 45.8686 6.72908 48.1152 9.49091 48.1152H30.5847C32.331 49.9541 34.7536 51 37.3037 51C42.4161 51 46.5752 46.8409 46.5752 41.7285C46.5752 39.5196 45.7853 37.3804 44.3515 35.7045ZM13.1889 3.6159V9.19558C13.1889 9.52553 12.9204 9.79401 12.5905 9.79401H7.69716L10.6987 6.41702L13.1889 3.6159ZM9.49052 46.123C7.82751 46.123 6.47461 44.7701 6.47461 43.1071V12.1465C6.47461 12.0251 6.4855 11.9049 6.50262 11.7862H12.5905C14.0189 11.7862 15.1811 10.624 15.1811 9.19558V2.06573C15.378 2.01787 15.5811 1.99219 15.7869 1.99219H34.6578C36.3212 1.99219 37.6741 3.3447 37.6741 5.00732V32.4641C37.5508 32.4594 37.4271 32.4567 37.3037 32.4567C32.1913 32.4567 28.0319 36.6162 28.0319 41.7285C28.0319 41.8519 28.0354 41.9748 28.0404 42.0978C28.0416 42.1313 28.0431 42.1643 28.0451 42.1974C28.0502 42.3017 28.0572 42.4056 28.0657 42.5091C28.0677 42.5297 28.0688 42.5503 28.0708 42.5706C28.0817 42.6916 28.0953 42.8118 28.1112 42.9316C28.1151 42.9624 28.1198 42.9931 28.1241 43.0239C28.1377 43.1207 28.1529 43.2168 28.1696 43.3133C28.1747 43.3421 28.1793 43.3713 28.1844 43.4005C28.2062 43.5188 28.2299 43.6359 28.256 43.753C28.2618 43.7783 28.268 43.8036 28.2739 43.8289C28.2965 43.9246 28.3202 44.0199 28.3455 44.1145C28.354 44.1472 28.3626 44.1799 28.3715 44.2126C28.4038 44.3281 28.4373 44.4429 28.4739 44.5569C28.4782 44.5697 28.4828 44.5822 28.4867 44.595C28.5202 44.6978 28.556 44.8001 28.5929 44.9016C28.605 44.9347 28.6175 44.9682 28.6299 45.0013C28.6665 45.0981 28.7046 45.1942 28.7443 45.29C28.7513 45.3071 28.7579 45.3246 28.7653 45.3417C28.8116 45.4511 28.8603 45.5592 28.9108 45.667C28.9256 45.6981 28.9408 45.7293 28.956 45.7604C28.9972 45.8456 29.0396 45.9304 29.0832 46.0145C29.0972 46.0409 29.1104 46.0674 29.1245 46.0938C29.1299 46.1036 29.1346 46.1137 29.1396 46.123H9.49052ZM37.3037 49.0078C35.1788 49.0078 33.1664 48.0829 31.7812 46.4697C30.6482 45.1526 30.0241 43.4686 30.0241 41.7285C30.0241 37.7146 33.2898 34.4489 37.3037 34.4489C37.7072 34.4489 38.1115 34.4823 38.5072 34.5489C42.0278 35.1333 44.583 38.1527 44.583 41.7285C44.583 45.7421 41.3177 49.0078 37.3037 49.0078Z" fill="white"/>
<path d="M14.5266 17.2529H30.3186C30.8688 17.2529 31.3147 16.807 31.3147 16.2568C31.3147 15.7066 30.8688 15.2607 30.3186 15.2607H14.5266C13.9764 15.2607 13.5305 15.7066 13.5305 16.2568C13.5305 16.807 13.9764 17.2529 14.5266 17.2529Z" fill="white"/>
<path d="M31.1467 23.0295C31.1109 22.9758 31.0693 22.9241 31.0234 22.8782C30.9767 22.8322 30.9257 22.7906 30.872 22.7548C30.8171 22.7186 30.7596 22.6879 30.6996 22.663C30.6397 22.6381 30.5771 22.619 30.5133 22.6062C30.3848 22.5805 30.2526 22.5805 30.1238 22.6062C30.06 22.619 29.9973 22.6381 29.9378 22.663C29.8779 22.6879 29.8199 22.7186 29.7654 22.7548C29.7113 22.7906 29.6596 22.8322 29.614 22.8782C29.5681 22.9241 29.5261 22.9758 29.4903 23.0295C29.4545 23.0844 29.4238 23.142 29.3989 23.2019C29.374 23.2618 29.3549 23.3245 29.3421 23.3883C29.3288 23.4529 29.323 23.5178 29.323 23.5824C29.323 23.6482 29.3288 23.7128 29.3421 23.7778C29.3549 23.8416 29.374 23.9042 29.3989 23.9637C29.4238 24.0237 29.4545 24.0816 29.4903 24.1361C29.5261 24.1902 29.5681 24.2408 29.614 24.2875C29.7993 24.4731 30.0561 24.5797 30.3179 24.5797C30.3837 24.5797 30.4487 24.5727 30.5133 24.5595C30.5771 24.5466 30.6397 24.5275 30.6996 24.5026C30.7596 24.4777 30.8171 24.447 30.872 24.4112C30.9257 24.3742 30.9767 24.3334 31.0234 24.2875C31.0693 24.2408 31.1101 24.1902 31.1467 24.1361C31.1829 24.0816 31.2136 24.0237 31.2385 23.9637C31.2634 23.9042 31.2825 23.8416 31.2953 23.7778C31.3082 23.7128 31.314 23.6482 31.314 23.5824C31.314 23.5178 31.3082 23.4529 31.2953 23.3883C31.2825 23.3245 31.2634 23.2618 31.2385 23.2019C31.2136 23.142 31.1829 23.0844 31.1467 23.0295Z" fill="white"/>
<path d="M14.5266 24.5791H26.3342C26.8844 24.5791 27.3303 24.1332 27.3303 23.583C27.3303 23.0328 26.8844 22.5869 26.3342 22.5869H14.5266C13.9764 22.5869 13.5305 23.0328 13.5305 23.583C13.5305 24.1332 13.9764 24.5791 14.5266 24.5791Z" fill="white"/>
<path d="M14.5266 31.9053H30.3186C30.8688 31.9053 31.3147 31.459 31.3147 30.9092C31.3147 30.359 30.8688 29.9131 30.3186 29.9131H14.5266C13.9764 29.9131 13.5305 30.359 13.5305 30.9092C13.5305 31.459 13.9764 31.9053 14.5266 31.9053Z" fill="white"/>
<path d="M25.9148 37.2402H14.5266C13.9764 37.2402 13.5305 37.6861 13.5305 38.2363C13.5305 38.7865 13.9764 39.2324 14.5266 39.2324H25.9148C26.4649 39.2324 26.9109 38.7865 26.9109 38.2363C26.9109 37.6861 26.4649 37.2402 25.9148 37.2402Z" fill="white"/>
<path d="M40.45 37.5535C38.6469 39.4694 37.268 42.3935 36.5933 44.0032L33.5135 42.0289C33.0505 41.732 32.4342 41.867 32.1373 42.3301C31.8404 42.7931 31.9754 43.409 32.4385 43.7059L36.538 46.3343C36.7006 46.4382 36.8874 46.4915 37.0757 46.4915C37.1839 46.4915 37.2925 46.474 37.3975 46.4382C37.6847 46.3401 37.9115 46.1164 38.0139 45.8304C38.0298 45.7857 39.6403 41.3207 41.901 38.9188C42.278 38.5184 42.2585 37.8881 41.8582 37.5107C41.4574 37.134 40.827 37.1531 40.45 37.5535Z" fill="white"/>
</g>
<defs>
<clipPath id="clip0_185_69743">
<rect width="51" height="51" fill="white"/>
</clipPath>
</defs>
</svg>
