<svg width="51" height="51" viewBox="0 0 51 51" fill="none" xmlns="http://www.w3.org/2000/svg">
<path d="M46.2823 29.4791L44.9602 29.1986L36.2927 14.7808L36.6118 13.5117L48.7797 6.26074L49.7251 7.84732L38.354 14.6241L46.0328 27.3976L48.4302 25.7167L49.491 27.2291L46.2823 29.4791Z" fill="white"/>
<path d="M4.71765 29.4791L1.50892 27.2291L2.56973 25.7167L4.96713 27.3976L12.6459 14.6241L1.2749 7.84732L2.22025 6.26074L14.3882 13.5117L14.7072 14.7808L6.0398 29.1986L4.71765 29.4791Z" fill="white"/>
<path d="M39.1864 35.7541C38.6792 35.7541 38.1751 35.6252 37.7282 35.3814L30.2505 31.3268L31.1309 29.7031L38.6112 33.7588C39.1071 34.0283 39.7467 33.9036 40.1014 33.4835C40.4637 33.0546 40.4823 32.4186 40.1447 31.9722C40.0885 31.9021 40.0266 31.8366 39.9627 31.783L33.5813 26.3939L27.168 22.414C26.701 22.1243 26.1263 22.0496 25.5948 22.2094L23.5717 22.8238L21.3923 25.2166C20.5794 26.1104 19.4176 26.6233 18.2042 26.6233C17.7057 26.6233 17.215 26.5377 16.746 26.3686C16.0259 26.1114 15.4573 25.5511 15.1888 24.8315C14.9192 24.1104 14.9815 23.312 15.3594 22.6413L18.5037 17.0615L19.0253 16.6347C22.0861 15.6461 25.1773 15.0193 28.4768 14.7188L28.7933 14.745L35.7004 16.5461L38.0921 15.6486L38.7406 17.3785L36.0751 18.3785L35.5179 18.4074L28.484 16.5734C25.5062 16.8553 22.7041 17.4156 19.9366 18.2831L16.9686 23.548C16.8186 23.815 16.8733 24.0614 16.9192 24.1851C16.965 24.3073 17.0841 24.5274 17.3697 24.6295C18.3001 24.965 19.3717 24.6924 20.0258 23.9733L22.3768 21.3919L22.7913 21.13L25.0613 20.4403C26.1031 20.129 27.2242 20.2764 28.1412 20.8434L34.7215 24.9387L41.1524 30.3696C41.3096 30.5016 41.4586 30.6562 41.605 30.8407C42.4859 32.0052 42.4426 33.5758 41.5122 34.6768C40.9323 35.3618 40.0849 35.7541 39.1864 35.7541Z" fill="white"/>
<path d="M41.4261 32.1602L40.3364 30.6685C41.822 29.584 43.1416 28.3092 44.2591 26.8799L45.7147 28.018C44.4921 29.5814 43.0488 30.9752 41.4261 32.1602Z" fill="white"/>
<path d="M36.2209 39.1446C35.7266 39.1446 35.2307 39.0178 34.7869 38.7786L27.687 34.9539L28.5633 33.3272L35.6642 37.1524C36.1555 37.4189 36.755 37.2952 37.1096 36.8885C37.3173 36.6488 37.4173 36.3395 37.389 36.0204C37.3611 35.7014 37.2086 35.4142 36.9596 35.2127L35.9823 34.4163L37.1493 32.9844L38.1245 33.7792C38.7637 34.2967 39.1565 35.0354 39.2292 35.8575C39.3018 36.6797 39.0446 37.4766 38.5044 38.1003C37.925 38.7647 37.0936 39.1446 36.2209 39.1446Z" fill="white"/>
<path d="M33.3885 42.2522C32.9823 42.2522 32.5684 42.161 32.1906 41.9878L25.3345 38.8033L26.1128 37.128L32.9643 40.3105C33.3638 40.4924 33.8478 40.3909 34.1297 40.0795C34.4962 39.6785 34.4797 39.0687 34.0947 38.6893L33.4864 38.0868L34.7864 36.7744L35.3926 37.3749C36.4874 38.4527 36.5333 40.1878 35.4957 41.3239C34.9607 41.913 34.1916 42.2522 33.3885 42.2522Z" fill="white"/>
<path d="M29.3174 44.5414C28.9782 44.5419 28.6344 44.4888 28.2978 44.3785C26.5339 43.8064 24.604 43.0667 22.3994 42.1188L23.1293 40.4219C25.2808 41.3471 27.1586 42.0667 28.87 42.6219C29.5045 42.8296 30.1931 42.5708 30.5498 41.9945L30.672 41.8033C30.8395 41.5348 30.9107 41.2147 30.873 40.8863L32.7081 40.675C32.7931 41.4121 32.6246 42.1631 32.2344 42.7894L32.1137 42.978C31.5009 43.9693 30.4333 44.5414 29.3174 44.5414Z" fill="white"/>
<path d="M18.8387 18.8556C15.9547 18.1458 13.7037 17.1381 12.6187 16.601L13.4382 14.9453C14.4557 15.4494 16.5676 16.3943 19.2799 17.0618L18.8387 18.8556Z" fill="white"/>
<path d="M7.91725 32.3483C6.88015 31.1978 5.76366 29.5138 5.00903 28.3035L6.57706 27.3262C7.1621 28.2653 8.29302 30.006 9.2894 31.1122L7.91725 32.3483Z" fill="white"/>
<path d="M9.71716 36.738C8.69861 36.738 7.7177 36.2164 7.20688 35.2968L7.17234 35.2272C6.83111 34.6004 6.76719 33.7906 7.01255 33.0376C7.23523 32.3711 7.55378 31.736 7.96202 31.1438C8.37903 30.5252 8.91974 29.9118 9.56355 29.3278C10.1316 28.8134 10.8702 28.5422 11.629 28.567C12.4336 28.5912 13.1986 28.952 13.7269 29.5567C14.3882 30.319 14.6083 31.3871 14.3032 32.3474L12.5424 31.7876C12.6537 31.4371 12.5738 31.0469 12.3336 30.7701C12.1414 30.55 11.8702 30.4226 11.5728 30.4134C11.2909 30.4159 11.0156 30.5051 10.8037 30.6969C10.2708 31.1804 9.82747 31.6814 9.4883 32.1845C9.17335 32.6412 8.93263 33.1205 8.76717 33.6159C8.68109 33.8793 8.69758 34.1659 8.81201 34.3772L8.83676 34.4262C9.11562 34.9283 9.78726 35.0004 10.2398 34.7618L11.0976 36.3978C10.6574 36.6288 10.1831 36.738 9.71716 36.738Z" fill="white"/>
<path d="M19.8484 44.7392C19.7603 44.7392 19.6716 44.7356 19.5835 44.7274C18.6598 44.6449 17.8639 44.149 17.4 43.3676L17.4072 43.3629L17.3557 43.2939C17.0021 42.6908 16.9144 41.8836 17.1371 41.1181C17.318 40.5063 17.5871 39.9099 17.9381 39.3408L19.5103 40.3109C19.2453 40.7408 19.0433 41.1872 18.9098 41.6377C18.8294 41.915 18.8515 42.1944 18.9716 42.4001L18.9701 42.4011L18.9886 42.4243C19.2041 42.7877 19.5567 42.8702 19.7479 42.8872C20.1092 42.9207 20.4665 42.7774 20.7015 42.5063C21.2175 41.915 21.6438 41.2934 21.9927 40.763C22.1603 40.5073 22.3283 40.2449 22.4969 39.9821C22.7566 39.5754 22.7108 39.0455 22.384 38.6955C21.9865 38.2615 21.2716 38.2548 20.8541 38.662C20.7933 38.7182 20.7572 38.7548 20.7206 38.7939L19.3577 37.5475C19.4314 37.4661 19.5056 37.3924 19.5861 37.3187C20.1149 36.8027 20.8412 36.5068 21.6092 36.5068C22.419 36.5068 23.1953 36.8476 23.7401 37.4408C24.6365 38.4027 24.7674 39.8589 24.053 40.9774C23.8809 41.247 23.7087 41.5145 23.537 41.7769C23.1525 42.3609 22.6814 43.047 22.0953 43.7186C21.5329 44.3676 20.7072 44.7392 19.8484 44.7392Z" fill="white"/>
<path d="M12.214 39.5906C12.0011 39.5906 11.7903 39.57 11.5841 39.5282C10.6784 39.3427 9.9671 38.753 9.63257 37.9107L9.6367 37.9092L9.6202 37.8659L9.61505 37.8679C9.25938 36.9489 9.3568 35.9015 9.86968 35.1355C10.7207 33.8644 11.7233 32.6613 12.6934 31.4979C12.9248 31.2201 13.1557 30.9433 13.3841 30.6665C13.9485 29.9809 14.748 29.568 15.6351 29.5021C16.4974 29.435 17.3382 29.7118 17.9387 30.2531C18.0825 30.383 18.2057 30.5196 18.315 30.6716C19.1448 31.8149 19.0124 33.5309 17.9918 34.8422C17.0588 36.0396 16.1273 37.235 15.0155 38.3571L15.0145 38.3576C14.2299 39.1473 13.2011 39.5906 12.214 39.5906ZM11.3398 37.2076L11.349 37.2283C11.4557 37.4963 11.6537 37.6566 11.9547 37.7179C12.5063 37.8314 13.1918 37.571 13.7042 37.0556C14.7382 36.0123 15.5949 34.9123 16.5021 33.7484C17.0443 33.0515 17.1639 32.2304 16.8186 31.7546C16.7846 31.7072 16.7474 31.667 16.7016 31.6252C16.4804 31.4257 16.1237 31.3165 15.7712 31.3448C15.5031 31.3644 15.1181 31.4665 14.8098 31.8412C14.5794 32.1206 14.3464 32.4005 14.1124 32.6809C13.1727 33.8077 12.2016 34.9726 11.4047 36.1628C11.1996 36.4695 11.2233 36.9051 11.3377 37.2009L11.3398 37.2076Z" fill="white"/>
<path d="M15.6186 42.8531C15.4196 42.8531 15.2217 42.8345 15.0274 42.7979C14.0949 42.6201 13.3485 42.0299 12.9794 41.1788L12.9619 41.1361L12.9604 41.1366C12.6434 40.3861 12.6753 39.4649 13.0485 38.6083C13.7274 37.034 14.8459 35.5902 16.4675 34.198C17.7835 33.0681 19.6407 32.999 20.7886 34.0336C20.9304 34.1614 21.0515 34.2944 21.1598 34.4397C22.0067 35.5691 21.9314 37.2304 20.9742 38.4758L20.9412 38.5186C20.1139 39.5933 19.2577 40.7051 18.2216 41.7422L18.2206 41.7433C17.5093 42.4536 16.5526 42.8531 15.6186 42.8531ZM14.6629 40.4196L14.6743 40.4438C14.833 40.8093 15.1423 40.9386 15.3737 40.983C15.8882 41.0804 16.4784 40.8716 16.9155 40.4361C17.867 39.483 18.6495 38.467 19.4773 37.3918L19.5098 37.3495C19.9634 36.7593 20.033 36.0165 19.6788 35.5444C19.6417 35.4944 19.602 35.4511 19.5515 35.4057C19.0912 34.9902 18.283 35.0738 17.6717 35.599C16.2675 36.8047 15.3098 38.0294 14.7438 39.3428C14.5727 39.735 14.5428 40.1356 14.6624 40.418L14.6629 40.4196Z" fill="white"/>
</svg>
