<svg width="72" height="72" viewBox="0 0 72 72" fill="none" xmlns="http://www.w3.org/2000/svg">
<g clip-path="url(#clip0_224_2495)">
<path d="M49.883 42.2527C52.6524 42.2527 55.4019 41.0606 57.2934 38.7593C59.1717 36.474 60.3245 33.7168 60.6272 30.7857C60.8744 28.3923 61.8069 26.0718 63.324 24.0752C63.5816 23.7361 63.6717 23.2987 63.5691 22.8855C63.4664 22.4724 63.1821 22.1279 62.7958 21.9487C55.7661 18.6894 47.4158 20.599 42.4899 26.5924C40.865 28.5696 40.1072 31.0611 40.3562 33.6081C40.5661 35.7554 41.4728 37.7238 42.9362 39.2629C40.9434 42.7966 39.3478 46.4632 38.1558 50.2463C37.4091 42.9027 35.7414 35.668 33.1654 28.5862C35.7375 27.1246 37.6767 24.8154 38.6689 21.9977C39.7587 18.9028 39.578 15.5688 38.1603 12.6099C33.791 3.49143 23.8169 -1.5244 13.906 0.412885C13.4881 0.494584 13.1298 0.761194 12.9314 1.13791C12.733 1.51462 12.7161 1.96094 12.8853 2.35172C14.2451 5.49213 14.7244 8.87286 14.2715 12.1282C13.7439 15.9209 14.3431 19.7584 16.0043 23.2254C18.1133 27.627 22.5184 30.2006 27.1014 30.2006C28.2596 30.2006 29.4291 30.035 30.5758 29.6941C33.4053 37.5157 35.0908 45.5255 35.6172 53.66C34.1973 51.5084 32.4241 49.4879 30.3036 47.6071C32.1264 43.657 30.639 38.8891 26.7852 36.713C20.8861 33.3819 13.4839 34.4557 8.78418 39.3233C8.48846 39.6296 8.34742 40.0534 8.40071 40.4758C8.45387 40.8982 8.69573 41.2738 9.0581 41.4971C10.8677 42.6121 12.3137 44.161 13.2396 45.9764C14.4111 48.2726 16.2212 50.1587 18.4744 51.431C19.7599 52.1569 21.1798 52.527 22.6167 52.527C23.377 52.527 24.1426 52.4234 24.895 52.214C26.367 51.8044 27.6704 51.0224 28.7039 49.9509C31.3735 52.3716 33.4112 55.0241 34.7972 57.8884C30.8531 58.1834 27.0728 59.2432 23.5323 61.0562C19.5092 63.1164 15.9477 66.1231 13.2332 69.7513C12.9143 70.1775 12.8634 70.7473 13.1017 71.2233C13.34 71.6992 13.8267 71.9998 14.3591 71.9998H30.7717C31.5483 71.9998 32.1779 71.3702 32.1779 70.5936C32.1779 69.8169 31.5483 69.1874 30.7717 69.1874H17.3678C19.5046 66.9002 22.0381 64.9808 24.8142 63.5593C28.6326 61.604 32.7599 60.6125 37.0816 60.6125C41.4034 60.6125 45.5306 61.6039 49.3491 63.5593C52.1252 64.9808 54.6587 66.9004 56.7955 69.1874H43.4273C42.6507 69.1874 42.0211 69.8169 42.0211 70.5936C42.0211 71.3702 42.6507 71.9998 43.4273 71.9998H59.8042C60.3366 71.9998 60.8232 71.6991 61.0614 71.2233C61.2998 70.7473 61.2489 70.1775 60.93 69.7513C58.2153 66.1231 54.6541 63.1162 50.6308 61.0562C47.035 59.2149 43.1919 58.1502 39.1809 57.8748C40.2171 51.9872 42.2254 46.348 45.1784 41.0178C46.6432 41.8461 48.2662 42.2527 49.883 42.2527ZM24.1414 49.5046C22.6904 49.9084 21.1689 49.7228 19.8574 48.9823C18.0867 47.9825 16.6647 46.5013 15.745 44.6987C14.8566 42.957 13.592 41.4147 12.0389 40.1655C15.83 37.1906 21.1075 36.7369 25.4025 39.1622C27.7508 40.4882 28.7824 43.2568 28.0174 45.7348C26.486 44.5744 24.8095 43.4739 22.9896 42.4359C22.315 42.051 21.4562 42.2861 21.0715 42.9607C20.6868 43.6352 20.9217 44.4941 21.5963 44.8788C23.3976 45.9062 25.0436 46.9955 26.5353 48.1431C25.8709 48.782 25.0546 49.2505 24.1414 49.5046ZM43.1549 33.3344C42.979 31.5351 43.5143 29.7748 44.6623 28.3781C47.4326 25.0073 51.4989 23.1839 55.6522 23.1839C57.1277 23.1839 58.6151 23.4144 60.0581 23.8873C58.8321 25.926 58.0685 28.1804 57.8293 30.4967C57.5835 32.8767 56.6469 35.1163 55.1205 36.9736C53.014 39.5365 49.4038 40.1494 46.6024 38.5901C47.8174 36.6287 49.1627 34.7112 50.6404 32.8423C51.122 32.2331 51.0187 31.3488 50.4095 30.8671C49.8004 30.3855 48.916 30.4889 48.4344 31.098C46.9887 32.9265 45.6624 34.7994 44.4563 36.7137C43.7281 35.737 43.2765 34.5779 43.1549 33.3344ZM18.5406 22.0103C17.1189 19.0429 16.6059 15.7597 17.0571 12.5157C17.5005 9.32874 17.1748 6.04532 16.1163 2.92122C24.2005 2.05994 32.0541 6.37479 35.6239 13.8251C36.717 16.1068 36.8562 18.6774 36.016 21.0637C35.3003 23.0962 33.9453 24.7856 32.1499 25.918C30.4767 21.7166 28.481 17.5717 26.1649 13.4929C25.7815 12.8176 24.9233 12.5809 24.2478 12.9644C23.5725 13.3479 23.3358 14.2062 23.7193 14.8816C25.9886 18.8779 27.9405 22.9386 29.5738 27.0536C25.2464 28.2358 20.5464 26.1964 18.5406 22.0103Z" fill="#99A537"/>
<path d="M37.0995 71.9998C37.8761 71.9998 38.5057 71.3703 38.5057 70.5937C38.5057 69.8171 37.8761 69.1875 37.0995 69.1875C36.3229 69.1875 35.6934 69.8171 35.6934 70.5937C35.6934 71.3703 36.3229 71.9998 37.0995 71.9998Z" fill="#99A537"/>
</g>
<defs>
<clipPath id="clip0_224_2495">
<rect width="72" height="72" fill="white"/>
</clipPath>
</defs>
</svg>
