<svg width="72" height="72" viewBox="0 0 72 72" fill="none" xmlns="http://www.w3.org/2000/svg">
<g clip-path="url(#clip0_224_2501)">
<path d="M71.9103 46.1486C71.5933 44.4359 70.4541 42.9895 68.8627 42.2798C67.0143 41.4564 64.823 41.7706 63.2756 43.0868L51.9367 52.8387C51.4742 50.1301 49.111 48.0613 46.2722 48.0613H35.5688L33.6265 46.8726C30.469 44.9407 26.8441 43.9201 23.1428 43.9201C18.4989 43.9201 14.0226 45.7339 10.6877 48.9304V46.4068C10.6877 45.6301 10.0582 45.0006 9.28144 45.0006H1.40649C0.630306 45.0006 0.000244141 45.6301 0.000244141 46.4068V70.5942C0.000244141 71.3709 0.630306 72.0004 1.40649 72.0004H9.28144C10.0582 72.0004 10.6877 71.3709 10.6877 70.5942V69.1879H44.8874C49.4895 69.1879 53.834 67.4125 57.1189 64.1892C57.6737 63.6454 57.682 62.7549 57.1382 62.2007C56.5943 61.6459 55.7039 61.6376 55.1496 62.1814C52.3932 64.8857 48.7485 66.3754 44.8868 66.3754H10.6877V53.0348L11.9528 51.6549C14.8202 48.5266 18.8988 46.7326 23.1428 46.7326C26.3255 46.7326 29.4429 47.6104 32.1581 49.2715L34.4389 50.6673C34.6597 50.8024 34.914 50.8738 35.1728 50.8738H46.2722C47.891 50.8738 49.2077 52.1905 49.2077 53.8094C49.2077 55.4276 47.891 56.7449 46.2722 56.7449C46.2134 56.7449 46.1557 56.7498 46.0986 56.7564H27.7213C26.9446 56.7564 26.3151 57.3859 26.3151 58.1627C26.3151 58.9394 26.9446 59.5689 27.7213 59.5689H46.3864C47.701 59.5689 48.9737 59.097 49.9702 58.2401L65.1032 45.2241C65.825 44.61 66.8511 44.4628 67.7174 44.849C68.4738 45.1862 68.994 45.8465 69.145 46.6611C69.2956 47.4752 69.0467 48.2783 68.4612 48.8639L64.087 53.2403C63.5382 53.7896 63.5382 54.68 64.0875 55.2288C64.6368 55.7781 65.5273 55.7781 66.0766 55.2288L70.4502 50.8524C71.6818 49.6203 72.2278 47.8619 71.9103 46.1486ZM7.8752 69.1879H2.81273V47.813H7.8752V69.1879Z" fill="#99A537"/>
<path d="M38.5317 42.97C39.6429 42.97 40.7652 42.8475 41.8808 42.5992C41.8819 42.5992 41.8836 42.5987 41.8852 42.5987C41.8979 42.5954 41.9105 42.5932 41.9231 42.5905C41.9303 42.5888 41.9374 42.5855 41.9446 42.5839C41.9473 42.5833 41.9506 42.5822 41.9533 42.5817C41.9561 42.5822 41.9594 42.5833 41.9621 42.5839C41.9693 42.5861 41.9759 42.5888 41.9836 42.5905C41.9956 42.5932 42.0083 42.5954 42.0209 42.5981C42.0226 42.5987 42.0242 42.5992 42.0259 42.5992C43.1415 42.8475 44.2632 42.97 45.375 42.97C49.3608 42.97 53.2077 41.4056 56.1009 38.5118C59.8115 34.8012 61.3364 29.5234 60.1796 24.3944C60.0598 23.8649 59.6467 23.4513 59.1172 23.3315C53.9877 22.1747 48.7099 23.6996 44.9993 27.4102C44.4253 27.9842 43.904 28.5961 43.4365 29.2383V22.964C49.0966 22.2335 53.4845 17.3869 53.4845 11.5312C53.4845 5.17288 48.3116 0 41.9533 0C35.595 0 30.4222 5.17288 30.4222 11.5312C30.4222 17.4396 34.8897 22.3219 40.624 22.9833V29.4575C40.1175 28.7346 39.5452 28.049 38.9069 27.4102C35.1962 23.6996 29.9184 22.1747 24.789 23.3315C24.2594 23.4513 23.8458 23.8644 23.7266 24.3939C22.5697 29.5234 24.0946 34.8012 27.8052 38.5118C30.699 41.4056 34.5459 42.97 38.5317 42.97ZM46.9883 29.3992C49.7975 26.5901 53.7092 25.3189 57.6044 25.9073C58.1932 29.8019 56.9216 33.7141 54.1124 36.5233C51.7481 38.8875 48.6022 40.1625 45.3443 40.1559L51.5449 33.9558C52.0937 33.4065 52.0937 32.516 51.5449 31.9667C50.9956 31.418 50.1052 31.418 49.5558 31.9667L43.3645 38.158C43.3651 38.0427 43.3623 37.9273 43.3596 37.812C43.3623 37.7125 43.3667 37.6126 43.3717 37.5131C43.4134 37.3797 43.4365 37.2379 43.4365 37.0902V36.7265C43.7518 33.9926 44.9751 31.4125 46.9883 29.3992ZM33.2346 11.5317C33.2346 6.72414 37.1463 2.81303 41.9533 2.81303C46.7609 2.81303 50.672 6.72414 50.672 11.5317C50.672 16.3393 46.7609 20.2504 41.9533 20.2504C37.1463 20.2504 33.2346 16.3393 33.2346 11.5317ZM26.3023 25.9073C30.1964 25.3184 34.1086 26.5901 36.9183 29.3992C39.1963 31.6778 40.4631 34.6809 40.5466 37.8125C40.5444 37.9279 40.5416 38.0427 40.5416 38.158L34.3508 31.9673C33.8015 31.418 32.9111 31.418 32.3618 31.9673C31.8125 32.516 31.8125 33.4065 32.3618 33.9558L38.5619 40.1564C35.3034 40.1625 32.1585 38.8875 29.7943 36.5233C26.9846 33.7141 25.7129 29.8019 26.3023 25.9073Z" fill="#99A537"/>
<path d="M43.3596 15.4687V12.9375H45.8908C46.6675 12.9375 47.2971 12.3079 47.2971 11.5312C47.2971 10.7545 46.6675 10.125 45.8908 10.125H43.3596V7.59374C43.3596 6.81701 42.7301 6.1875 41.9533 6.1875C41.1772 6.1875 40.5471 6.81701 40.5471 7.59374V10.125H38.0159C37.2397 10.125 36.6096 10.7545 36.6096 11.5312C36.6096 12.3079 37.2397 12.9375 38.0159 12.9375H40.5471V15.4687C40.5471 16.2454 41.1772 16.8749 41.9533 16.8749C42.7301 16.8749 43.3596 16.2454 43.3596 15.4687Z" fill="#99A537"/>
<path d="M60.6081 57.3027C60.2379 57.3027 59.8754 57.4532 59.6139 57.7147C59.3519 57.9762 59.2019 58.3393 59.2019 58.709C59.2019 59.0803 59.3519 59.4418 59.6139 59.7032C59.8754 59.9647 60.2379 60.1152 60.6081 60.1152C60.9789 60.1152 61.3404 59.9647 61.6019 59.7032C61.865 59.4418 62.0144 59.0803 62.0144 58.709C62.0144 58.3393 61.865 57.9762 61.6019 57.7147C61.3404 57.4532 60.9778 57.3027 60.6081 57.3027Z" fill="#99A537"/>
</g>
<defs>
<clipPath id="clip0_224_2501">
<rect width="72" height="72" fill="white"/>
</clipPath>
</defs>
</svg>
