<svg width="72" height="72" viewBox="0 0 72 72" fill="none" xmlns="http://www.w3.org/2000/svg">
<g clip-path="url(#clip0_224_2507)">
<path d="M70.9494 26.6357L67.2674 21.8489C69.1994 20.115 70.5515 17.8186 71.123 15.2489C71.8058 12.18 71.3156 8.98935 69.7425 6.26486C66.2876 0.281215 58.6086 -1.77643 52.6245 1.67819C52.4165 1.79829 52.2133 1.92654 52.0124 2.05831C50.4222 0.366153 47.832 -0.0429284 45.786 1.13847L29.8629 10.3316C27.6718 11.5967 26.7475 14.3142 27.713 16.6529L28.4063 18.3324L25.2524 17.4951L23.8049 15.763C23.1379 14.9648 22.0926 14.6082 21.0766 14.8325C20.0609 15.0567 19.2627 15.82 18.9934 16.8249L17.0977 23.8995C16.8284 24.9043 17.1381 25.9646 17.9058 26.6666C18.6734 27.3685 19.7571 27.5828 20.7339 27.2248L22.4748 26.5873L34.0913 32.1036L39.3625 44.8726C39.9197 46.2224 41.032 47.2661 42.4144 47.7361C42.9455 47.9168 43.4965 48.0061 44.0458 48.0061C44.9258 48.0061 45.8006 47.7767 46.5793 47.3273L52.4594 43.9323C53.132 43.5438 53.3625 42.6839 52.9741 42.0113C52.5857 41.3387 51.7258 41.1081 51.0532 41.4966L45.173 44.8916C44.6022 45.2211 43.9442 45.2859 43.32 45.0734C42.6959 44.8612 42.2137 44.4087 41.9622 43.7995L32.0599 19.8124L52.8979 7.78151L68.7202 28.3507C69.1221 28.8733 69.2728 29.5171 69.1446 30.1637C69.0163 30.8103 68.6314 31.3479 68.0605 31.6775L62.0127 35.1693C61.3401 35.5577 61.1096 36.4176 61.498 37.0902C61.8863 37.7627 62.7462 37.9931 63.419 37.6049L69.4667 34.1132C70.7313 33.3832 71.6194 32.1429 71.9034 30.7107C72.1873 29.2786 71.8397 27.793 70.9494 26.6357ZM67.3069 7.67126C69.6079 11.6567 68.8176 16.5681 65.5489 19.6151L53.7543 4.28175C53.8459 4.22479 53.9373 4.16784 54.0306 4.11398C58.6717 1.43421 64.6274 3.03046 67.3069 7.67126ZM23.1483 23.7933C22.8074 23.6315 22.4158 23.6132 22.0614 23.7433L19.8325 24.5595L21.6918 17.6207L23.3806 19.6415C23.5669 19.8645 23.818 20.0244 24.0988 20.0989L29.7553 21.6006L32.4923 28.2307L23.1483 23.7933ZM30.9772 17.1895L30.3128 15.5798C29.8833 14.5393 30.2945 13.3301 31.2693 12.7673L47.1923 3.57412C48.1672 3.01147 49.4198 3.25996 50.1062 4.15181L51.1681 5.53233L30.9772 17.1895Z" fill="#99A537"/>
<path d="M21.469 59.1533H18.2357C16.1728 59.1533 14.2871 59.9202 12.8439 61.1817V57.0894L14.7184 55.215C16.2679 53.6653 17.1214 51.605 17.1214 49.4136C17.1214 47.2221 16.2679 45.1618 14.7184 43.6123L12.4322 41.326C12.1685 41.0623 11.8108 40.9141 11.4378 40.9141C11.0649 40.9141 10.7071 41.0623 10.4435 41.326L8.1573 43.6123C6.6076 45.162 5.75428 47.2221 5.75428 49.4136C5.75428 51.605 6.6076 53.6653 8.15716 55.215L10.0316 57.0894V61.1817C8.58846 59.9202 6.70252 59.1533 4.63968 59.1533H1.40626C0.629583 59.1533 0 59.783 0 60.5595V63.7927C0 68.3166 3.68047 71.9971 8.20441 71.9971H14.6708C19.1946 71.9971 22.8751 68.3166 22.8751 63.7927V60.5595C22.8752 59.783 22.2455 59.1533 21.469 59.1533ZM10.1458 45.6011L11.4377 44.3092L12.7296 45.6011C13.748 46.6194 14.3088 47.9734 14.3088 49.4136C14.3088 50.8538 13.748 52.2077 12.7296 53.2262L11.4378 54.5181L10.1459 53.2262C9.12748 52.2079 8.56666 50.8538 8.56666 49.4136C8.56652 47.9734 9.12734 46.6194 10.1458 45.6011ZM2.81252 63.7928V61.9659H4.63954C7.61265 61.9659 10.0314 64.3846 10.0314 67.3577V69.1847H8.20441C5.23129 69.1846 2.81252 66.7658 2.81252 63.7928ZM20.0627 63.7928C20.0627 66.7659 17.6439 69.1847 14.671 69.1847H12.8438V67.3575C12.8438 64.3844 15.2626 61.9658 18.2355 61.9658H20.0626V63.7928H20.0627Z" fill="#99A537"/>
<path d="M57.2363 38.1445C56.8665 38.1445 56.5037 38.295 56.2421 38.5566C55.9805 38.8181 55.8301 39.1809 55.8301 39.5508C55.8301 39.922 55.9805 40.2834 56.2421 40.545C56.5037 40.8064 56.8651 40.957 57.2363 40.957C57.6062 40.957 57.969 40.8066 58.2305 40.545C58.4921 40.2834 58.6426 39.9206 58.6426 39.5508C58.6426 39.1809 58.4921 38.8195 58.2305 38.5566C57.969 38.295 57.6062 38.1445 57.2363 38.1445Z" fill="#99A537"/>
<path d="M8.4375 38.9512C9.21417 38.9512 9.84375 38.3215 9.84375 37.5449V37.1934C9.84375 36.4168 9.21417 35.7871 8.4375 35.7871C7.66083 35.7871 7.03125 36.4168 7.03125 37.1934V37.5449C7.03125 38.3216 7.66083 38.9512 8.4375 38.9512Z" fill="#99A537"/>
<path d="M8.4375 31.034C9.21417 31.034 9.84375 30.4043 9.84375 29.6278V28.8711C9.84375 28.0946 9.21417 27.4648 8.4375 27.4648C7.66083 27.4648 7.03125 28.0946 7.03125 28.8711V29.6278C7.03125 30.4043 7.66083 31.034 8.4375 31.034Z" fill="#99A537"/>
<path d="M12.4114 22.094C11.6371 22.1546 11.0586 22.8313 11.1191 23.6056C11.1767 24.3426 11.7927 24.9025 12.5196 24.9025C12.5563 24.9025 12.5934 24.9009 12.6308 24.8981C12.711 24.8918 12.7924 24.8887 12.8725 24.8887C13.6492 24.8887 14.2788 24.259 14.2788 23.4824C14.2788 22.7059 13.6492 22.0762 12.8725 22.0762C12.7194 22.076 12.5643 22.0821 12.4114 22.094Z" fill="#99A537"/>
<path d="M2.8125 38.9512C3.58917 38.9512 4.21875 38.3215 4.21875 37.5449V37.1934C4.21875 36.4168 3.58917 35.7871 2.8125 35.7871C2.03583 35.7871 1.40625 36.4168 1.40625 37.1934V37.5449C1.40625 38.3216 2.03583 38.9512 2.8125 38.9512Z" fill="#99A537"/>
<path d="M3.85603 22.7421C4.10929 22.9325 4.40615 23.0247 4.70034 23.0247C5.12714 23.0247 5.54887 22.8311 5.8252 22.4638C5.95415 22.2924 6.09225 22.1236 6.2354 21.9622C6.75079 21.3811 6.69736 20.4924 6.11629 19.977C5.53523 19.462 4.64634 19.5152 4.13109 20.0962C3.93801 20.3139 3.75197 20.5416 3.57773 20.7731C3.11086 21.3935 3.23545 22.2751 3.85603 22.7421Z" fill="#99A537"/>
<path d="M2.8125 30.986C3.58917 30.986 4.21875 30.3562 4.21875 29.5797V28.8184C4.21875 28.0418 3.58917 27.4121 2.8125 27.4121C2.03583 27.4121 1.40625 28.0418 1.40625 28.8184V29.5797C1.40625 30.3562 2.03583 30.986 2.8125 30.986Z" fill="#99A537"/>
<path d="M11.8819 19.2701C11.8992 19.2701 11.9167 19.2699 11.9341 19.2692C12.0337 19.2656 12.1338 19.2637 12.2343 19.2637C13.011 19.2637 13.6406 18.634 13.6406 17.8574C13.6406 17.0809 13.011 16.4512 12.2343 16.4512C12.0995 16.4512 11.9652 16.4537 11.8315 16.4586C11.0553 16.4869 10.4491 17.1391 10.4775 17.9151C10.5052 18.6739 11.1289 19.2701 11.8819 19.2701Z" fill="#99A537"/>
</g>
<defs>
<clipPath id="clip0_224_2507">
<rect width="72" height="72" fill="white"/>
</clipPath>
</defs>
</svg>
