<svg width="72" height="72" viewBox="0 0 72 72" fill="none" xmlns="http://www.w3.org/2000/svg">
<g clip-path="url(#clip0_224_2521)">
<path d="M51.1368 36.8819C51.0126 36.4577 50.6938 36.1114 50.2701 35.9564C50.1846 35.9252 49.4915 35.68 48.4149 35.5224C53.0144 30.6283 51.4958 24.9103 51.1368 23.7936C51.0126 23.3694 50.6938 23.023 50.2701 22.868C50.0727 22.7957 46.63 21.5819 42.7077 22.9469C42.9292 22.0383 43.0587 21.0395 43.0587 19.9434C43.0587 12.9309 37.7483 9.84868 36.6826 9.30151C36.2949 9.08917 35.8243 9.06976 35.4153 9.25989C35.1517 9.38237 28.9566 12.3472 28.9566 19.9434C28.9566 21.0417 29.0867 22.0427 29.309 22.9527C25.3798 21.5785 21.9279 22.7956 21.7301 22.868C21.3064 23.023 20.9876 23.3694 20.8635 23.7936C20.5044 24.9103 18.9858 30.6283 23.5854 35.5224C22.5088 35.68 21.8156 35.9252 21.7301 35.9564C21.3064 36.1114 20.9875 36.4579 20.8633 36.882C20.4969 38.0221 18.921 43.957 23.8797 48.9157C26.7493 51.7853 29.9342 52.4699 32.3203 52.4699C33.2037 52.4699 33.9759 52.3758 34.5838 52.2641V61.4656C34.5838 62.2422 35.2134 62.8719 35.9901 62.8719C36.7667 62.8719 37.3963 62.2422 37.3963 61.4656V52.2606C38.0071 52.3737 38.7868 52.4697 39.6798 52.4697C42.0658 52.4697 45.2511 51.7849 48.1204 48.9156C53.0791 43.9567 51.5033 38.0219 51.1368 36.8819ZM34.5838 47.8804C34.5526 48.5187 34.463 49.0552 34.3774 49.4409C32.8742 49.7749 29.1134 50.1718 25.8686 46.9269C22.6726 43.7312 23.0076 40.0326 23.3614 38.4188C24.3065 38.2133 26.1508 37.9844 28.1927 38.647C28.3271 38.6973 28.4611 38.7449 28.5945 38.7892C29.6759 39.1992 30.7986 39.8686 31.8627 40.9326C33.8904 42.9602 34.4959 45.1892 34.5838 46.9422V47.8804ZM34.5838 34.7923C34.5526 35.4306 34.463 35.9671 34.3774 36.3527C33.446 36.5598 31.648 36.7898 29.6431 36.164C29.4399 36.0857 29.2378 36.0144 29.0371 35.9498C27.9884 35.5355 26.9023 34.8723 25.8684 33.8386C22.6726 30.6428 23.0076 26.9443 23.3614 25.3307C24.8631 25.0041 28.6345 24.6163 31.8627 27.8445C31.8833 27.865 31.9018 27.8857 31.9219 27.9061C32.0453 28.0444 32.169 28.1768 32.2926 28.3039C33.9758 30.2039 34.5025 32.2325 34.5838 33.8541V34.7923ZM36.0099 27.7366C35.5692 27.4539 34.9341 26.9881 34.2891 26.3146C34.2233 26.2425 34.1567 26.1703 34.0884 26.0985C32.9135 24.7933 31.7689 22.7912 31.7689 19.9434C31.7689 15.3595 34.7024 12.9811 36.0005 12.1531C37.3907 13.0427 40.2461 15.4211 40.2461 19.9434C40.2461 22.6308 39.2377 24.559 38.1419 25.8624C37.9141 26.0904 37.7009 26.3208 37.5 26.5523C36.9377 27.0989 36.3993 27.4885 36.0099 27.7366ZM37.405 34.3366C37.4031 32.6856 37.8302 30.5009 39.5787 28.4492C39.7858 28.2433 39.9941 28.0218 40.2005 27.7837C43.4274 24.6097 47.1444 24.9974 48.6382 25.3278C48.9921 26.9401 49.3293 30.6409 46.1315 33.8386C45.0996 34.8707 44.0157 35.5333 42.9687 35.9478C42.7647 36.0134 42.5592 36.0858 42.3525 36.1655C40.3479 36.7903 38.551 36.5596 37.6233 36.3531C37.5192 35.8844 37.409 35.1961 37.4049 34.3724C37.4049 34.3605 37.405 34.3485 37.405 34.3366ZM46.1315 46.9269C42.8862 50.1723 39.1252 49.7748 37.6255 49.4421C37.2986 47.9461 36.9033 44.1667 40.1374 40.9326C41.1721 39.8979 42.259 39.2345 43.3086 38.8202C43.5089 38.7558 43.7104 38.685 43.913 38.6068C45.9136 37.9824 47.7075 38.2102 48.6382 38.4159C48.9921 40.0284 49.3293 43.7292 46.1315 46.9269Z" fill="#99A537"/>
<path d="M43.5032 0.783422C41.052 0.263672 38.5275 0 36 0C26.3841 0 17.3437 3.74456 10.5442 10.5442C3.7447 17.3437 0 26.3841 0 36C0 44.0125 2.69578 51.834 7.60725 58.1317C7.05473 58.9864 6.75731 59.982 6.75731 61.0241C6.75731 62.4514 7.3132 63.7933 8.32247 64.8027C9.33173 65.8119 10.6737 66.3678 12.1011 66.3678C13.5284 66.3678 14.8704 65.8119 15.8797 64.8027C16.8891 63.7933 17.4448 62.4514 17.4448 61.0241C17.4448 59.5967 16.8889 58.2549 15.8797 57.2455C14.8704 56.2361 13.5284 55.6802 12.1011 55.6802C11.2551 55.6802 10.4396 55.8769 9.70509 56.2462C5.25403 50.4682 2.8125 43.3211 2.8125 36C2.8125 17.7003 17.7003 2.8125 36 2.8125C38.3318 2.8125 40.6599 3.0555 42.9197 3.53475C43.68 3.69577 44.426 3.21047 44.5871 2.45081C44.7483 1.69102 44.263 0.944578 43.5032 0.783422ZM10.3112 59.2341C10.8046 58.7405 11.4528 58.4938 12.1011 58.4938C12.7493 58.4938 13.3975 58.7406 13.8909 59.2341C14.3691 59.712 14.6323 60.3478 14.6323 61.0239C14.6323 61.7001 14.3691 62.3357 13.8909 62.8138C12.904 63.801 11.2981 63.8007 10.3112 62.8138C9.83306 62.3358 9.56981 61.7001 9.56981 61.0239C9.56981 60.3478 9.83306 59.7122 10.3112 59.2341Z" fill="#99A537"/>
<path d="M64.3927 13.8689C64.9452 13.0142 65.2426 12.0186 65.2426 10.9766C65.2426 9.54922 64.6867 8.20723 63.6774 7.19797C62.6682 6.18856 61.3262 5.63281 59.8988 5.63281C58.4715 5.63281 57.1295 6.1887 56.1203 7.19797C55.111 8.20723 54.5551 9.54922 54.5551 10.9766C54.5551 12.4039 55.111 13.7459 56.1203 14.7552C57.1295 15.7646 58.4715 16.3203 59.8988 16.3203C60.745 16.3203 61.5603 16.1236 62.295 15.7543C66.7459 21.5324 69.1874 28.6796 69.1874 36.0006C69.1874 54.3003 54.2996 69.1881 35.9999 69.1881C34.0313 69.1881 32.0589 69.0146 30.1375 68.6722C29.3734 68.5362 28.6426 69.0451 28.5064 69.81C28.3702 70.5746 28.8795 71.3048 29.6441 71.4411C31.728 71.8123 33.8664 72.0006 35.9999 72.0006C45.6159 72.0006 54.6562 68.2559 61.4558 61.4566C68.2555 54.6572 71.9999 45.6166 71.9999 36.0006C71.9999 27.9881 69.3041 20.1667 64.3927 13.8689ZM61.6889 12.7664C61.2109 13.2446 60.5751 13.5078 59.899 13.5078C59.2229 13.5078 58.5871 13.2447 58.1091 12.7664C57.1221 11.7795 57.1221 10.1737 58.1091 9.18669C58.5871 8.70856 59.2229 8.44531 59.899 8.44531C60.5751 8.44531 61.2107 8.70856 61.6889 9.18669C62.167 9.66467 62.4302 10.3004 62.4302 10.9766C62.4302 11.6527 62.167 12.2883 61.6889 12.7664Z" fill="#99A537"/>
<path d="M23.6439 66.8113L23.1129 68.1135L23.64 66.8098C22.9196 66.519 22.1003 66.8665 21.8092 67.5865C21.5181 68.3065 21.8658 69.1262 22.5858 69.4174L22.6293 69.4346C22.7951 69.498 22.9658 69.5281 23.1337 69.5281C23.7002 69.5281 24.2355 69.1852 24.4498 68.626C24.7277 67.9005 24.3693 67.0891 23.6439 66.8113Z" fill="#99A537"/>
<path d="M49.4753 2.60708L49.4502 2.5971C48.7292 2.30854 47.9108 2.65939 47.6222 3.38052C47.3337 4.10164 47.6845 4.9198 48.4057 5.20836L48.4217 5.21483C48.5944 5.28458 48.7726 5.31749 48.9481 5.31749C49.5044 5.31749 50.0312 4.98519 50.2524 4.43774C50.5433 3.7176 50.1954 2.89804 49.4753 2.60708Z" fill="#99A537"/>
</g>
<defs>
<clipPath id="clip0_224_2521">
<rect width="72" height="72" fill="white"/>
</clipPath>
</defs>
</svg>
