<svg width="28" height="28" viewBox="0 0 28 28" fill="none" xmlns="http://www.w3.org/2000/svg">
<g clip-path="url(#clip0_178_69533)">
<path d="M26.8721 8.62214C26.1529 6.96527 25.1299 5.46684 23.8316 4.16845C22.5332 2.87005 21.0347 1.84707 19.3779 1.12793C17.6536 0.379477 15.8442 0 14 0C12.1558 0 10.3464 0.379477 8.62214 1.12793C6.96527 1.84707 5.46684 2.87005 4.16845 4.16845C2.87005 5.46684 1.84707 6.96527 1.12793 8.62214C0.379477 10.3464 0 12.1558 0 14C0 15.8442 0.379477 17.6536 1.12793 19.3779C1.84702 21.0347 2.87 22.5332 4.16845 23.8316C5.46684 25.1299 6.96527 26.1529 8.62214 26.8721C10.3464 27.6205 12.1558 28 14 28C15.8442 28 17.6536 27.6205 19.3779 26.8721C21.0347 26.1529 22.5332 25.1299 23.8316 23.8316C25.1299 22.5332 26.1529 21.0347 26.8721 19.3779C27.6205 17.6536 28 15.8442 28 14C28 12.1558 27.6205 10.3464 26.8721 8.62214ZM14 26.9062C7.0041 26.9062 1.09375 20.9959 1.09375 14C1.09375 7.0041 7.0041 1.09375 14 1.09375C20.9959 1.09375 26.9062 7.0041 26.9062 14C26.9062 20.9959 20.9959 26.9062 14 26.9062Z" fill="white"/>
<path d="M24.7174 9.50491C24.1229 8.12372 23.2757 6.8775 22.1991 5.80098C21.1225 4.7244 19.8763 3.87713 18.4951 3.28267C17.0597 2.66481 15.5473 2.35156 14 2.35156C11.8966 2.35156 9.70402 3.06983 7.65926 4.42865C7.40769 4.59583 7.33928 4.93527 7.50646 5.18678C7.67364 5.43834 8.01309 5.5067 8.26459 5.33958C10.1294 4.10036 12.1127 3.44531 14 3.44531C19.7212 3.44531 24.5547 8.27876 24.5547 14C24.5547 19.7212 19.7212 24.5547 14 24.5547C8.27876 24.5547 3.44531 19.7212 3.44531 14C3.44531 12.1131 4.1002 10.1297 5.33909 8.26454C5.50621 8.01292 5.43774 7.67353 5.18618 7.50641C4.93451 7.33928 4.59517 7.4078 4.42805 7.65937C3.06961 9.70452 2.35156 11.897 2.35156 14C2.35156 15.5473 2.66481 17.0597 3.28262 18.4951C3.87707 19.8763 4.72434 21.1225 5.80092 22.199C6.8775 23.2757 8.12366 24.1229 9.50491 24.7174C10.9403 25.3352 12.4527 25.6484 14 25.6484C15.5473 25.6484 17.0597 25.3352 18.4951 24.7174C19.8763 24.1229 21.1225 23.2757 22.199 22.1991C23.2756 21.1225 24.1229 19.8763 24.7173 18.4951C25.3352 17.0597 25.6484 15.5473 25.6484 14C25.6484 12.4527 25.3352 10.9403 24.7174 9.50491Z" fill="white"/>
<path d="M6.28906 5.74219C5.98719 5.74219 5.74219 5.98719 5.74219 6.28906C5.74219 6.59094 5.98719 6.83594 6.28906 6.83594C6.59094 6.83594 6.83594 6.59094 6.83594 6.28906C6.83594 5.98719 6.59094 5.74219 6.28906 5.74219Z" fill="white"/>
<path d="M20.4685 9.71901C20.0552 9.30573 19.506 9.07812 18.9219 9.07812C18.3378 9.07812 17.7885 9.30573 17.3753 9.71901L12.3594 14.7349L10.6247 13.0003C10.2115 12.587 9.66224 12.3594 9.07812 12.3594C8.49401 12.3594 7.94478 12.587 7.53167 13.0001C7.11829 13.4131 6.89062 13.9624 6.89062 14.5469C6.89062 15.1313 7.11829 15.6806 7.53151 16.0935L10.8128 19.3747C11.226 19.788 11.7753 20.0156 12.3594 20.0156C12.9434 20.0156 13.4927 19.788 13.906 19.3747L20.4683 12.8124C20.8817 12.3994 21.1094 11.8501 21.1094 11.2656C21.1094 10.6812 20.8817 10.1319 20.4685 9.71901ZM19.6951 12.0389L13.1326 18.6014C12.9259 18.808 12.6513 18.9219 12.3594 18.9219C12.0675 18.9219 11.7929 18.808 11.5861 18.6014L8.30473 15.3199C8.09818 15.1135 7.98438 14.839 7.98438 14.5469C7.98438 14.2548 8.09818 13.9803 8.3049 13.7736C8.51162 13.567 8.7862 13.4531 9.07812 13.4531C9.37005 13.4531 9.64463 13.567 9.85135 13.7736L12.3594 16.2817L18.1486 10.4924C18.3554 10.2857 18.63 10.1719 18.9219 10.1719C19.2138 10.1719 19.4884 10.2857 19.6953 10.4926C19.9018 10.699 20.0156 10.9735 20.0156 11.2656C20.0156 11.5577 19.9018 11.8322 19.6951 12.0389Z" fill="white"/>
</g>
<defs>
<clipPath id="clip0_178_69533">
<rect width="28" height="28" fill="white"/>
</clipPath>
</defs>
</svg>
