<svg width="80" height="80" viewBox="0 0 80 80" fill="none" xmlns="http://www.w3.org/2000/svg">
<g clip-path="url(#clip0_487_171)">
<path d="M22.84 11.0706L22.4947 14.8191C22.4303 15.5162 22.7301 16.1783 23.2965 16.59C23.8629 17.0016 24.5854 17.0822 25.229 16.8056L28.6872 15.3187L32.1454 16.8058C32.3983 16.9144 32.6631 16.9678 32.9259 16.9678C33.3323 16.9678 33.7337 16.84 34.0778 16.59C34.6442 16.1783 34.944 15.5162 34.8797 14.8191L34.5344 11.0706L37.0172 8.24109C37.479 7.71469 37.6254 7.00266 37.409 6.33672C37.1926 5.67062 36.6556 5.18109 35.9726 5.02672L32.3009 4.19672L30.3772 0.96125C30.0192 0.359375 29.3875 0 28.6872 0C27.9868 0 27.3551 0.359375 26.9972 0.96125L25.0734 4.19687L21.4017 5.02672C20.7186 5.18094 20.1817 5.67078 19.9653 6.33672C19.7489 7.00266 19.8953 7.71453 20.3573 8.24109L22.84 11.0706ZM25.7486 6.44719C26.2726 6.32875 26.7306 5.99594 27.0051 5.53422L28.6873 2.70516L30.3695 5.53437C30.644 5.99609 31.102 6.32875 31.6261 6.44719L34.8365 7.17297L32.6656 9.64687C32.3111 10.0509 32.1362 10.5894 32.1856 11.1241L32.4876 14.4017L29.4636 13.1016C29.2168 12.9955 28.9522 12.9425 28.6873 12.9425C28.4225 12.9425 28.1575 12.9955 27.9106 13.1017L24.8867 14.4017L25.1887 11.1241C25.2379 10.5891 25.0631 10.0506 24.7087 9.64703L22.5378 7.17266L25.7486 6.44719Z" fill="#99A537"/>
<path d="M5.09765 16.8179L7.84625 15.6363L10.5948 16.8179C10.8292 16.9188 11.0745 16.9684 11.3183 16.9684C11.6948 16.9684 12.067 16.8498 12.3859 16.6181C12.9111 16.2367 13.1891 15.6229 13.1294 14.9765L12.8547 11.9973L14.8281 9.74838C15.2561 9.26041 15.3919 8.60057 15.1914 7.98322C14.9908 7.36603 14.4931 6.91213 13.86 6.769L10.9417 6.10947L9.41265 3.53791C9.08094 2.9801 8.49531 2.64697 7.84625 2.64697C7.19719 2.64697 6.61172 2.9801 6.27984 3.53791L4.75094 6.10963L1.8325 6.76916C1.19937 6.91229 0.701717 7.36619 0.501092 7.98338C0.300467 8.60072 0.436248 9.26057 0.864529 9.74869L2.83781 11.9973L2.56328 14.9765C2.50375 15.6229 2.78172 16.2365 3.30687 16.6181C3.83187 16.9996 4.50156 17.0742 5.09765 16.8179ZM3.20453 8.86182L5.48625 8.34619C5.97172 8.23635 6.39609 7.92807 6.65078 7.5001L7.84609 5.48947L9.04187 7.50041C9.2964 7.92822 9.72078 8.2365 10.2064 8.34619L12.488 8.86182L10.945 10.6201C10.6167 10.9943 10.4547 11.4932 10.5002 11.9893L10.7148 14.3184L8.56578 13.3945C8.10844 13.1979 7.58375 13.1978 7.1264 13.3946L4.9775 14.3185L5.19219 11.9895C5.23781 11.4938 5.07594 10.9949 4.74734 10.6199L3.20453 8.86182Z" fill="#99A537"/>
<path d="M43.4939 11.9973L43.2194 14.9765C43.1598 15.6229 43.4378 16.2365 43.963 16.6181C44.4881 16.9996 45.1577 17.0742 45.7539 16.8178L48.5025 15.6362L51.2511 16.8179C51.4853 16.9187 51.7308 16.9682 51.9745 16.9682C52.3511 16.9682 52.7233 16.8496 53.0422 16.6179C53.5673 16.2365 53.8453 15.6228 53.7856 14.9763L53.5111 11.9973L55.4845 9.74838C55.9125 9.26041 56.0483 8.60057 55.8478 7.98322C55.6472 7.36603 55.1495 6.91213 54.5164 6.769L51.598 6.10947L50.0687 3.53791C49.737 2.9801 49.1514 2.64697 48.5023 2.64697C47.8533 2.64697 47.2678 2.9801 46.9361 3.53791L45.4072 6.10963L42.4887 6.76916C41.8556 6.91228 41.358 7.36619 41.1573 7.98338C40.9567 8.60072 41.0925 9.26057 41.5208 9.74853L43.4939 11.9973ZM46.1425 8.34619C46.628 8.23635 47.0523 7.92807 47.307 7.5001L48.5023 5.48947L49.698 7.50041C49.9525 7.92822 50.377 8.2365 50.8625 8.34619L53.1441 8.86182L51.6011 10.6201C51.2728 10.9943 51.1108 11.4932 51.1562 11.9893L51.3709 14.3185L49.2219 13.3945C48.7645 13.1979 48.2398 13.1978 47.7825 13.3946L45.6336 14.3185L45.8483 11.9895C45.8941 11.4937 45.7319 10.9946 45.4033 10.6201L43.8605 8.86182L46.1425 8.34619Z" fill="#99A537"/>
<path d="M79.5901 62.6328C79.5901 61.3535 79.0429 60.1999 78.1702 59.3935C79.0429 58.5871 79.5901 57.4334 79.5901 56.1543C79.5901 53.7221 77.6112 51.7432 75.1807 51.7432L63.4076 51.7253C62.5133 51.7238 61.7858 50.9951 61.7858 50.1009V41.7357C61.7858 39.5951 60.7046 37.6356 58.8935 36.4942C58.0252 35.9467 56.9762 35.8413 56.0151 36.2051C55.0529 36.5692 54.3354 37.344 54.0463 38.3307L49.3677 54.3062C48.7683 56.3531 46.8602 57.7824 44.7274 57.7824H42.6993V57.1135C42.6993 55.7585 41.5969 54.6562 40.2419 54.6562H32.4913C31.1363 54.6562 30.034 55.7585 30.034 57.1135V64.6388H10.0147C8.98209 64.6388 8.01819 64.1776 7.37037 63.3732C6.72256 62.569 6.47725 61.529 6.69725 60.5199C7.65256 56.1396 10.1016 52.1782 13.5932 49.366C17.0849 46.5537 21.4769 45.0049 25.9604 45.0049H28.1916C34.6844 45.0049 40.8599 47.8117 45.1346 52.7054C45.5604 53.1931 46.3005 53.2428 46.7882 52.8171C47.2757 52.3913 47.3255 51.651 46.8997 51.1637C43.5443 47.3223 39.1276 44.647 34.2785 43.4204C38.1127 41.2778 40.7124 37.1798 40.7124 32.4842C40.7124 25.5801 35.0957 19.9634 28.1918 19.9634C25.3241 19.9634 22.5216 20.9576 20.3002 22.7629C19.7979 23.171 19.7216 23.9092 20.1299 24.4115C20.5382 24.9135 21.2763 24.9899 21.7783 24.5818C23.5832 23.1149 25.8608 22.3071 28.1918 22.3071C33.8033 22.3071 38.3687 26.8726 38.3687 32.4842C38.3687 38.0957 33.8033 42.6612 28.1918 42.6612C22.5801 42.6612 18.0147 38.0957 18.0147 32.4842C18.0147 30.9423 18.3504 29.4618 19.0122 28.0838C19.2926 27.5006 19.0468 26.8004 18.4633 26.5201C17.8799 26.2399 17.1799 26.4857 16.8996 27.0692C16.0843 28.7662 15.6708 30.5881 15.6708 32.4842C15.6708 36.9596 18.0326 40.8918 21.5737 43.106C18.1341 43.807 14.878 45.3218 12.123 47.5406C8.21631 50.6873 5.476 55.1193 4.40725 60.0204C4.03537 61.7259 4.44991 63.4837 5.54491 64.8431C6.63975 66.2026 8.26897 66.9823 10.0146 66.9823H30.0338V76.8742C30.0338 78.2292 31.1362 79.3315 32.4912 79.3315H40.2418C41.5968 79.3315 42.6991 78.2292 42.6991 76.8742V76.8371H46.4766C49.0263 76.8371 51.4335 77.3218 53.6315 78.2774C56.1843 79.3874 58.8899 79.9501 61.6686 79.9501L75.1788 80.0007C77.6112 80.0007 79.5899 78.0218 79.5899 75.5896C79.5899 74.3106 79.0427 73.157 78.1701 72.3506C79.0427 71.5442 79.5899 70.3904 79.5899 69.1113C79.5899 67.8323 79.0427 66.6785 78.1701 65.8721C79.0427 65.0654 79.5901 63.9117 79.5901 62.6328ZM40.3554 76.8743C40.3554 76.9368 40.3044 76.9879 40.2418 76.9879H32.4912C32.4285 76.9879 32.3776 76.937 32.3776 76.8743V57.1134C32.3776 57.0509 32.4285 56.9998 32.4912 56.9998H40.2418C40.3044 56.9998 40.3554 57.0507 40.3554 57.1134V76.8743ZM71.3319 60.5653H75.179C76.319 60.5653 77.2463 61.4928 77.2463 62.6326C77.2463 63.7724 76.3188 64.6998 75.179 64.6998H71.3319C70.6847 64.6998 70.1601 65.2243 70.1601 65.8717C70.1601 66.519 70.6847 67.0435 71.3319 67.0435H75.179C76.319 67.0435 77.2463 67.971 77.2463 69.1109C77.2463 70.2507 76.3188 71.1782 75.179 71.1782H71.3319C70.6847 71.1782 70.1601 71.7028 70.1601 72.3501C70.1601 72.9974 70.6847 73.522 71.3319 73.522H75.179C76.319 73.522 77.2463 74.4495 77.2463 75.5892C77.2463 76.7292 76.3188 77.6565 75.1832 77.6565L61.6729 77.606C59.2132 77.606 56.8221 77.1085 54.5658 76.1278C52.0713 75.0431 49.3497 74.4931 46.4766 74.4931H42.6991V60.1257H44.7272C47.8938 60.1257 50.7268 58.0034 51.6168 54.9646L56.2954 38.989C56.3758 38.714 56.576 38.4981 56.8444 38.3965C57.1116 38.2956 57.4029 38.3245 57.6438 38.4763C58.7699 39.186 59.4421 40.4043 59.4421 41.7351V50.1003C59.4421 52.2848 61.2194 54.0648 63.404 54.0684L75.1788 54.0863C76.3188 54.0863 77.2461 55.0138 77.2461 56.1537C77.2461 57.2935 76.3186 58.221 75.1788 58.221H71.3318C70.6846 58.221 70.1599 58.7456 70.1599 59.3929C70.1599 60.0403 70.6846 60.5653 71.3319 60.5653Z" fill="#99A537"/>
</g>
<defs>
<clipPath id="clip0_487_171">
<rect width="80" height="80" fill="white"/>
</clipPath>
</defs>
</svg>
