<svg width="80" height="80" viewBox="0 0 80 80" fill="none" xmlns="http://www.w3.org/2000/svg">
<path d="M75.6503 47.9261C74.5795 46.6203 72.283 45.9942 69.5664 47.5397C68.1064 48.3701 66.7581 49.1017 65.492 49.7479C64.0061 45.4419 61.3217 41.7295 57.6612 38.9539C53.9198 36.117 49.512 34.522 44.8531 34.307V25.2875C45.3266 22.9328 46.1692 20.6984 47.3633 18.6281C48.8902 19.4658 50.5333 20.0604 52.2641 20.3994C53.3631 20.6145 54.4659 20.7208 55.5614 20.7208C58.9017 20.7208 62.1672 19.7317 65.0011 17.8258C68.7639 15.295 71.3161 11.4503 72.1875 6.99982C72.2512 6.67451 72.183 6.33716 71.998 6.06216C71.813 5.78701 71.5262 5.5967 71.2009 5.53295C66.3023 4.57404 61.3014 5.11201 56.7381 7.08888C52.2831 9.01888 48.5323 12.1819 45.8917 16.2362C45.8695 16.2703 45.8494 16.3053 45.8309 16.3406C44.9394 17.7248 44.1958 19.1812 43.6031 20.6983C43.0105 19.1812 42.2667 17.7248 41.3753 16.3406C41.3569 16.3053 41.3367 16.2703 41.3145 16.2362C38.6737 12.1819 34.9231 9.01888 30.4681 7.08888C25.9048 5.11216 20.9039 4.5742 16.0053 5.53295C15.68 5.5967 15.3933 5.78701 15.2083 6.06201C15.0233 6.33716 14.955 6.67435 15.0187 6.99982C15.89 11.4503 18.4423 15.295 22.2053 17.8259C25.0394 19.732 28.3044 20.7209 31.6448 20.7209C32.74 20.7209 33.8434 20.6145 34.9422 20.3995C36.6731 20.0606 38.3162 19.4659 39.843 18.6283C41.0369 20.6986 41.8797 22.9328 42.3531 25.2876V34.3278C33.9983 34.8397 26.5512 39.8639 22.9645 47.4711C20.9439 47.9739 18.7386 48.9059 16.7706 50.2689C16.6291 47.9342 14.6856 46.0779 12.3159 46.0779H8.0575C5.59625 46.0779 3.59375 48.0803 3.59375 50.5417V70.4659C3.59375 72.9272 5.59625 74.9297 8.05766 74.9297H12.3158C14.7772 74.9297 16.7797 72.9272 16.7797 70.4659V69.6664C17.8877 69.1245 21.502 67.4483 24.1683 67.2681L43.9408 67.4842C44.3259 67.5081 44.7195 67.52 45.1225 67.52C49.6397 67.5198 55.2428 66.0283 61.0677 63.2576C66.842 60.5112 72.0426 56.8497 74.9795 53.4629C76.9564 51.1833 76.5764 49.0556 75.6503 47.9261ZM69.4309 7.77248C67.3708 14.8914 60.1525 19.3962 52.7444 17.9459C51.3305 17.6692 49.9856 17.1929 48.7314 16.5264C53.5294 10.0195 61.4198 6.68232 69.4309 7.77248ZM34.4619 17.9459C30.6664 18.6889 26.8094 17.9095 23.6005 15.7514C20.7503 13.8345 18.7148 11.034 17.7747 7.77248C25.7848 6.6817 33.6764 10.019 38.4747 16.5264C37.2206 17.1929 35.8758 17.6692 34.4619 17.9459ZM43.7644 36.7811C52.603 36.7811 60.4756 42.5215 63.2294 50.8523C58.7992 52.9059 55.3097 53.8345 51.2808 54.2648C51.5039 53.6398 51.6214 52.9483 51.6006 52.2331C51.5312 49.847 49.7995 47.2798 45.1472 47.2312L26.6483 47.0375C26.4433 47.0281 26.23 47.0264 26.01 47.0314C29.6408 40.7386 36.3856 36.7811 43.7644 36.7811ZM14.2797 70.4659C14.2797 71.5487 13.3987 72.4297 12.3158 72.4297H8.0575C6.97453 72.4297 6.09359 71.5487 6.09359 70.4659V50.5417C6.09359 49.4589 6.97453 48.5779 8.0575 48.5779H12.3156C13.3986 48.5779 14.2795 49.4589 14.2795 50.5417L14.2797 70.4659ZM73.0909 51.825C70.3686 54.9642 65.4727 58.394 59.9941 61C54.0119 63.8453 48.3559 65.2623 44.0666 64.9872C44.0445 64.9858 44.0225 64.985 44.0005 64.9847L24.1484 64.7676C24.1181 64.7672 24.0881 64.768 24.0578 64.77C21.5641 64.9237 18.5481 66.1119 16.7795 66.905V53.4417C19.955 50.5751 24.3841 49.4314 26.5509 49.5358C26.567 49.5365 26.5831 49.537 26.5991 49.5372L45.1211 49.7311C47.6406 49.7573 49.0542 50.6719 49.1017 52.3058C49.1375 53.5337 48.3792 54.4851 48.0459 54.5081V54.5084C45.6097 54.6279 42.8922 54.6445 39.6416 54.6644C38.1936 54.6733 36.6962 54.6823 35.0541 54.7011C34.3637 54.709 33.8106 55.2751 33.8184 55.9653C33.8264 56.6556 34.3895 57.2059 35.0827 57.2009C36.7181 57.182 38.212 57.1729 39.6567 57.1644C52.9305 57.0839 57.8972 57.0537 70.8025 49.7129C72.2453 48.8922 73.3248 49.0331 73.7172 49.5115C74.1183 50.0006 73.8667 50.9304 73.0909 51.825Z" fill="#99A537"/>
</svg>
