<svg width="80" height="80" viewBox="0 0 80 80" fill="none" xmlns="http://www.w3.org/2000/svg">
<path d="M35.2691 14.5923C35.2691 13.902 35.8287 13.3423 36.5191 13.3423H56.0684C56.7587 13.3423 57.3184 13.902 57.3184 14.5923C57.3184 15.2826 56.7587 15.8423 56.0684 15.8423H36.5191C35.8287 15.8423 35.2691 15.2827 35.2691 14.5923ZM24.9639 17.258C25.208 17.5021 25.5278 17.6241 25.8478 17.6241C26.1678 17.6241 26.4876 17.5021 26.7317 17.258L30.5634 13.4263C31.0517 12.9382 31.0516 12.1468 30.5634 11.6587C30.0753 11.1705 29.2839 11.1705 28.7958 11.6587L25.848 14.6066L24.8159 13.5746C24.3278 13.0865 23.5364 13.0865 23.0483 13.5746C22.56 14.0627 22.5601 14.8541 23.0483 15.3423L24.9639 17.258ZM36.5191 29.1746H56.0684C56.7587 29.1746 57.3184 28.6149 57.3184 27.9246C57.3184 27.2343 56.7587 26.6746 56.0684 26.6746H36.5191C35.8287 26.6746 35.2691 27.2343 35.2691 27.9246C35.2691 28.6149 35.8287 29.1746 36.5191 29.1746ZM24.9639 30.7243C25.208 30.9684 25.5278 31.0904 25.8478 31.0904C26.1678 31.0904 26.4876 30.9684 26.7317 30.7243L30.5634 26.8926C31.0517 26.4045 31.0516 25.613 30.5634 25.1249C30.0753 24.6368 29.2839 24.6368 28.7958 25.1249L25.848 28.0729L24.8159 27.0409C24.3278 26.5527 23.5364 26.5527 23.0483 27.0409C22.56 27.529 22.5601 28.3204 23.0483 28.8085L24.9639 30.7243ZM74.5423 52.8988L69.0147 56.0901C68.4422 56.4207 67.8058 56.5895 67.1598 56.5895C66.8344 56.5895 66.5067 56.5468 66.1834 56.4601C65.2187 56.2016 64.4136 55.5849 63.9165 54.7241L63.7653 54.4623L60.969 55.8901C61.8051 57.2157 61.6842 58.8504 60.9495 60.1135C60.5801 60.7484 60.0523 61.2954 59.42 61.6732C59.7867 62.2735 59.9816 62.9618 59.9789 63.6948C59.9733 65.214 59.1178 66.6832 57.7994 67.4379C57.0669 67.8571 56.2567 68.0198 55.4456 67.926C55.4041 68.6076 55.1942 69.2773 54.8512 69.8662C54.1259 71.1115 52.7906 72.0123 51.2548 71.9729C51.2384 72.709 51.0236 73.4376 50.6537 74.0724C49.9453 75.2885 48.6564 76.1805 47.1645 76.1805C46.485 76.1805 45.7633 75.9954 45.0353 75.5715L41.7341 73.6491L41.0919 74.5623C40.2873 75.706 39.1084 76.3413 37.8162 76.3413C37.6978 76.3413 37.5784 76.336 37.4583 76.3252C35.9762 76.1923 34.6116 75.2512 33.9556 73.9174C32.5633 74.6369 30.9439 74.3751 29.7478 73.5338C28.9755 72.9905 28.3706 72.1996 28.0947 71.289C26.9464 71.5401 25.7436 71.2368 24.8025 70.5748C23.6303 69.7502 22.8444 68.3549 23.008 66.8371C22.2709 66.7598 21.5583 66.4824 20.9536 66.0571C19.278 64.8782 18.3919 62.5326 19.9408 60.3307L20.047 60.1796L15.9031 55.0048C15.4022 55.7185 14.6731 56.2309 13.817 56.4602C13.4939 56.5469 13.1659 56.5896 12.8406 56.5896C12.1947 56.5896 11.5583 56.4209 10.9856 56.0902L5.45811 52.8988C3.67593 51.8701 3.06311 49.583 4.09202 47.8007L13.7933 30.9976C14.0914 30.4813 14.4955 30.0638 14.9619 29.7552V4.9082C14.9619 4.21789 15.5216 3.6582 16.2119 3.6582H63.7884C64.4787 3.6582 65.0384 4.21789 65.0384 4.9082V29.7552C65.5048 30.0637 65.909 30.4812 66.207 30.9974L75.9083 47.8005C76.9372 49.583 76.3244 51.8699 74.5423 52.8988ZM17.4619 6.1582V29.1576C17.9517 29.2146 18.438 29.3696 18.8914 29.6315L24.4191 32.8229C25.28 33.3199 25.8966 34.1249 26.155 35.0898C26.3161 35.6912 26.3256 36.3084 26.1897 36.8965L33.12 39.3721C36.0431 36.7593 38.1994 35.831 42.6473 36.8101C46.8172 37.728 50.3148 37.7365 53.7948 36.8207C53.6766 36.2554 53.6908 35.6654 53.8451 35.0896C54.1036 34.1248 54.7201 33.3196 55.5812 32.8227L61.1087 29.6313C61.5622 29.3694 62.0484 29.2146 62.5383 29.1576V6.1582H17.4619ZM13.9187 53.4741L23.62 36.671C23.7831 36.3884 23.8259 36.0566 23.7403 35.7369C23.6547 35.4173 23.4517 35.1512 23.1691 34.988L17.6416 31.7966C17.4481 31.6849 17.2364 31.6318 17.0275 31.6318C16.6012 31.6318 16.1864 31.8529 15.9584 32.2476L6.25718 49.0507C5.91749 49.6391 6.11983 50.3941 6.70811 50.7337L12.2358 53.9252C12.5186 54.0885 12.8505 54.1313 13.17 54.0454C13.4897 53.9598 13.7556 53.7569 13.9187 53.4741ZM24.6408 63.6376L27.5136 59.5534L27.5141 59.5526C28.387 58.3073 27.3261 57.4674 27.1045 57.3116C26.8828 57.1557 25.7326 56.4416 24.8562 57.6876L21.9855 61.7687C21.1087 63.0151 22.1703 63.8562 22.392 64.0121C22.6136 64.1682 23.7631 64.8826 24.64 63.6385L24.6408 63.6376ZM28.7337 67.8077L32.7469 62.1024L33.357 61.2349C34.2337 59.9885 33.172 59.1474 32.9503 58.9915C32.7284 58.8354 31.578 58.1205 30.7011 59.3668L29.5594 60.9901C29.5592 60.9904 29.5591 60.9905 29.5589 60.9909L29.5584 60.9916L26.6856 65.0759L25.8342 66.2863C24.9575 67.5329 26.0192 68.374 26.2409 68.5299C26.4626 68.6857 27.6133 69.4004 28.49 68.1544L28.7337 67.8077ZM34.3436 69.8215C34.3445 69.8202 34.3455 69.819 34.3464 69.8177L35.7859 67.771L37.4464 65.4104C38.3228 64.1643 37.2616 63.3232 37.04 63.1671C36.8186 63.0115 35.6695 62.2968 34.793 63.5391L34.7917 63.541L30.7787 69.2462L30.778 69.2474C29.9034 70.4929 30.9644 71.3334 31.1861 71.4893C31.4078 71.6452 32.5584 72.3602 33.435 71.1138L34.3436 69.8215ZM40.0794 68.8341C39.8576 68.678 38.7078 67.9635 37.8314 69.2085L37.8308 69.2094L36.3912 71.2562C36.0253 71.7765 35.9553 72.2898 36.1834 72.7818C36.4453 73.3465 37.0614 73.7799 37.6814 73.8354C38.2214 73.8838 38.6809 73.6444 39.047 73.1241L40.4864 71.0777C41.3628 69.8313 40.3011 68.9901 40.0794 68.8341ZM58.2212 56.6485L42.7639 47.7012C41.3744 46.8987 40.0008 47.4769 37.8745 48.4862C37.7712 48.5351 37.6681 48.5841 37.5647 48.6329C37.4095 48.9445 37.253 49.279 37.09 49.6271C36.2872 51.3424 35.3772 53.2863 33.8031 54.136C31.9505 55.1359 30.2972 55.2885 29.1478 54.5654C28.6187 54.2324 27.7441 53.4049 27.8295 51.6021L28.1605 44.6349C28.1755 44.3174 28.3111 44.0176 28.5395 43.7963C29.1897 43.1668 29.773 42.5919 30.3372 42.0362C30.5951 41.7821 30.8434 41.5376 31.0858 41.3001L25.0739 39.1524L17.2558 52.694L21.5447 58.0499L22.8114 56.249C24.3597 54.0474 26.8662 54.0884 28.542 55.2659C29.0875 55.6491 29.5494 56.156 29.8709 56.7413C31.3273 55.8071 33.1026 56.0418 34.3886 56.9463C35.4676 57.7052 36.2194 58.9482 36.2045 60.3248C37.0191 60.3657 37.8142 60.6544 38.4789 61.1223C39.9617 62.1659 40.8259 64.1229 39.9312 66.0855C40.4998 66.2116 41.0422 66.4543 41.5178 66.789C42.9451 67.7932 43.7984 69.6433 43.0639 71.5304L46.2933 73.4109C47.6103 74.1774 48.3572 73.048 48.4936 72.8138C48.63 72.5798 49.2434 71.3738 47.9298 70.6065L47.9281 70.6054C47.928 70.6052 47.928 70.6052 47.9276 70.6051C47.9276 70.6051 47.9276 70.6051 47.9275 70.6051L43.7662 68.1823C43.1697 67.8349 42.9676 67.0698 43.315 66.4732C43.6623 65.8766 44.4275 65.6748 45.0242 66.0219L49.1855 68.4449C49.1856 68.4451 49.1859 68.4451 49.1861 68.4452L49.1866 68.4455C49.1875 68.446 49.1884 68.4466 49.1894 68.4471L50.4906 69.2051C51.8073 69.9715 52.5544 68.8421 52.6909 68.608C52.8273 68.3738 53.4406 67.1679 52.127 66.4005L52.1251 66.3994C52.125 66.3994 52.125 66.3993 52.1248 66.3993C52.1245 66.3991 52.1242 66.3988 52.1239 66.3987L47.0226 63.4284C46.4261 63.081 46.224 62.3159 46.5714 61.7193C46.9189 61.1227 47.684 60.9209 48.2806 61.268L53.3833 64.2391L53.3836 64.2393C53.3847 64.2399 53.3855 64.2404 53.3864 64.241L55.0195 65.1919C55.5695 65.5123 56.0869 65.5377 56.5575 65.2684C57.0978 64.9591 57.4767 64.3082 57.4789 63.6857C57.4809 63.1434 57.2031 62.706 56.6533 62.3859L55.3342 61.6177C55.3339 61.6176 55.3334 61.6174 55.3331 61.6171L55.332 61.6165C55.3319 61.6163 55.3316 61.6162 55.3314 61.616L50.2792 58.6744C49.6826 58.3271 49.4806 57.5619 49.828 56.9654C50.1755 56.3688 50.9405 56.1669 51.5372 56.5141L56.5894 59.4557C57.9064 60.2207 58.6523 59.091 58.7886 58.8568C58.9245 58.6224 59.5375 57.4151 58.2212 56.6485ZM62.5136 52.2943L54.9017 39.1099C49.6519 40.5919 45.1226 39.9149 42.11 39.2516C37.7089 38.2834 36.6306 39.3457 32.0919 43.8174C31.6492 44.2535 31.1581 44.7373 30.6342 45.2473L30.3267 51.7212C30.3066 52.1455 30.3887 52.3929 30.4792 52.4498C30.6906 52.5826 31.458 52.5613 32.6156 51.9363C33.4631 51.4788 34.187 49.9323 34.8258 48.5676C35.0575 48.0723 35.2973 47.5604 35.5442 47.0952C35.6725 46.8538 35.8764 46.6612 36.1247 46.5465C36.3509 46.4421 36.5769 46.3349 36.8023 46.2277C38.9653 45.2009 41.4169 44.0369 44.0151 45.5368L58.8876 54.1455L62.5136 52.2943ZM73.7431 49.0505L64.042 32.2476C63.7023 31.6591 62.9472 31.457 62.3589 31.7966L56.8312 34.988C56.5486 35.1512 56.3458 35.4173 56.26 35.7369C56.1744 36.0566 56.217 36.3884 56.3803 36.671L66.0816 53.4743C66.2447 53.7569 66.5108 53.9598 66.8305 54.0454C67.1505 54.1316 67.4819 54.0885 67.7645 53.9252L73.2923 50.7338C73.8806 50.3941 74.083 49.639 73.7431 49.0505Z" fill="#99A537"/>
</svg>
