<svg width="80" height="80" viewBox="0 0 80 80" fill="none" xmlns="http://www.w3.org/2000/svg">
<path d="M22.495 50.587C21.6372 48.666 20.1373 47.583 18.4768 47.6284V42.6039C18.4768 39.8544 16.24 37.6175 13.4907 37.6175C13.2368 37.6175 12.9913 37.6517 12.7552 37.71V37.4116C12.7552 34.662 10.5185 32.4253 7.76897 32.4253C6.07126 32.4253 4.68994 33.8065 4.68994 35.5043V57.7764L15.1796 74.399V80.0002H30.0718L27.9832 62.8789L22.495 50.587ZM13.4907 39.9612C14.9478 39.9612 16.1332 41.1468 16.1332 42.6041V48.5017C15.0248 49.4016 14.4219 50.8829 14.669 52.4292L14.6804 52.5008L15.6402 55.8109L12.7552 53.1147V40.6968C12.7552 40.2981 13.0919 39.9612 13.4907 39.9612ZM17.5231 77.6566V73.7214L7.03355 57.0988V35.5043C7.03355 35.1058 7.37025 34.7689 7.76897 34.7689C9.22607 34.7689 10.4116 35.9543 10.4116 37.4116V54.1319L16.9158 60.211L18.9513 67.2321L21.2021 66.5795L16.9739 51.9952C16.8501 51.0367 17.4015 50.1861 18.2772 50.0016C19.4569 49.7532 20.1654 51.1181 20.3548 51.5423L25.6993 63.5123L27.4248 77.6565L17.5231 77.6566Z" fill="#99A537"/>
<path d="M72.2316 32.4253C69.4821 32.4253 67.2453 34.662 67.2453 37.4116V37.71C67.0092 37.6517 66.7638 37.6175 66.5099 37.6175C63.7604 37.6175 61.5236 39.8544 61.5236 42.6039V47.6283C59.8625 47.5827 58.3632 48.666 57.5056 50.5868L52.0173 62.8786L49.9287 79.9999H64.8209V74.3987L69.2594 67.3649L67.2773 66.1142L62.4772 73.7211V77.6563H52.5754L54.3009 63.5122L59.6455 51.5421C59.8348 51.1179 60.5454 49.7533 61.723 50.0014C62.5986 50.1859 63.1501 51.0365 63.0264 51.995L58.7982 66.5793L61.049 67.2319L63.0845 60.2108L69.5886 54.1318V37.4117C69.5886 35.9545 70.7742 34.7691 72.2313 34.7691C72.63 34.7691 72.9667 35.1059 72.9667 35.5045V57.099L68.5281 64.1326L70.5101 65.3833L75.3105 57.7766V35.5043C75.3108 33.8066 73.9294 32.4253 72.2316 32.4253ZM67.2453 53.1145L64.3605 55.8109L65.3203 52.5008L65.3317 52.4292C65.5789 50.8828 64.9758 49.4013 63.8674 48.5015V42.6039C63.8674 41.1466 65.0529 39.9611 66.51 39.9611C66.9088 39.9611 67.2455 40.2979 67.2455 40.6967L67.2453 53.1145Z" fill="#99A537"/>
<path d="M58.3791 37.5023C58.8577 34.0175 58.109 30.1161 56.2708 26.5167C54.4326 22.9172 51.7106 20.0235 48.6069 18.3683C45.6888 16.8123 42.7411 16.5042 40.2033 17.4677L35.977 12.8417C36.2862 11.3224 36.6573 9.8369 37.0652 8.39559L40.4403 5.98854C42.885 8.77853 46.7034 9.52333 50.8349 9.52333C53.3083 9.52333 55.8941 9.25631 58.3638 9.00117C60.3112 8.80009 62.1504 8.6101 63.8131 8.55964L65.5965 8.50542L64.8382 6.89021C63.4429 3.91742 59.8995 1.53709 55.3596 0.523093C49.6104 -0.761205 43.718 0.359196 39.9682 3.44651L38.2072 4.70237C38.4731 3.90258 38.7436 3.11997 39.0132 2.35829L36.8038 1.57615C36.0805 3.61916 35.3519 5.80434 34.7141 8.0992C34.0181 8.63838 32.9624 9.39834 32.016 10.0795C31.4974 10.4528 30.9995 10.8112 30.5698 11.126C24.0288 9.28647 20.4166 11.5231 16.2512 14.1012C14.665 15.0831 13.0247 16.0984 11.0362 17.0357L9.62939 17.6989L10.6548 18.8682C12.5455 21.0242 14.7328 22.1396 17.1561 22.1832C17.2067 22.1841 17.2572 22.1846 17.3083 22.1846C21.3087 22.1846 25.8518 19.3532 31.5801 13.2933C32.0673 12.93 32.7085 12.4686 33.385 11.9816C33.5328 11.8752 33.6811 11.7685 33.829 11.662C33.2341 14.4032 32.8233 17.268 32.7402 20.2099C30.1819 20.5703 27.8222 22.1255 26.0014 24.6805L27.9098 26.0408C29.5499 23.7395 31.6756 22.4722 33.8953 22.4722C34.324 22.4722 34.7508 22.5205 35.1728 22.6146C34.8054 23.5331 34.5402 24.5412 34.3907 25.6291C33.9121 29.1139 34.6608 33.0153 36.4992 36.6147C37.7243 39.0136 39.3434 41.0963 41.2048 42.7105C39.5804 46.3767 36.8321 48.6197 33.8953 48.6197C31.6382 48.6197 29.4865 47.3159 27.8366 44.9484C26.0967 42.4521 25.1385 39.1129 25.1385 35.546C25.1385 32.8096 25.7073 30.1849 26.7834 27.9555L24.6729 26.9366C23.4442 29.4818 22.7947 32.4588 22.7947 35.546C22.7947 39.5876 23.9024 43.4027 25.9136 46.2884C28.0147 49.3031 30.8492 50.9633 33.8951 50.9633C37.6399 50.9633 41.0787 48.3886 43.1211 44.1495C43.4631 44.3689 43.8103 44.575 44.1629 44.7631C45.972 45.7279 47.7922 46.2133 49.5196 46.2131C50.8881 46.2131 52.1984 45.9083 53.3972 45.296C56.11 43.9105 57.8791 41.1427 58.3791 37.5023ZM54.8487 2.8103C57.7879 3.46698 60.2016 4.73378 61.66 6.33399C60.526 6.42164 59.3454 6.54351 58.123 6.66975C52.211 7.28034 45.5682 7.96639 42.3501 4.59691C45.5669 2.46782 50.236 1.78005 54.8487 2.8103ZM17.3061 19.8411C17.2703 19.8411 17.2344 19.8408 17.1988 19.8402C15.877 19.8165 14.6658 19.3462 13.5274 18.4098C15.0017 17.6313 16.3029 16.8259 17.4849 16.0942C21.1273 13.8396 23.8738 12.1394 28.549 13.0506C23.9815 17.6147 20.2914 19.8411 17.3061 19.8411ZM35.0846 20.2174C35.1296 18.7132 35.2657 17.226 35.4717 15.7634L38.1019 18.6422C37.4254 19.1606 36.8281 19.7815 36.3187 20.4963C35.912 20.3716 35.5002 20.2783 35.0846 20.2174ZM45.2658 42.6949C42.5808 41.2631 40.209 38.7252 38.5865 35.5485C36.964 32.3719 36.2984 28.9623 36.7126 25.9478C37.1054 23.0889 38.4284 20.949 40.4386 19.9225C41.2972 19.484 42.2465 19.2662 43.2513 19.2662C44.5988 19.2662 46.0456 19.6583 47.5044 20.4363C50.1894 21.8681 52.5613 24.406 54.1837 27.5825C55.8061 30.7592 56.4717 34.1689 56.0575 37.1834C55.6649 40.0423 54.3417 42.1821 52.3317 43.2086C50.3215 44.2353 47.8124 44.0528 45.2658 42.6949Z" fill="#99A537"/>
<path d="M48.1675 25.8872H50.5111V28.2308H48.1675V25.8872Z" fill="#99A537"/>
<path d="M50.5112 30.5747H52.8548V32.9183H50.5112V30.5747Z" fill="#99A537"/>
</svg>
